Khula-Light.ufo
<glyph name="exclam.deva" format="1">
  <advance width="705"/>
  <unicode hex="0021"/>
  <outline>
    <contour>
      <point x="380" y="339" type="line"/>
      <point x="325" y="339" type="line"/>
      <point x="299" y="1316" type="line"/>
      <point x="406" y="1316" type="line"/>
    </contour>
    <contour>
      <point x="280" y="70" type="curve" smooth="yes"/>
      <point x="280" y="129"/>
      <point x="304" y="158"/>
      <point x="352" y="158" type="curve" smooth="yes"/>
      <point x="401" y="158"/>
      <point x="425" y="129"/>
      <point x="425" y="70" type="curve" smooth="yes"/>
      <point x="425" y="11"/>
      <point x="401" y="-18"/>
      <point x="352" y="-18" type="curve" smooth="yes"/>
      <point x="304" y="-18"/>
      <point x="280" y="11"/>
    </contour>
  </outline>
</glyph>
<glyph name="quotedbl.deva" format="1">
  <advance width="931"/>
  <unicode hex="0022"/>
  <outline>
    <contour>
      <point x="374" y="1316" type="line"/>
      <point x="344" y="841" type="line"/>
      <point x="289" y="841" type="line"/>
      <point x="260" y="1316" type="line"/>
    </contour>
    <contour>
      <point x="671" y="1316" type="line"/>
      <point x="641" y="841" type="line"/>
      <point x="586" y="841" type="line"/>
      <point x="557" y="1316" type="line"/>
    </contour>
  </outline>
</glyph>
<glyph name="numbersign.deva" format="1">
  <advance width="1392"/>
  <unicode hex="0023"/>
  <outline>
    <contour>
      <point x="971" y="835" type="line"/>
      <point x="903" y="477" type="line"/>
      <point x="1176" y="477" type="line"/>
      <point x="1176" y="406" type="line"/>
      <point x="888" y="406" type="line"/>
      <point x="810" y="0" type="line"/>
      <point x="729" y="0" type="line"/>
      <point x="808" y="406" type="line"/>
      <point x="484" y="406" type="line"/>
      <point x="407" y="0" type="line"/>
      <point x="328" y="0" type="line"/>
      <point x="405" y="406" type="line"/>
      <point x="150" y="406" type="line"/>
      <point x="150" y="477" type="line"/>
      <point x="420" y="477" type="line"/>
      <point x="488" y="835" type="line"/>
      <point x="221" y="835" type="line"/>
      <point x="221" y="907" type="line"/>
      <point x="501" y="907" type="line"/>
      <point x="578" y="1316" type="line"/>
      <point x="660" y="1316" type="line"/>
      <point x="580" y="907" type="line"/>
      <point x="908" y="907" type="line"/>
      <point x="987" y="1316" type="line"/>
      <point x="1065" y="1316" type="line"/>
      <point x="986" y="907" type="line"/>
      <point x="1242" y="907" type="line"/>
      <point x="1242" y="835" type="line"/>
    </contour>
    <contour>
      <point x="497" y="477" type="line"/>
      <point x="824" y="477" type="line"/>
      <point x="894" y="835" type="line"/>
      <point x="567" y="835" type="line"/>
    </contour>
  </outline>
</glyph>
<glyph name="dollar" format="1">
  <advance width="1052"/>
  <unicode hex="0024"/>
  <outline>
    <contour>
      <point x="892" y="396" type="curve" smooth="yes"/>
      <point x="892" y="236"/>
      <point x="767" y="132"/>
      <point x="556" y="105" type="curve"/>
      <point x="556" y="-107" type="line"/>
      <point x="483" y="-107" type="line"/>
      <point x="483" y="102" type="line"/>
      <point x="428" y="103"/>
      <point x="367" y="109"/>
      <point x="302" y="121" type="curve" smooth="yes"/>
      <point x="237" y="134"/>
      <point x="186" y="149"/>
      <point x="148" y="167" type="curve"/>
      <point x="148" y="260" type="line"/>
      <point x="193" y="239"/>
      <point x="246" y="220"/>
      <point x="309" y="205" type="curve" smooth="yes"/>
      <point x="372" y="190"/>
      <point x="430" y="183"/>
      <point x="483" y="183" type="curve"/>
      <point x="483" y="640" type="line"/>
      <point x="396" y="666"/>
      <point x="332" y="692"/>
      <point x="290" y="719" type="curve" smooth="yes"/>
      <point x="206" y="772"/>
      <point x="169" y="841"/>
      <point x="169" y="944" type="curve" smooth="yes"/>
      <point x="169" y="1019"/>
      <point x="197" y="1081"/>
      <point x="254" y="1132" type="curve" smooth="yes"/>
      <point x="311" y="1183"/>
      <point x="387" y="1214"/>
      <point x="483" y="1226" type="curve"/>
      <point x="483" y="1399" type="line"/>
      <point x="556" y="1399" type="line"/>
      <point x="556" y="1228" type="line"/>
      <point x="674" y="1222"/>
      <point x="779" y="1200"/>
      <point x="872" y="1163" type="curve"/>
      <point x="842" y="1082" type="line"/>
      <point x="757" y="1119"/>
      <point x="662" y="1141"/>
      <point x="556" y="1147" type="curve"/>
      <point x="556" y="709" type="line"/>
      <point x="684" y="670"/>
      <point x="772" y="626"/>
      <point x="820" y="579" type="curve" smooth="yes"/>
      <point x="868" y="532"/>
      <point x="892" y="471"/>
    </contour>
    <contour>
      <point x="793" y="400" type="curve" smooth="yes"/>
      <point x="793" y="501"/>
      <point x="720" y="564"/>
      <point x="556" y="612" type="curve"/>
      <point x="556" y="188" type="line"/>
      <point x="703" y="204"/>
      <point x="793" y="281"/>
    </contour>
    <contour>
      <point x="267" y="944" type="curve" smooth="yes"/>
      <point x="267" y="841"/>
      <point x="332" y="780"/>
      <point x="483" y="733" type="curve"/>
      <point x="483" y="1141" type="line"/>
      <point x="340" y="1122"/>
      <point x="267" y="1044"/>
    </contour>
  </outline>
</glyph>
<glyph name="percent.deva" format="1">
  <advance width="1524"/>
  <unicode hex="0025"/>
  <outline>
    <contour>
      <point x="208" y="923" type="curve" smooth="yes"/>
      <point x="208" y="700"/>
      <point x="260" y="588"/>
      <point x="375" y="588" type="curve" smooth="yes"/>
      <point x="491" y="588"/>
      <point x="549" y="700"/>
      <point x="549" y="923" type="curve" smooth="yes"/>
      <point x="549" y="1144"/>
      <point x="488" y="1255"/>
      <point x="375" y="1255" type="curve" smooth="yes"/>
      <point x="260" y="1255"/>
      <point x="208" y="1144"/>
    </contour>
    <contour>
      <point x="637" y="923" type="curve" smooth="yes"/>
      <point x="637" y="652"/>
      <point x="544" y="508"/>
      <point x="375" y="508" type="curve" smooth="yes"/>
      <point x="216" y="508"/>
      <point x="120" y="659"/>
      <point x="120" y="923" type="curve" smooth="yes"/>
      <point x="120" y="1191"/>
      <point x="207" y="1335"/>
      <point x="375" y="1335" type="curve" smooth="yes"/>
      <point x="542" y="1335"/>
      <point x="637" y="1183"/>
    </contour>
    <contour>
      <point x="975" y="394" type="curve" smooth="yes"/>
      <point x="975" y="173"/>
      <point x="1027" y="61"/>
      <point x="1142" y="61" type="curve" smooth="yes"/>
      <point x="1258" y="61"/>
      <point x="1316" y="172"/>
      <point x="1316" y="394" type="curve" smooth="yes"/>
      <point x="1316" y="615"/>
      <point x="1258" y="726"/>
      <point x="1142" y="726" type="curve" smooth="yes"/>
      <point x="1027" y="726"/>
      <point x="975" y="618"/>
    </contour>
    <contour>
      <point x="1404" y="394" type="curve" smooth="yes"/>
      <point x="1404" y="123"/>
      <point x="1313" y="-21"/>
      <point x="1144" y="-21" type="curve" smooth="yes"/>
      <point x="980" y="-21"/>
      <point x="886" y="133"/>
      <point x="886" y="394" type="curve" smooth="yes"/>
      <point x="886" y="665"/>
      <point x="977" y="805"/>
      <point x="1144" y="805" type="curve" smooth="yes"/>
      <point x="1308" y="805"/>
      <point x="1404" y="654"/>
    </contour>
    <contour>
      <point x="1170" y="1316" type="line"/>
      <point x="440" y="0" type="line"/>
      <point x="354" y="0" type="line"/>
      <point x="1084" y="1316" type="line"/>
    </contour>
  </outline>
</glyph>
<glyph name="ampersand" format="1">
  <advance width="1314"/>
  <unicode hex="0026"/>
  <outline>
    <contour>
      <point x="111" y="334" type="curve" smooth="yes"/>
      <point x="111" y="417"/>
      <point x="133" y="487"/>
      <point x="177" y="545" type="curve" smooth="yes"/>
      <point x="221" y="604"/>
      <point x="303" y="665"/>
      <point x="424" y="730" type="curve"/>
      <point x="356" y="804" type="line" smooth="yes"/>
      <point x="277" y="889"/>
      <point x="239" y="968"/>
      <point x="239" y="1057" type="curve" smooth="yes"/>
      <point x="239" y="1142"/>
      <point x="268" y="1210"/>
      <point x="325" y="1260" type="curve" smooth="yes"/>
      <point x="382" y="1311"/>
      <point x="459" y="1336"/>
      <point x="556" y="1336" type="curve" smooth="yes"/>
      <point x="649" y="1336"/>
      <point x="723" y="1312"/>
      <point x="777" y="1263" type="curve"/>
      <point x="832" y="1215"/>
      <point x="859" y="1148"/>
      <point x="859" y="1062" type="curve" smooth="yes"/>
      <point x="859" y="999"/>
      <point x="838" y="941"/>
      <point x="796" y="888" type="curve" smooth="yes"/>
      <point x="754" y="836"/>
      <point x="678" y="778"/>
      <point x="568" y="714" type="curve"/>
      <point x="975" y="302" type="line"/>
      <point x="1048" y="389"/>
      <point x="1097" y="485"/>
      <point x="1136" y="625" type="curve"/>
      <point x="1222" y="625" type="line"/>
      <point x="1184" y="477"/>
      <point x="1121" y="349"/>
      <point x="1034" y="241" type="curve"/>
      <point x="1273" y="0" type="line"/>
      <point x="1152" y="0" type="line"/>
      <point x="978" y="177" type="line"/>
      <point x="923" y="123"/>
      <point x="873" y="84"/>
      <point x="830" y="59" type="curve" smooth="yes"/>
      <point x="745" y="10"/>
      <point x="645" y="-18"/>
      <point x="514" y="-18" type="curve" smooth="yes"/>
      <point x="389" y="-18"/>
      <point x="290" y="13"/>
      <point x="218" y="74" type="curve"/>
      <point x="147" y="136"/>
      <point x="111" y="223"/>
    </contour>
    <contour>
      <point x="520" y="63" type="curve" smooth="yes"/>
      <point x="673" y="63"/>
      <point x="796" y="110"/>
      <point x="920" y="234" type="curve"/>
      <point x="485" y="670" type="line"/>
      <point x="404" y="627"/>
      <point x="345" y="591"/>
      <point x="308" y="560" type="curve" smooth="yes"/>
      <point x="236" y="500"/>
      <point x="204" y="433"/>
      <point x="204" y="337" type="curve" smooth="yes"/>
      <point x="204" y="252"/>
      <point x="232" y="185"/>
      <point x="288" y="136" type="curve" smooth="yes"/>
      <point x="344" y="87"/>
      <point x="421" y="63"/>
    </contour>
    <contour>
      <point x="336" y="1058" type="curve" smooth="yes"/>
      <point x="336" y="1011"/>
      <point x="348" y="967"/>
      <point x="372" y="927" type="curve" smooth="yes"/>
      <point x="396" y="887"/>
      <point x="441" y="835"/>
      <point x="508" y="770" type="curve"/>
      <point x="604" y="821"/>
      <point x="670" y="869"/>
      <point x="707" y="913" type="curve" smooth="yes"/>
      <point x="744" y="958"/>
      <point x="763" y="1009"/>
      <point x="763" y="1066" type="curve" smooth="yes"/>
      <point x="763" y="1178"/>
      <point x="684" y="1255"/>
      <point x="556" y="1255" type="curve" smooth="yes"/>
      <point x="420" y="1255"/>
      <point x="336" y="1182"/>
    </contour>
  </outline>
</glyph>
<glyph name="quotesingle.deva" format="1">
  <advance width="634"/>
  <unicode hex="0027"/>
  <outline>
    <contour>
      <point x="374" y="1316" type="line"/>
      <point x="344" y="841" type="line"/>
      <point x="289" y="841" type="line"/>
      <point x="260" y="1316" type="line"/>
    </contour>
  </outline>
</glyph>
<glyph name="parenleft.deva" format="1">
  <advance width="681"/>
  <unicode hex="0028"/>
  <outline>
    <contour>
      <point x="114" y="605" type="curve" smooth="yes"/>
      <point x="114" y="922"/>
      <point x="209" y="1207"/>
      <point x="385" y="1416" type="curve"/>
      <point x="486" y="1416" type="line"/>
      <point x="309" y="1197"/>
      <point x="211" y="914"/>
      <point x="211" y="607" type="curve" smooth="yes"/>
      <point x="211" y="317"/>
      <point x="302" y="51"/>
      <point x="485" y="-192" type="curve"/>
      <point x="385" y="-192" type="line"/>
      <point x="208" y="12"/>
      <point x="114" y="292"/>
    </contour>
  </outline>
</glyph>
<glyph name="parenright.deva" format="1">
  <advance width="501"/>
  <unicode hex="0029"/>
  <outline>
    <contour>
      <point x="427" y="505" type="curve" smooth="yes"/>
      <point x="427" y="189"/>
      <point x="332" y="-89"/>
      <point x="157" y="-292" type="curve"/>
      <point x="57" y="-292" type="line"/>
      <point x="239" y="-49"/>
      <point x="330" y="217"/>
      <point x="330" y="507" type="curve" smooth="yes"/>
      <point x="330" y="815"/>
      <point x="232" y="1099"/>
      <point x="55" y="1316" type="curve"/>
      <point x="157" y="1316" type="line"/>
      <point x="333" y="1105"/>
      <point x="427" y="821"/>
    </contour>
  </outline>
</glyph>
<glyph name="asterisk.deva" format="1">
  <advance width="1215"/>
  <unicode hex="002A"/>
  <outline>
    <contour>
      <point x="668" y="1400" type="line"/>
      <point x="635" y="1036" type="line"/>
      <point x="999" y="1129" type="line"/>
      <point x="1018" y="1012" type="line"/>
      <point x="662" y="976" type="line"/>
      <point x="885" y="670" type="line"/>
      <point x="773" y="607" type="line"/>
      <point x="601" y="948" type="line"/>
      <point x="439" y="607" type="line"/>
      <point x="327" y="670" type="line"/>
      <point x="545" y="976" type="line"/>
      <point x="194" y="1012" type="line"/>
      <point x="211" y="1129" type="line"/>
      <point x="572" y="1036" type="line"/>
      <point x="536" y="1400" type="line"/>
    </contour>
  </outline>
</glyph>
<glyph name="plus.deva" format="1">
  <advance width="1052"/>
  <unicode hex="002B"/>
  <outline>
    <contour>
      <point x="562" y="688" type="line"/>
      <point x="953" y="688" type="line"/>
      <point x="953" y="614" type="line"/>
      <point x="562" y="614" type="line"/>
      <point x="562" y="225" type="line"/>
      <point x="489" y="225" type="line"/>
      <point x="489" y="614" type="line"/>
      <point x="100" y="614" type="line"/>
      <point x="100" y="688" type="line"/>
      <point x="489" y="688" type="line"/>
      <point x="489" y="1078" type="line"/>
      <point x="562" y="1078" type="line"/>
    </contour>
  </outline>
</glyph>
<glyph name="comma.deva" format="1">
  <advance width="506"/>
  <unicode hex="002C"/>
  <outline>
    <contour>
      <point x="309" y="214" type="line"/>
      <point x="320" y="195" type="line"/>
      <point x="275" y="36"/>
      <point x="223" y="-108"/>
      <point x="164" y="-238" type="curve"/>
      <point x="105" y="-238" type="line"/>
      <point x="151" y="-73"/>
      <point x="184" y="78"/>
      <point x="204" y="214" type="curve"/>
    </contour>
  </outline>
</glyph>
<glyph name="hyphen.deva" format="1">
  <advance width="793"/>
  <unicode hex="002D"/>
  <outline>
    <contour>
      <point x="183" y="461" type="line"/>
      <point x="183" y="535" type="line"/>
      <point x="610" y="535" type="line"/>
      <point x="610" y="461" type="line"/>
    </contour>
  </outline>
</glyph>
<glyph name="zero.deva" format="1">
  <advance width="1052"/>
  <unicode hex="0030"/>
  <outline>
    <contour>
      <point x="949" y="661" type="curve" smooth="yes"/>
      <point x="949" y="200"/>
      <point x="809" y="-18"/>
      <point x="524" y="-18" type="curve" smooth="yes"/>
      <point x="249" y="-18"/>
      <point x="103" y="213"/>
      <point x="103" y="661" type="curve" smooth="yes"/>
      <point x="103" y="1120"/>
      <point x="240" y="1336"/>
      <point x="524" y="1336" type="curve" smooth="yes"/>
      <point x="801" y="1336"/>
      <point x="949" y="1105"/>
    </contour>
    <contour>
      <point x="201" y="661" type="curve" smooth="yes"/>
      <point x="201" y="253"/>
      <point x="307" y="63"/>
      <point x="524" y="63" type="curve" smooth="yes"/>
      <point x="751" y="63"/>
      <point x="850" y="266"/>
      <point x="850" y="661" type="curve" smooth="yes"/>
      <point x="850" y="1050"/>
      <point x="751" y="1255"/>
      <point x="524" y="1255" type="curve" smooth="yes"/>
      <point x="297" y="1255"/>
      <point x="201" y="1050"/>
    </contour>
  </outline>
</glyph>
<glyph name="one.deva" format="1">
  <advance width="1052"/>
  <unicode hex="0031"/>
  <outline>
    <contour>
      <point x="614" y="0" type="line"/>
      <point x="526" y="0" type="line"/>
      <point x="526" y="958" type="line" smooth="yes"/>
      <point x="526" y="1045"/>
      <point x="529" y="1136"/>
      <point x="536" y="1229" type="curve"/>
      <point x="508" y="1203" type="line" smooth="yes"/>
      <point x="499" y="1195"/>
      <point x="406" y="1122"/>
      <point x="230" y="985" type="curve"/>
      <point x="179" y="1048" type="line"/>
      <point x="536" y="1316" type="line"/>
      <point x="614" y="1316" type="line"/>
    </contour>
  </outline>
</glyph>
<glyph name="two.deva" format="1">
  <advance width="1052"/>
  <unicode hex="0032"/>
  <outline>
    <contour>
      <point x="925" y="0" type="line"/>
      <point x="102" y="0" type="line"/>
      <point x="102" y="79" type="line"/>
      <point x="452" y="445" type="line" smooth="yes"/>
      <point x="550" y="547"/>
      <point x="619" y="625"/>
      <point x="658" y="679" type="curve" smooth="yes"/>
      <point x="738" y="787"/>
      <point x="774" y="880"/>
      <point x="774" y="988" type="curve" smooth="yes"/>
      <point x="774" y="1067"/>
      <point x="748" y="1131"/>
      <point x="696" y="1180" type="curve" smooth="yes"/>
      <point x="645" y="1229"/>
      <point x="578" y="1254"/>
      <point x="496" y="1254" type="curve" smooth="yes"/>
      <point x="386" y="1254"/>
      <point x="281" y="1214"/>
      <point x="181" y="1134" type="curve"/>
      <point x="132" y="1196" type="line"/>
      <point x="242" y="1289"/>
      <point x="364" y="1335"/>
      <point x="498" y="1335" type="curve" smooth="yes"/>
      <point x="613" y="1335"/>
      <point x="703" y="1304"/>
      <point x="768" y="1243" type="curve" smooth="yes"/>
      <point x="834" y="1182"/>
      <point x="867" y="1097"/>
      <point x="867" y="990" type="curve" smooth="yes"/>
      <point x="867" y="903"/>
      <point x="845" y="818"/>
      <point x="800" y="737" type="curve" smooth="yes"/>
      <point x="756" y="656"/>
      <point x="676" y="556"/>
      <point x="559" y="436" type="curve" smooth="yes"/>
      <point x="221" y="90" type="line"/>
      <point x="221" y="86" type="line"/>
      <point x="925" y="86" type="line"/>
    </contour>
  </outline>
</glyph>
<glyph name="three.deva" format="1">
  <advance width="1052"/>
  <unicode hex="0033"/>
  <outline>
    <contour>
      <point x="881" y="1006" type="curve" smooth="yes"/>
      <point x="881" y="925"/>
      <point x="855" y="856"/>
      <point x="804" y="800" type="curve" smooth="yes"/>
      <point x="753" y="744"/>
      <point x="684" y="708"/>
      <point x="598" y="693" type="curve"/>
      <point x="598" y="688" type="line"/>
      <point x="809" y="661"/>
      <point x="922" y="552"/>
      <point x="922" y="369" type="curve" smooth="yes"/>
      <point x="922" y="122"/>
      <point x="748" y="-18"/>
      <point x="435" y="-18" type="curve" smooth="yes"/>
      <point x="301" y="-18"/>
      <point x="184" y="7"/>
      <point x="85" y="57" type="curve"/>
      <point x="85" y="146" type="line"/>
      <point x="135" y="119"/>
      <point x="191" y="98"/>
      <point x="254" y="83" type="curve" smooth="yes"/>
      <point x="317" y="68"/>
      <point x="376" y="61"/>
      <point x="431" y="61" type="curve" smooth="yes"/>
      <point x="696" y="61"/>
      <point x="830" y="173"/>
      <point x="830" y="369" type="curve" smooth="yes"/>
      <point x="830" y="542"/>
      <point x="691" y="640"/>
      <point x="427" y="640" type="curve" smooth="yes"/>
      <point x="285" y="640" type="line"/>
      <point x="285" y="726" type="line"/>
      <point x="429" y="726" type="line" smooth="yes"/>
      <point x="538" y="726"/>
      <point x="625" y="752"/>
      <point x="689" y="804" type="curve" smooth="yes"/>
      <point x="753" y="856"/>
      <point x="785" y="926"/>
      <point x="785" y="1015" type="curve" smooth="yes"/>
      <point x="785" y="1088"/>
      <point x="759" y="1147"/>
      <point x="707" y="1191" type="curve" smooth="yes"/>
      <point x="655" y="1235"/>
      <point x="587" y="1257"/>
      <point x="503" y="1257" type="curve" smooth="yes"/>
      <point x="438" y="1257"/>
      <point x="378" y="1248"/>
      <point x="324" y="1229" type="curve" smooth="yes"/>
      <point x="270" y="1211"/>
      <point x="209" y="1180"/>
      <point x="142" y="1136" type="curve"/>
      <point x="98" y="1196" type="line"/>
      <point x="149" y="1239"/>
      <point x="211" y="1272"/>
      <point x="283" y="1297" type="curve" smooth="yes"/>
      <point x="355" y="1322"/>
      <point x="428" y="1335"/>
      <point x="501" y="1335" type="curve" smooth="yes"/>
      <point x="744" y="1335"/>
      <point x="881" y="1215"/>
    </contour>
  </outline>
</glyph>
<glyph name="four.deva" format="1">
  <advance width="1052"/>
  <unicode hex="0034"/>
  <outline>
    <contour>
      <point x="1027" y="336" type="line"/>
      <point x="800" y="336" type="line"/>
      <point x="800" y="0" type="line"/>
      <point x="715" y="0" type="line"/>
      <point x="715" y="336" type="line"/>
      <point x="39" y="336" type="line"/>
      <point x="39" y="396" type="line"/>
      <point x="691" y="1323" type="line"/>
      <point x="800" y="1323" type="line"/>
      <point x="800" y="413" type="line"/>
      <point x="1027" y="413" type="line"/>
    </contour>
    <contour>
      <point x="715" y="413" type="line"/>
      <point x="715" y="789" type="line" smooth="yes"/>
      <point x="715" y="970"/>
      <point x="719" y="1123"/>
      <point x="728" y="1246" type="curve"/>
      <point x="721" y="1246" type="line"/>
      <point x="709" y="1223"/>
      <point x="672" y="1167"/>
      <point x="610" y="1076" type="curve"/>
      <point x="146" y="413" type="line"/>
    </contour>
  </outline>
</glyph>
<glyph name="five.deva" format="1">
  <advance width="1052"/>
  <unicode hex="0035"/>
  <outline>
    <contour>
      <point x="483" y="791" type="curve" smooth="yes"/>
      <point x="624" y="791"/>
      <point x="734" y="757"/>
      <point x="815" y="689" type="curve" smooth="yes"/>
      <point x="896" y="622"/>
      <point x="936" y="528"/>
      <point x="936" y="409" type="curve" smooth="yes"/>
      <point x="936" y="274"/>
      <point x="894" y="169"/>
      <point x="810" y="94" type="curve" smooth="yes"/>
      <point x="726" y="19"/>
      <point x="610" y="-18"/>
      <point x="463" y="-18" type="curve" smooth="yes"/>
      <point x="331" y="-18"/>
      <point x="208" y="9"/>
      <point x="129" y="57" type="curve"/>
      <point x="129" y="149" type="line"/>
      <point x="194" y="116"/>
      <point x="251" y="93"/>
      <point x="301" y="80" type="curve" smooth="yes"/>
      <point x="352" y="67"/>
      <point x="406" y="61"/>
      <point x="463" y="61" type="curve" smooth="yes"/>
      <point x="578" y="61"/>
      <point x="670" y="91"/>
      <point x="739" y="152" type="curve" smooth="yes"/>
      <point x="809" y="213"/>
      <point x="844" y="296"/>
      <point x="844" y="400" type="curve" smooth="yes"/>
      <point x="844" y="497"/>
      <point x="810" y="574"/>
      <point x="742" y="630" type="curve" smooth="yes"/>
      <point x="675" y="686"/>
      <point x="583" y="714"/>
      <point x="466" y="714" type="curve" smooth="yes"/>
      <point x="388" y="714"/>
      <point x="306" y="702"/>
      <point x="221" y="679" type="curve"/>
      <point x="167" y="714" type="line"/>
      <point x="220" y="1316" type="line"/>
      <point x="853" y="1316" type="line"/>
      <point x="853" y="1229" type="line"/>
      <point x="304" y="1229" type="line"/>
      <point x="264" y="765" type="line"/>
      <point x="357" y="782"/>
      <point x="430" y="791"/>
    </contour>
  </outline>
</glyph>
<glyph name="six.deva" format="1">
  <advance width="1052"/>
  <unicode hex="0036"/>
  <outline>
    <contour>
      <point x="118" y="561" type="curve" smooth="yes"/>
      <point x="118" y="1077"/>
      <point x="335" y="1340"/>
      <point x="695" y="1336" type="curve"/>
      <point x="751" y="1336"/>
      <point x="803" y="1329"/>
      <point x="850" y="1316" type="curve"/>
      <point x="850" y="1237" type="line"/>
      <point x="806" y="1253"/>
      <point x="753" y="1261"/>
      <point x="691" y="1261" type="curve" smooth="yes"/>
      <point x="395" y="1261"/>
      <point x="226" y="1042"/>
      <point x="206" y="634" type="curve"/>
      <point x="218" y="634" type="line"/>
      <point x="309" y="753"/>
      <point x="430" y="813"/>
      <point x="561" y="813" type="curve" smooth="yes"/>
      <point x="684" y="813"/>
      <point x="780" y="778"/>
      <point x="849" y="707" type="curve" smooth="yes"/>
      <point x="918" y="637"/>
      <point x="953" y="540"/>
      <point x="953" y="417" type="curve" smooth="yes"/>
      <point x="953" y="282"/>
      <point x="916" y="176"/>
      <point x="843" y="98" type="curve" smooth="yes"/>
      <point x="770" y="21"/>
      <point x="672" y="-18"/>
      <point x="549" y="-18" type="curve" smooth="yes"/>
      <point x="416" y="-18"/>
      <point x="310" y="33"/>
      <point x="233" y="134" type="curve" smooth="yes"/>
      <point x="156" y="236"/>
      <point x="118" y="378"/>
    </contour>
    <contour>
      <point x="549" y="61" type="curve" smooth="yes"/>
      <point x="746" y="61"/>
      <point x="860" y="190"/>
      <point x="860" y="418" type="curve" smooth="yes"/>
      <point x="860" y="519"/>
      <point x="833" y="598"/>
      <point x="779" y="654" type="curve" smooth="yes"/>
      <point x="725" y="711"/>
      <point x="652" y="739"/>
      <point x="559" y="739" type="curve"/>
      <point x="377" y="744"/>
      <point x="213" y="593"/>
      <point x="216" y="454" type="curve"/>
      <point x="216" y="387"/>
      <point x="231" y="323"/>
      <point x="260" y="261" type="curve"/>
      <point x="320" y="138"/>
      <point x="426" y="61"/>
    </contour>
  </outline>
</glyph>
<glyph name="seven.deva" format="1">
  <advance width="1052"/>
  <unicode hex="0037"/>
  <outline>
    <contour>
      <point x="301" y="0" type="line"/>
      <point x="842" y="1229" type="line"/>
      <point x="98" y="1229" type="line"/>
      <point x="98" y="1316" type="line"/>
      <point x="949" y="1316" type="line"/>
      <point x="949" y="1250" type="line"/>
      <point x="406" y="0" type="line"/>
    </contour>
  </outline>
</glyph>
<glyph name="eight.deva" format="1">
  <advance width="1052"/>
  <unicode hex="0038"/>
  <outline>
    <contour>
      <point x="524" y="1338" type="curve"/>
      <point x="635" y="1338"/>
      <point x="725" y="1309"/>
      <point x="793" y="1252" type="curve" smooth="yes"/>
      <point x="861" y="1195"/>
      <point x="895" y="1118"/>
      <point x="895" y="1021" type="curve" smooth="yes"/>
      <point x="895" y="888"/>
      <point x="817" y="788"/>
      <point x="626" y="700" type="curve"/>
      <point x="741" y="653"/>
      <point x="822" y="601"/>
      <point x="869" y="544" type="curve" smooth="yes"/>
      <point x="916" y="488"/>
      <point x="940" y="420"/>
      <point x="940" y="339" type="curve" smooth="yes"/>
      <point x="940" y="230"/>
      <point x="902" y="144"/>
      <point x="826" y="79" type="curve" smooth="yes"/>
      <point x="750" y="14"/>
      <point x="648" y="-18"/>
      <point x="520" y="-18" type="curve" smooth="yes"/>
      <point x="255" y="-18"/>
      <point x="109" y="106"/>
      <point x="109" y="337" type="curve" smooth="yes"/>
      <point x="109" y="494"/>
      <point x="206" y="613"/>
      <point x="415" y="697" type="curve"/>
      <point x="318" y="742"/>
      <point x="250" y="790"/>
      <point x="210" y="841" type="curve" smooth="yes"/>
      <point x="171" y="892"/>
      <point x="151" y="952"/>
      <point x="151" y="1023" type="curve"/>
      <point x="147" y="1213"/>
      <point x="313" y="1340"/>
    </contour>
    <contour>
      <point x="201" y="324" type="curve" smooth="yes"/>
      <point x="201" y="159"/>
      <point x="319" y="63"/>
      <point x="520" y="63" type="curve" smooth="yes"/>
      <point x="619" y="63"/>
      <point x="698" y="87"/>
      <point x="758" y="135" type="curve" smooth="yes"/>
      <point x="818" y="184"/>
      <point x="848" y="249"/>
      <point x="848" y="332" type="curve" smooth="yes"/>
      <point x="848" y="407"/>
      <point x="824" y="467"/>
      <point x="777" y="513" type="curve" smooth="yes"/>
      <point x="730" y="560"/>
      <point x="639" y="609"/>
      <point x="505" y="660" type="curve"/>
      <point x="394" y="617"/>
      <point x="316" y="570"/>
      <point x="270" y="518" type="curve" smooth="yes"/>
      <point x="224" y="467"/>
      <point x="201" y="402"/>
    </contour>
    <contour>
      <point x="522" y="1257" type="curve" smooth="yes"/>
      <point x="437" y="1257"/>
      <point x="369" y="1236"/>
      <point x="318" y="1194" type="curve" smooth="yes"/>
      <point x="267" y="1153"/>
      <point x="241" y="1096"/>
      <point x="241" y="1023" type="curve" smooth="yes"/>
      <point x="241" y="981"/>
      <point x="250" y="944"/>
      <point x="269" y="912" type="curve" smooth="yes"/>
      <point x="288" y="880"/>
      <point x="316" y="851"/>
      <point x="351" y="825" type="curve" smooth="yes"/>
      <point x="387" y="799"/>
      <point x="447" y="768"/>
      <point x="531" y="733" type="curve"/>
      <point x="727" y="809"/>
      <point x="805" y="895"/>
      <point x="805" y="1023" type="curve" smooth="yes"/>
      <point x="805" y="1095"/>
      <point x="780" y="1152"/>
      <point x="729" y="1194" type="curve" smooth="yes"/>
      <point x="678" y="1236"/>
      <point x="609" y="1257"/>
    </contour>
  </outline>
</glyph>
<glyph name="nine.deva" format="1">
  <advance width="1052"/>
  <unicode hex="0039"/>
  <outline>
    <contour>
      <point x="932" y="758" type="curve"/>
      <point x="934" y="236"/>
      <point x="719" y="-22"/>
      <point x="352" y="-18" type="curve"/>
      <point x="289" y="-18"/>
      <point x="232" y="-10"/>
      <point x="179" y="5" type="curve"/>
      <point x="179" y="83" type="line"/>
      <point x="205" y="74"/>
      <point x="236" y="68"/>
      <point x="272" y="63" type="curve"/>
      <point x="309" y="59"/>
      <point x="336" y="57"/>
      <point x="355" y="57" type="curve" smooth="yes"/>
      <point x="652" y="57"/>
      <point x="825" y="275"/>
      <point x="844" y="686" type="curve"/>
      <point x="833" y="686" type="line"/>
      <point x="746" y="570"/>
      <point x="619" y="507"/>
      <point x="487" y="507" type="curve" smooth="yes"/>
      <point x="243" y="507"/>
      <point x="100" y="646"/>
      <point x="100" y="894" type="curve" smooth="yes"/>
      <point x="100" y="1026"/>
      <point x="137" y="1133"/>
      <point x="212" y="1214" type="curve" smooth="yes"/>
      <point x="287" y="1295"/>
      <point x="384" y="1336"/>
      <point x="503" y="1336" type="curve"/>
      <point x="762" y="1341"/>
      <point x="934" y="1119"/>
    </contour>
    <contour>
      <point x="503" y="1257" type="curve" smooth="yes"/>
      <point x="408" y="1257"/>
      <point x="333" y="1225"/>
      <point x="276" y="1161" type="curve" smooth="yes"/>
      <point x="220" y="1098"/>
      <point x="192" y="1010"/>
      <point x="192" y="899" type="curve" smooth="yes"/>
      <point x="192" y="690"/>
      <point x="299" y="580"/>
      <point x="494" y="580" type="curve"/>
      <point x="674" y="574"/>
      <point x="839" y="727"/>
      <point x="835" y="865" type="curve"/>
      <point x="835" y="935"/>
      <point x="821" y="1001"/>
      <point x="793" y="1062" type="curve" smooth="yes"/>
      <point x="737" y="1185"/>
      <point x="634" y="1257"/>
    </contour>
  </outline>
</glyph>
<glyph name="colon.deva" format="1">
  <advance width="518"/>
  <unicode hex="003A"/>
  <outline>
    <contour>
      <point x="186" y="70" type="curve" smooth="yes"/>
      <point x="186" y="129"/>
      <point x="210" y="158"/>
      <point x="258" y="158" type="curve" smooth="yes"/>
      <point x="307" y="158"/>
      <point x="332" y="129"/>
      <point x="332" y="70" type="curve" smooth="yes"/>
      <point x="332" y="11"/>
      <point x="307" y="-18"/>
      <point x="258" y="-18" type="curve" smooth="yes"/>
      <point x="210" y="-18"/>
      <point x="186" y="11"/>
    </contour>
    <contour>
      <point x="186" y="874" type="curve" smooth="yes"/>
      <point x="186" y="933"/>
      <point x="210" y="962"/>
      <point x="258" y="962" type="curve" smooth="yes"/>
      <point x="307" y="962"/>
      <point x="332" y="933"/>
      <point x="332" y="874" type="curve" smooth="yes"/>
      <point x="332" y="810"/>
      <point x="299" y="785"/>
      <point x="258" y="785" type="curve" smooth="yes"/>
      <point x="217" y="785"/>
      <point x="186" y="810"/>
    </contour>
  </outline>
</glyph>
<glyph name="semicolon.deva" format="1">
  <advance width="515"/>
  <unicode hex="003B"/>
  <outline>
    <contour>
      <point x="310" y="214" type="line"/>
      <point x="320" y="195" type="line"/>
      <point x="275" y="36"/>
      <point x="223" y="-108"/>
      <point x="164" y="-238" type="curve"/>
      <point x="105" y="-238" type="line"/>
      <point x="122" y="-179"/>
      <point x="141" y="-105"/>
      <point x="161" y="-16" type="curve" smooth="yes"/>
      <point x="181" y="73"/>
      <point x="195" y="149"/>
      <point x="204" y="214" type="curve"/>
    </contour>
    <contour>
      <point x="183" y="874" type="curve" smooth="yes"/>
      <point x="183" y="933"/>
      <point x="207" y="962"/>
      <point x="255" y="962" type="curve" smooth="yes"/>
      <point x="304" y="962"/>
      <point x="329" y="933"/>
      <point x="329" y="874" type="curve" smooth="yes"/>
      <point x="329" y="810"/>
      <point x="296" y="785"/>
      <point x="255" y="785" type="curve" smooth="yes"/>
      <point x="214" y="785"/>
      <point x="183" y="810"/>
    </contour>
  </outline>
</glyph>
<glyph name="less.deva" format="1">
  <advance width="1052"/>
  <unicode hex="003C"/>
  <outline>
    <contour>
      <point x="953" y="239" type="line"/>
      <point x="100" y="614" type="line"/>
      <point x="100" y="669" type="line"/>
      <point x="953" y="1095" type="line"/>
      <point x="953" y="1010" type="line"/>
      <point x="212" y="645" type="line"/>
      <point x="953" y="326" type="line"/>
    </contour>
  </outline>
</glyph>
<glyph name="equal.deva" format="1">
  <advance width="1052"/>
  <unicode hex="003D"/>
  <outline>
    <contour>
      <point x="100" y="796" type="line"/>
      <point x="100" y="870" type="line"/>
      <point x="953" y="870" type="line"/>
      <point x="953" y="796" type="line"/>
    </contour>
    <contour>
      <point x="100" y="429" type="line"/>
      <point x="100" y="503" type="line"/>
      <point x="953" y="503" type="line"/>
      <point x="953" y="429" type="line"/>
    </contour>
  </outline>
</glyph>
<glyph name="greater.deva" format="1">
  <advance width="1052"/>
  <unicode hex="003E"/>
  <outline>
    <contour>
      <point x="100" y="326" type="line"/>
      <point x="841" y="645" type="line"/>
      <point x="100" y="1010" type="line"/>
      <point x="100" y="1095" type="line"/>
      <point x="953" y="669" type="line"/>
      <point x="953" y="614" type="line"/>
      <point x="100" y="239" type="line"/>
    </contour>
  </outline>
</glyph>
<glyph name="question.deva" format="1">
  <advance width="1176"/>
  <unicode hex="003F"/>
  <outline>
    <contour>
      <point x="464" y="339" type="line"/>
      <point x="464" y="373" type="line" smooth="yes"/>
      <point x="464" y="446"/>
      <point x="475" y="506"/>
      <point x="497" y="553" type="curve" smooth="yes"/>
      <point x="520" y="600"/>
      <point x="561" y="651"/>
      <point x="622" y="704" type="curve" smooth="yes"/>
      <point x="704" y="775" type="line"/>
      <point x="791" y="848"/>
      <point x="825" y="915"/>
      <point x="825" y="1008" type="curve" smooth="yes"/>
      <point x="825" y="1084"/>
      <point x="800" y="1144"/>
      <point x="749" y="1189" type="curve" smooth="yes"/>
      <point x="699" y="1234"/>
      <point x="633" y="1257"/>
      <point x="552" y="1257" type="curve" smooth="yes"/>
      <point x="457" y="1257"/>
      <point x="381" y="1238"/>
      <point x="285" y="1191" type="curve"/>
      <point x="251" y="1263" type="line"/>
      <point x="317" y="1292"/>
      <point x="372" y="1311"/>
      <point x="417" y="1320" type="curve" smooth="yes"/>
      <point x="462" y="1330"/>
      <point x="508" y="1335"/>
      <point x="555" y="1335" type="curve" smooth="yes"/>
      <point x="665" y="1335"/>
      <point x="751" y="1305"/>
      <point x="814" y="1246" type="curve" smooth="yes"/>
      <point x="877" y="1187"/>
      <point x="909" y="1106"/>
      <point x="909" y="1003" type="curve" smooth="yes"/>
      <point x="909" y="839"/>
      <point x="819" y="769"/>
      <point x="685" y="656" type="curve" smooth="yes"/>
      <point x="646" y="623"/>
      <point x="617" y="594"/>
      <point x="596" y="567" type="curve" smooth="yes"/>
      <point x="575" y="540"/>
      <point x="560" y="512"/>
      <point x="551" y="483" type="curve" smooth="yes"/>
      <point x="542" y="454"/>
      <point x="537" y="410"/>
      <point x="537" y="352" type="curve" smooth="yes"/>
      <point x="537" y="339" type="line"/>
    </contour>
    <contour>
      <point x="434" y="70" type="curve" smooth="yes"/>
      <point x="434" y="129"/>
      <point x="458" y="158"/>
      <point x="506" y="158" type="curve" smooth="yes"/>
      <point x="555" y="158"/>
      <point x="580" y="129"/>
      <point x="580" y="70" type="curve" smooth="yes"/>
      <point x="580" y="11"/>
      <point x="555" y="-18"/>
      <point x="506" y="-18" type="curve" smooth="yes"/>
      <point x="458" y="-18"/>
      <point x="434" y="11"/>
    </contour>
  </outline>
</glyph>
<glyph name="at" format="1">
  <advance width="1633"/>
  <unicode hex="0040"/>
  <outline>
    <contour>
      <point x="1532" y="652" type="curve"/>
      <point x="1532" y="515"/>
      <point x="1505" y="406"/>
      <point x="1450" y="323" type="curve" smooth="yes"/>
      <point x="1396" y="240"/>
      <point x="1322" y="199"/>
      <point x="1229" y="199" type="curve" smooth="yes"/>
      <point x="1122" y="199"/>
      <point x="1052" y="268"/>
      <point x="1041" y="380" type="curve"/>
      <point x="1038" y="380" type="line"/>
      <point x="986" y="260"/>
      <point x="885" y="199"/>
      <point x="756" y="199" type="curve" smooth="yes"/>
      <point x="579" y="199"/>
      <point x="477" y="321"/>
      <point x="477" y="529" type="curve" smooth="yes"/>
      <point x="477" y="650"/>
      <point x="513" y="749"/>
      <point x="585" y="826" type="curve" smooth="yes"/>
      <point x="658" y="903"/>
      <point x="752" y="942"/>
      <point x="868" y="942" type="curve" smooth="yes"/>
      <point x="951" y="942"/>
      <point x="1037" y="930"/>
      <point x="1126" y="905" type="curve"/>
      <point x="1106" y="488" type="line"/>
      <point x="1106" y="461" type="line" smooth="yes"/>
      <point x="1106" y="336"/>
      <point x="1145" y="273"/>
      <point x="1242" y="273" type="curve" smooth="yes"/>
      <point x="1304" y="273"/>
      <point x="1355" y="308"/>
      <point x="1394" y="377" type="curve" smooth="yes"/>
      <point x="1433" y="447"/>
      <point x="1453" y="538"/>
      <point x="1453" y="651" type="curve"/>
      <point x="1458" y="999"/>
      <point x="1217" y="1234"/>
      <point x="877" y="1229" type="curve"/>
      <point x="464" y="1235"/>
      <point x="179" y="935"/>
      <point x="184" y="510" type="curve"/>
      <point x="184" y="317"/>
      <point x="234" y="167"/>
      <point x="334" y="62" type="curve" smooth="yes"/>
      <point x="435" y="-43"/>
      <point x="577" y="-95"/>
      <point x="761" y="-95" type="curve" smooth="yes"/>
      <point x="817" y="-95"/>
      <point x="874" y="-90"/>
      <point x="931" y="-79" type="curve" smooth="yes"/>
      <point x="988" y="-68"/>
      <point x="1058" y="-47"/>
      <point x="1139" y="-16" type="curve"/>
      <point x="1139" y="-105" type="line"/>
      <point x="1018" y="-153"/>
      <point x="894" y="-177"/>
      <point x="767" y="-177" type="curve" smooth="yes"/>
      <point x="558" y="-177"/>
      <point x="394" y="-117"/>
      <point x="277" y="3" type="curve" smooth="yes"/>
      <point x="160" y="124"/>
      <point x="102" y="291"/>
      <point x="102" y="505" type="curve" smooth="yes"/>
      <point x="102" y="658"/>
      <point x="134" y="796"/>
      <point x="199" y="919" type="curve" smooth="yes"/>
      <point x="264" y="1042"/>
      <point x="356" y="1137"/>
      <point x="475" y="1205" type="curve" smooth="yes"/>
      <point x="594" y="1273"/>
      <point x="729" y="1307"/>
      <point x="879" y="1307" type="curve"/>
      <point x="1267" y="1312"/>
      <point x="1538" y="1046"/>
    </contour>
    <contour>
      <point x="570" y="531" type="curve" smooth="yes"/>
      <point x="570" y="359"/>
      <point x="633" y="273"/>
      <point x="776" y="273" type="curve" smooth="yes"/>
      <point x="929" y="273"/>
      <point x="1010" y="377"/>
      <point x="1021" y="584" type="curve" smooth="yes"/>
      <point x="1036" y="846" type="line"/>
      <point x="989" y="862"/>
      <point x="931" y="870"/>
      <point x="862" y="870" type="curve" smooth="yes"/>
      <point x="773" y="870"/>
      <point x="702" y="839"/>
      <point x="649" y="778" type="curve" smooth="yes"/>
      <point x="596" y="717"/>
      <point x="570" y="634"/>
    </contour>
  </outline>
</glyph>
<glyph name="A" format="1">
  <advance width="1106"/>
  <unicode hex="0041"/>
  <outline>
    <contour>
      <point x="820" y="464" type="line"/>
      <point x="285" y="464" type="line"/>
      <point x="102" y="0" type="line"/>
      <point x="0" y="0" type="line"/>
      <point x="529" y="1321" type="line"/>
      <point x="588" y="1321" type="line"/>
      <point x="1106" y="0" type="line"/>
      <point x="1003" y="0" type="line"/>
    </contour>
    <contour>
      <point x="319" y="547" type="line"/>
      <point x="789" y="547" type="line"/>
      <point x="610" y="1021" type="line"/>
      <point x="595" y="1058"/>
      <point x="577" y="1110"/>
      <point x="556" y="1176" type="curve"/>
      <point x="540" y="1119"/>
      <point x="522" y="1067"/>
      <point x="503" y="1020" type="curve" smooth="yes"/>
    </contour>
  </outline>
</glyph>
<glyph name="B" format="1">
  <advance width="1156"/>
  <unicode hex="0042"/>
  <outline>
    <contour>
      <point x="186" y="1316" type="line"/>
      <point x="547" y="1316" type="line" smooth="yes"/>
      <point x="872" y="1316"/>
      <point x="1020" y="1206"/>
      <point x="1020" y="983" type="curve" smooth="yes"/>
      <point x="1020" y="830"/>
      <point x="925" y="723"/>
      <point x="746" y="695" type="curve"/>
      <point x="746" y="689" type="line"/>
      <point x="957" y="658"/>
      <point x="1052" y="559"/>
      <point x="1052" y="378" type="curve" smooth="yes"/>
      <point x="1052" y="135"/>
      <point x="885" y="0"/>
      <point x="589" y="0" type="curve" smooth="yes"/>
      <point x="186" y="0" type="line"/>
    </contour>
    <contour>
      <point x="278" y="730" type="line"/>
      <point x="568" y="730" type="line" smooth="yes"/>
      <point x="815" y="730"/>
      <point x="922" y="809"/>
      <point x="922" y="985" type="curve" smooth="yes"/>
      <point x="922" y="1160"/>
      <point x="795" y="1235"/>
      <point x="544" y="1235" type="curve" smooth="yes"/>
      <point x="278" y="1235" type="line"/>
    </contour>
    <contour>
      <point x="278" y="649" type="line"/>
      <point x="278" y="81" type="line"/>
      <point x="588" y="81" type="line" smooth="yes"/>
      <point x="831" y="81"/>
      <point x="953" y="180"/>
      <point x="953" y="378" type="curve" smooth="yes"/>
      <point x="953" y="559"/>
      <point x="825" y="649"/>
      <point x="568" y="649" type="curve" smooth="yes"/>
    </contour>
  </outline>
</glyph>
<glyph name="C" format="1">
  <advance width="1145"/>
  <unicode hex="0043"/>
  <outline>
    <contour>
      <point x="748" y="1252" type="curve" smooth="yes"/>
      <point x="583" y="1252"/>
      <point x="453" y="1199"/>
      <point x="358" y="1093" type="curve" smooth="yes"/>
      <point x="263" y="988"/>
      <point x="216" y="843"/>
      <point x="216" y="660" type="curve" smooth="yes"/>
      <point x="216" y="472"/>
      <point x="261" y="326"/>
      <point x="350" y="222" type="curve" smooth="yes"/>
      <point x="439" y="119"/>
      <point x="567" y="67"/>
      <point x="733" y="67" type="curve" smooth="yes"/>
      <point x="844" y="67"/>
      <point x="945" y="81"/>
      <point x="1038" y="109" type="curve"/>
      <point x="1038" y="28" type="line"/>
      <point x="951" y="-3"/>
      <point x="842" y="-18"/>
      <point x="712" y="-18" type="curve" smooth="yes"/>
      <point x="527" y="-18"/>
      <point x="382" y="42"/>
      <point x="275" y="161" type="curve" smooth="yes"/>
      <point x="169" y="280"/>
      <point x="116" y="447"/>
      <point x="116" y="661" type="curve"/>
      <point x="111" y="1062"/>
      <point x="364" y="1340"/>
      <point x="742" y="1335" type="curve"/>
      <point x="871" y="1335"/>
      <point x="986" y="1311"/>
      <point x="1087" y="1263" type="curve"/>
      <point x="1050" y="1180" type="line"/>
      <point x="954" y="1228"/>
      <point x="853" y="1252"/>
    </contour>
  </outline>
</glyph>
<glyph name="D" format="1">
  <advance width="1301"/>
  <unicode hex="0044"/>
  <outline>
    <contour>
      <point x="1185" y="670" type="curve" smooth="yes"/>
      <point x="1185" y="229"/>
      <point x="950" y="0"/>
      <point x="501" y="0" type="curve" smooth="yes"/>
      <point x="186" y="0" type="line"/>
      <point x="186" y="1316" type="line"/>
      <point x="542" y="1316" type="line" smooth="yes"/>
      <point x="962" y="1316"/>
      <point x="1185" y="1091"/>
    </contour>
    <contour>
      <point x="1085" y="667" type="curve" smooth="yes"/>
      <point x="1085" y="1043"/>
      <point x="891" y="1235"/>
      <point x="520" y="1235" type="curve" smooth="yes"/>
      <point x="278" y="1235" type="line"/>
      <point x="278" y="81" type="line"/>
      <point x="496" y="81" type="line" smooth="yes"/>
      <point x="889" y="81"/>
      <point x="1085" y="276"/>
    </contour>
  </outline>
</glyph>
<glyph name="E" format="1">
  <advance width="1017"/>
  <unicode hex="0045"/>
  <outline>
    <contour>
      <point x="905" y="0" type="line"/>
      <point x="186" y="0" type="line"/>
      <point x="186" y="1316" type="line"/>
      <point x="905" y="1316" type="line"/>
      <point x="905" y="1231" type="line"/>
      <point x="278" y="1231" type="line"/>
      <point x="278" y="733" type="line"/>
      <point x="870" y="733" type="line"/>
      <point x="870" y="649" type="line"/>
      <point x="278" y="649" type="line"/>
      <point x="278" y="85" type="line"/>
      <point x="905" y="85" type="line"/>
    </contour>
  </outline>
</glyph>
<glyph name="G" format="1">
  <advance width="1333"/>
  <unicode hex="0047"/>
  <outline>
    <contour>
      <point x="704" y="663" type="line"/>
      <point x="1189" y="663" type="line"/>
      <point x="1189" y="63" type="line"/>
      <point x="1062" y="9"/>
      <point x="919" y="-18"/>
      <point x="760" y="-18" type="curve" smooth="yes"/>
      <point x="552" y="-18"/>
      <point x="393" y="41"/>
      <point x="282" y="158" type="curve" smooth="yes"/>
      <point x="171" y="275"/>
      <point x="116" y="441"/>
      <point x="116" y="656" type="curve" smooth="yes"/>
      <point x="116" y="790"/>
      <point x="143" y="909"/>
      <point x="198" y="1012" type="curve" smooth="yes"/>
      <point x="253" y="1115"/>
      <point x="332" y="1195"/>
      <point x="434" y="1251" type="curve" smooth="yes"/>
      <point x="537" y="1308"/>
      <point x="654" y="1336"/>
      <point x="787" y="1336" type="curve" smooth="yes"/>
      <point x="930" y="1336"/>
      <point x="1059" y="1310"/>
      <point x="1173" y="1257" type="curve"/>
      <point x="1136" y="1174" type="line"/>
      <point x="1022" y="1227"/>
      <point x="904" y="1254"/>
      <point x="781" y="1254" type="curve" smooth="yes"/>
      <point x="608" y="1254"/>
      <point x="470" y="1200"/>
      <point x="368" y="1093" type="curve" smooth="yes"/>
      <point x="267" y="986"/>
      <point x="216" y="841"/>
      <point x="216" y="660" type="curve" smooth="yes"/>
      <point x="216" y="264"/>
      <point x="412" y="63"/>
      <point x="787" y="63" type="curve" smooth="yes"/>
      <point x="908" y="63"/>
      <point x="1010" y="80"/>
      <point x="1095" y="114" type="curve"/>
      <point x="1095" y="577" type="line"/>
      <point x="704" y="577" type="line"/>
    </contour>
  </outline>
</glyph>
<glyph name="H" format="1">
  <advance width="1326"/>
  <unicode hex="0048"/>
  <outline>
    <contour>
      <point x="1139" y="0" type="line"/>
      <point x="1047" y="0" type="line"/>
      <point x="1047" y="647" type="line"/>
      <point x="278" y="647" type="line"/>
      <point x="278" y="0" type="line"/>
      <point x="186" y="0" type="line"/>
      <point x="186" y="1316" type="line"/>
      <point x="278" y="1316" type="line"/>
      <point x="278" y="732" type="line"/>
      <point x="1047" y="732" type="line"/>
      <point x="1047" y="1316" type="line"/>
      <point x="1139" y="1316" type="line"/>
    </contour>
  </outline>
</glyph>
<glyph name="J" format="1">
  <advance width="455"/>
  <unicode hex="004A"/>
  <outline>
    <contour>
      <point x="-30" y="-332" type="curve" smooth="yes"/>
      <point x="-85" y="-332"/>
      <point x="-131" y="-324"/>
      <point x="-166" y="-308" type="curve"/>
      <point x="-166" y="-229" type="line"/>
      <point x="-119" y="-241"/>
      <point x="-74" y="-247"/>
      <point x="-32" y="-247" type="curve" smooth="yes"/>
      <point x="113" y="-247"/>
      <point x="186" y="-168"/>
      <point x="186" y="-9" type="curve" smooth="yes"/>
      <point x="186" y="1316" type="line"/>
      <point x="278" y="1316" type="line"/>
      <point x="278" y="0" type="line" smooth="yes"/>
      <point x="278" y="-221"/>
      <point x="175" y="-332"/>
    </contour>
  </outline>
</glyph>
<glyph name="K" format="1">
  <advance width="1071"/>
  <unicode hex="004B"/>
  <outline>
    <contour>
      <point x="1071" y="0" type="line"/>
      <point x="958" y="0" type="line"/>
      <point x="454" y="695" type="line"/>
      <point x="278" y="540" type="line"/>
      <point x="278" y="0" type="line"/>
      <point x="186" y="0" type="line"/>
      <point x="186" y="1316" type="line"/>
      <point x="278" y="1316" type="line"/>
      <point x="278" y="632" type="line"/>
      <point x="424" y="778" type="line"/>
      <point x="940" y="1316" type="line"/>
      <point x="1057" y="1316" type="line"/>
      <point x="517" y="760" type="line"/>
    </contour>
  </outline>
</glyph>
<glyph name="M" format="1">
  <advance width="1590"/>
  <unicode hex="004D"/>
  <outline>
    <contour>
      <point x="765" y="0" type="line"/>
      <point x="274" y="1215" type="line"/>
      <point x="267" y="1215" type="line"/>
      <point x="272" y="1140"/>
      <point x="274" y="1064"/>
      <point x="274" y="986" type="curve" smooth="yes"/>
      <point x="274" y="0" type="line"/>
      <point x="186" y="0" type="line"/>
      <point x="186" y="1316" type="line"/>
      <point x="328" y="1316" type="line"/>
      <point x="795" y="158" type="line"/>
      <point x="800" y="158" type="line"/>
      <point x="1266" y="1316" type="line"/>
      <point x="1405" y="1316" type="line"/>
      <point x="1405" y="0" type="line"/>
      <point x="1312" y="0" type="line"/>
      <point x="1312" y="997" type="line" smooth="yes"/>
      <point x="1312" y="1067"/>
      <point x="1316" y="1139"/>
      <point x="1323" y="1213" type="curve"/>
      <point x="1316" y="1213" type="line"/>
      <point x="823" y="0" type="line"/>
    </contour>
  </outline>
</glyph>
<glyph name="N" format="1">
  <advance width="1329"/>
  <unicode hex="004E"/>
  <outline>
    <contour>
      <point x="1143" y="0" type="line"/>
      <point x="1050" y="0" type="line"/>
      <point x="271" y="1168" type="line"/>
      <point x="264" y="1168" type="line"/>
      <point x="271" y="1029"/>
      <point x="274" y="924"/>
      <point x="274" y="853" type="curve" smooth="yes"/>
      <point x="274" y="0" type="line"/>
      <point x="186" y="0" type="line"/>
      <point x="186" y="1316" type="line"/>
      <point x="278" y="1316" type="line"/>
      <point x="1057" y="149" type="line"/>
      <point x="1062" y="149" type="line"/>
      <point x="1057" y="257"/>
      <point x="1054" y="360"/>
      <point x="1054" y="457" type="curve" smooth="yes"/>
      <point x="1054" y="1316" type="line"/>
      <point x="1143" y="1316" type="line"/>
    </contour>
  </outline>
</glyph>
<glyph name="O" format="1">
  <advance width="1408"/>
  <unicode hex="004F"/>
  <outline>
    <contour>
      <point x="1292" y="660" type="curve" smooth="yes"/>
      <point x="1292" y="451"/>
      <point x="1240" y="285"/>
      <point x="1135" y="164" type="curve" smooth="yes"/>
      <point x="1031" y="43"/>
      <point x="887" y="-18"/>
      <point x="704" y="-18" type="curve" smooth="yes"/>
      <point x="521" y="-18"/>
      <point x="377" y="43"/>
      <point x="272" y="164" type="curve" smooth="yes"/>
      <point x="168" y="285"/>
      <point x="116" y="451"/>
      <point x="116" y="661" type="curve" smooth="yes"/>
      <point x="116" y="871"/>
      <point x="169" y="1036"/>
      <point x="274" y="1156" type="curve" smooth="yes"/>
      <point x="379" y="1276"/>
      <point x="523" y="1336"/>
      <point x="706" y="1336" type="curve" smooth="yes"/>
      <point x="889" y="1336"/>
      <point x="1033" y="1276"/>
      <point x="1136" y="1155" type="curve" smooth="yes"/>
      <point x="1240" y="1034"/>
      <point x="1292" y="869"/>
    </contour>
    <contour>
      <point x="216" y="660" type="curve" smooth="yes"/>
      <point x="216" y="471"/>
      <point x="258" y="325"/>
      <point x="342" y="222" type="curve" smooth="yes"/>
      <point x="426" y="119"/>
      <point x="547" y="68"/>
      <point x="704" y="68" type="curve" smooth="yes"/>
      <point x="1020" y="68"/>
      <point x="1192" y="279"/>
      <point x="1192" y="660" type="curve" smooth="yes"/>
      <point x="1192" y="849"/>
      <point x="1150" y="994"/>
      <point x="1066" y="1095" type="curve" smooth="yes"/>
      <point x="983" y="1196"/>
      <point x="863" y="1247"/>
      <point x="706" y="1247" type="curve" smooth="yes"/>
      <point x="549" y="1247"/>
      <point x="428" y="1196"/>
      <point x="343" y="1094" type="curve" smooth="yes"/>
      <point x="258" y="992"/>
      <point x="216" y="847"/>
    </contour>
  </outline>
</glyph>
<glyph name="P" format="1">
  <advance width="1078"/>
  <unicode hex="0050"/>
  <outline>
    <contour>
      <point x="978" y="938" type="curve" smooth="yes"/>
      <point x="978" y="683"/>
      <point x="798" y="544"/>
      <point x="481" y="544" type="curve" smooth="yes"/>
      <point x="278" y="544" type="line"/>
      <point x="278" y="0" type="line"/>
      <point x="186" y="0" type="line"/>
      <point x="186" y="1316" type="line"/>
      <point x="508" y="1316" type="line" smooth="yes"/>
      <point x="821" y="1316"/>
      <point x="978" y="1190"/>
    </contour>
    <contour>
      <point x="278" y="623" type="line"/>
      <point x="459" y="623" type="line" smooth="yes"/>
      <point x="607" y="623"/>
      <point x="714" y="647"/>
      <point x="780" y="696" type="curve" smooth="yes"/>
      <point x="846" y="745"/>
      <point x="879" y="824"/>
      <point x="879" y="934" type="curve" smooth="yes"/>
      <point x="879" y="1137"/>
      <point x="757" y="1233"/>
      <point x="496" y="1233" type="curve" smooth="yes"/>
      <point x="278" y="1233" type="line"/>
    </contour>
  </outline>
</glyph>
<glyph name="R" format="1">
  <advance width="1095"/>
  <unicode hex="0052"/>
  <outline>
    <contour>
      <point x="278" y="573" type="line"/>
      <point x="278" y="0" type="line"/>
      <point x="186" y="0" type="line"/>
      <point x="186" y="1316" type="line"/>
      <point x="499" y="1316" type="line" smooth="yes"/>
      <point x="826" y="1316"/>
      <point x="978" y="1196"/>
      <point x="978" y="953" type="curve" smooth="yes"/>
      <point x="978" y="777"/>
      <point x="886" y="652"/>
      <point x="697" y="599" type="curve"/>
      <point x="1054" y="0" type="line"/>
      <point x="944" y="0" type="line"/>
      <point x="605" y="573" type="line"/>
    </contour>
    <contour>
      <point x="278" y="652" type="line"/>
      <point x="529" y="652" type="line" smooth="yes"/>
      <point x="752" y="652"/>
      <point x="879" y="753"/>
      <point x="879" y="946" type="curve" smooth="yes"/>
      <point x="879" y="1046"/>
      <point x="849" y="1119"/>
      <point x="789" y="1164" type="curve" smooth="yes"/>
      <point x="729" y="1210"/>
      <point x="631" y="1233"/>
      <point x="496" y="1233" type="curve" smooth="yes"/>
      <point x="278" y="1233" type="line"/>
    </contour>
  </outline>
</glyph>
<glyph name="S" format="1">
  <advance width="1004"/>
  <unicode hex="0053"/>
  <outline>
    <contour>
      <point x="913" y="339" type="curve" smooth="yes"/>
      <point x="913" y="230"/>
      <point x="872" y="143"/>
      <point x="791" y="78" type="curve" smooth="yes"/>
      <point x="710" y="14"/>
      <point x="603" y="-18"/>
      <point x="470" y="-18" type="curve" smooth="yes"/>
      <point x="309" y="-18"/>
      <point x="186" y="0"/>
      <point x="100" y="35" type="curve"/>
      <point x="100" y="127" type="line"/>
      <point x="195" y="87"/>
      <point x="316" y="67"/>
      <point x="463" y="67" type="curve" smooth="yes"/>
      <point x="571" y="67"/>
      <point x="656" y="92"/>
      <point x="719" y="141" type="curve" smooth="yes"/>
      <point x="782" y="190"/>
      <point x="814" y="255"/>
      <point x="814" y="336" type="curve" smooth="yes"/>
      <point x="814" y="385"/>
      <point x="803" y="426"/>
      <point x="782" y="459" type="curve" smooth="yes"/>
      <point x="761" y="492"/>
      <point x="727" y="521"/>
      <point x="680" y="548" type="curve" smooth="yes"/>
      <point x="633" y="575"/>
      <point x="563" y="605"/>
      <point x="472" y="636" type="curve" smooth="yes"/>
      <point x="337" y="683"/>
      <point x="244" y="733"/>
      <point x="193" y="786" type="curve" smooth="yes"/>
      <point x="142" y="840"/>
      <point x="116" y="912"/>
      <point x="116" y="1001" type="curve" smooth="yes"/>
      <point x="116" y="1099"/>
      <point x="154" y="1179"/>
      <point x="231" y="1241" type="curve" smooth="yes"/>
      <point x="308" y="1304"/>
      <point x="408" y="1335"/>
      <point x="529" y="1335" type="curve" smooth="yes"/>
      <point x="653" y="1335"/>
      <point x="769" y="1311"/>
      <point x="877" y="1264" type="curve"/>
      <point x="844" y="1185" type="line"/>
      <point x="735" y="1231"/>
      <point x="630" y="1254"/>
      <point x="531" y="1254" type="curve" smooth="yes"/>
      <point x="434" y="1254"/>
      <point x="356" y="1231"/>
      <point x="298" y="1186" type="curve" smooth="yes"/>
      <point x="241" y="1141"/>
      <point x="212" y="1080"/>
      <point x="212" y="1003" type="curve" smooth="yes"/>
      <point x="212" y="954"/>
      <point x="221" y="914"/>
      <point x="238" y="883" type="curve" smooth="yes"/>
      <point x="256" y="852"/>
      <point x="285" y="823"/>
      <point x="325" y="798" type="curve" smooth="yes"/>
      <point x="366" y="773"/>
      <point x="435" y="744"/>
      <point x="533" y="709" type="curve"/>
      <point x="636" y="674"/>
      <point x="713" y="639"/>
      <point x="764" y="606" type="curve" smooth="yes"/>
      <point x="867" y="539"/>
      <point x="913" y="459"/>
    </contour>
  </outline>
</glyph>
<glyph name="T" format="1">
  <advance width="966"/>
  <unicode hex="0054"/>
  <outline>
    <contour>
      <point x="529" y="0" type="line"/>
      <point x="436" y="0" type="line"/>
      <point x="436" y="1229" type="line"/>
      <point x="9" y="1229" type="line"/>
      <point x="9" y="1316" type="line"/>
      <point x="957" y="1316" type="line"/>
      <point x="957" y="1229" type="line"/>
      <point x="529" y="1229" type="line"/>
    </contour>
  </outline>
</glyph>
<glyph name="U" format="1">
  <advance width="1326"/>
  <unicode hex="0055"/>
  <outline>
    <contour>
      <point x="1154" y="1316" type="line"/>
      <point x="1154" y="464" type="line" smooth="yes"/>
      <point x="1154" y="313"/>
      <point x="1110" y="195"/>
      <point x="1022" y="110" type="curve" smooth="yes"/>
      <point x="935" y="25"/>
      <point x="813" y="-18"/>
      <point x="656" y="-18" type="curve" smooth="yes"/>
      <point x="503" y="-18"/>
      <point x="384" y="25"/>
      <point x="299" y="110" type="curve" smooth="yes"/>
      <point x="214" y="195"/>
      <point x="171" y="315"/>
      <point x="171" y="468" type="curve" smooth="yes"/>
      <point x="171" y="1316" type="line"/>
      <point x="264" y="1316" type="line"/>
      <point x="264" y="464" type="line" smooth="yes"/>
      <point x="264" y="211"/>
      <point x="410" y="63"/>
      <point x="667" y="63" type="curve" smooth="yes"/>
      <point x="792" y="63"/>
      <point x="889" y="98"/>
      <point x="958" y="167" type="curve" smooth="yes"/>
      <point x="1027" y="236"/>
      <point x="1062" y="332"/>
      <point x="1062" y="455" type="curve" smooth="yes"/>
      <point x="1062" y="1316" type="line"/>
    </contour>
  </outline>
</glyph>
<glyph name="V" format="1">
  <advance width="1064"/>
  <unicode hex="0056"/>
  <outline>
    <contour>
      <point x="964" y="1316" type="line"/>
      <point x="1064" y="1316" type="line"/>
      <point x="571" y="0" type="line"/>
      <point x="490" y="0" type="line"/>
      <point x="0" y="1316" type="line"/>
      <point x="98" y="1316" type="line"/>
      <point x="429" y="420" type="line"/>
      <point x="480" y="285"/>
      <point x="514" y="184"/>
      <point x="531" y="116" type="curve"/>
      <point x="543" y="161"/>
      <point x="567" y="231"/>
      <point x="602" y="326" type="curve" smooth="yes"/>
    </contour>
  </outline>
</glyph>
<glyph name="W" format="1">
  <advance width="1644"/>
  <unicode hex="0057"/>
  <outline>
    <contour>
      <point x="1235" y="0" type="line"/>
      <point x="1159" y="0" type="line"/>
      <point x="870" y="1015" type="line" smooth="yes"/>
      <point x="846" y="1098"/>
      <point x="828" y="1167"/>
      <point x="816" y="1220" type="curve"/>
      <point x="807" y="1168"/>
      <point x="793" y="1108"/>
      <point x="775" y="1040" type="curve" smooth="yes"/>
      <point x="758" y="973"/>
      <point x="661" y="626"/>
      <point x="485" y="0" type="curve"/>
      <point x="408" y="0" type="line"/>
      <point x="46" y="1316" type="line"/>
      <point x="142" y="1316" type="line"/>
      <point x="373" y="468" type="line"/>
      <point x="408" y="330"/>
      <point x="434" y="242"/>
      <point x="450" y="146" type="curve"/>
      <point x="465" y="227"/>
      <point x="495" y="351"/>
      <point x="542" y="517" type="curve" smooth="yes"/>
      <point x="767" y="1316" type="line"/>
      <point x="868" y="1316" type="line"/>
      <point x="1132" y="400" type="line" smooth="yes"/>
      <point x="1163" y="294"/>
      <point x="1185" y="209"/>
      <point x="1198" y="144" type="curve"/>
      <point x="1206" y="187"/>
      <point x="1216" y="233"/>
      <point x="1228" y="282" type="curve" smooth="yes"/>
      <point x="1240" y="331"/>
      <point x="1333" y="675"/>
      <point x="1506" y="1316" type="curve"/>
      <point x="1598" y="1316" type="line"/>
    </contour>
  </outline>
</glyph>
<glyph name="X" format="1">
  <advance width="992"/>
  <unicode hex="0058"/>
  <outline>
    <contour>
      <point x="992" y="0" type="line"/>
      <point x="886" y="0" type="line"/>
      <point x="498" y="614" type="line"/>
      <point x="102" y="0" type="line"/>
      <point x="0" y="0" type="line"/>
      <point x="443" y="686" type="line"/>
      <point x="40" y="1316" type="line"/>
      <point x="144" y="1316" type="line"/>
      <point x="499" y="752" type="line"/>
      <point x="860" y="1316" type="line"/>
      <point x="958" y="1316" type="line"/>
      <point x="551" y="688" type="line"/>
    </contour>
  </outline>
</glyph>
<glyph name="Y" format="1">
  <advance width="973"/>
  <unicode hex="0059"/>
  <outline>
    <contour>
      <point x="489" y="596" type="line"/>
      <point x="874" y="1316" type="line"/>
      <point x="973" y="1316" type="line"/>
      <point x="535" y="508" type="line"/>
      <point x="535" y="0" type="line"/>
      <point x="440" y="0" type="line"/>
      <point x="440" y="501" type="line"/>
      <point x="0" y="1316" type="line"/>
      <point x="105" y="1316" type="line"/>
    </contour>
  </outline>
</glyph>
<glyph name="Z" format="1">
  <advance width="1062"/>
  <unicode hex="005A"/>
  <outline>
    <contour>
      <point x="988" y="0" type="line"/>
      <point x="74" y="0" type="line"/>
      <point x="74" y="68" type="line"/>
      <point x="844" y="1229" type="line"/>
      <point x="109" y="1229" type="line"/>
      <point x="109" y="1316" type="line"/>
      <point x="967" y="1316" type="line"/>
      <point x="967" y="1247" type="line"/>
      <point x="195" y="86" type="line"/>
      <point x="988" y="86" type="line"/>
    </contour>
  </outline>
</glyph>
<glyph name="bracketleft.deva" format="1">
  <advance width="788"/>
  <unicode hex="005B"/>
  <outline>
    <contour>
      <point x="642" y="-192" type="line"/>
      <point x="257" y="-192" type="line"/>
      <point x="257" y="1416" type="line"/>
      <point x="642" y="1416" type="line"/>
      <point x="642" y="1331" type="line"/>
      <point x="345" y="1331" type="line"/>
      <point x="345" y="-106" type="line"/>
      <point x="642" y="-106" type="line"/>
    </contour>
  </outline>
</glyph>
<glyph name="backslash.deva" format="1">
  <advance width="628"/>
  <unicode hex="005C"/>
  <outline>
    <contour>
      <point x="114" y="1316" type="line"/>
      <point x="607" y="0" type="line"/>
      <point x="514" y="0" type="line"/>
      <point x="22" y="1316" type="line"/>
    </contour>
  </outline>
</glyph>
<glyph name="bracketright.deva" format="1">
  <advance width="588"/>
  <unicode hex="005D"/>
  <outline>
    <contour>
      <point x="46" y="-206" type="line"/>
      <point x="343" y="-206" type="line"/>
      <point x="343" y="1231" type="line"/>
      <point x="46" y="1231" type="line"/>
      <point x="46" y="1316" type="line"/>
      <point x="431" y="1316" type="line"/>
      <point x="431" y="-292" type="line"/>
      <point x="46" y="-292" type="line"/>
    </contour>
  </outline>
</glyph>
<glyph name="asciicircum.deva" format="1">
  <advance width="1052"/>
  <unicode hex="005E"/>
  <outline>
    <contour>
      <point x="79" y="505" type="line"/>
      <point x="498" y="1326" type="line"/>
      <point x="559" y="1326" type="line"/>
      <point x="973" y="505" type="line"/>
      <point x="883" y="505" type="line"/>
      <point x="527" y="1217" type="line"/>
      <point x="169" y="505" type="line"/>
    </contour>
  </outline>
</glyph>
<glyph name="grave" format="1">
  <advance width="1064"/>
  <unicode hex="0060"/>
  <outline>
    <contour>
      <point x="698" y="1241" type="line"/>
      <point x="636" y="1241" type="line"/>
      <point x="579" y="1289"/>
      <point x="522" y="1340"/>
      <point x="466" y="1395" type="curve"/>
      <point x="411" y="1451"/>
      <point x="374" y="1493"/>
      <point x="354" y="1521" type="curve"/>
      <point x="354" y="1536" type="line"/>
      <point x="481" y="1536" type="line"/>
      <point x="497" y="1507"/>
      <point x="527" y="1465"/>
      <point x="570" y="1408" type="curve" smooth="yes"/>
      <point x="614" y="1352"/>
      <point x="656" y="1301"/>
      <point x="698" y="1255" type="curve"/>
    </contour>
  </outline>
</glyph>
<glyph name="a" format="1">
  <advance width="976"/>
  <unicode hex="0061"/>
  <outline>
    <contour>
      <point x="758" y="0" type="line"/>
      <point x="735" y="155" type="line"/>
      <point x="728" y="155" type="line"/>
      <point x="679" y="92"/>
      <point x="628" y="47"/>
      <point x="576" y="21" type="curve" smooth="yes"/>
      <point x="525" y="-5"/>
      <point x="463" y="-18"/>
      <point x="392" y="-18" type="curve" smooth="yes"/>
      <point x="200" y="-18"/>
      <point x="88" y="87"/>
      <point x="88" y="260" type="curve" smooth="yes"/>
      <point x="88" y="451"/>
      <point x="252" y="561"/>
      <point x="553" y="566" type="curve"/>
      <point x="739" y="571" type="line"/>
      <point x="739" y="636" type="line" smooth="yes"/>
      <point x="739" y="823"/>
      <point x="667" y="918"/>
      <point x="499" y="918" type="curve" smooth="yes"/>
      <point x="409" y="918"/>
      <point x="315" y="893"/>
      <point x="218" y="842" type="curve"/>
      <point x="184" y="920" type="line"/>
      <point x="292" y="970"/>
      <point x="398" y="995"/>
      <point x="503" y="995" type="curve" smooth="yes"/>
      <point x="718" y="995"/>
      <point x="823" y="887"/>
      <point x="823" y="651" type="curve" smooth="yes"/>
      <point x="823" y="0" type="line"/>
    </contour>
    <contour>
      <point x="398" y="63" type="curve" smooth="yes"/>
      <point x="502" y="63"/>
      <point x="584" y="93"/>
      <point x="644" y="152" type="curve" smooth="yes"/>
      <point x="705" y="212"/>
      <point x="735" y="295"/>
      <point x="735" y="401" type="curve" smooth="yes"/>
      <point x="735" y="498" type="line"/>
      <point x="564" y="490" type="line" smooth="yes"/>
      <point x="427" y="484"/>
      <point x="329" y="463"/>
      <point x="270" y="426" type="curve" smooth="yes"/>
      <point x="212" y="390"/>
      <point x="183" y="333"/>
      <point x="183" y="256" type="curve" smooth="yes"/>
      <point x="183" y="135"/>
      <point x="261" y="63"/>
    </contour>
  </outline>
</glyph>
<glyph name="b" format="1">
  <advance width="1097"/>
  <unicode hex="0062"/>
  <outline>
    <contour>
      <point x="577" y="997" type="curve" smooth="yes"/>
      <point x="850" y="997"/>
      <point x="990" y="822"/>
      <point x="990" y="490" type="curve" smooth="yes"/>
      <point x="990" y="328"/>
      <point x="953" y="203"/>
      <point x="880" y="114" type="curve" smooth="yes"/>
      <point x="807" y="26"/>
      <point x="705" y="-18"/>
      <point x="573" y="-18" type="curve" smooth="yes"/>
      <point x="434" y="-18"/>
      <point x="317" y="41"/>
      <point x="253" y="148" type="curve"/>
      <point x="245" y="148" type="line"/>
      <point x="220" y="0" type="line"/>
      <point x="164" y="0" type="line"/>
      <point x="164" y="1400" type="line"/>
      <point x="253" y="1400" type="line"/>
      <point x="253" y="1048" type="line" smooth="yes"/>
      <point x="253" y="995"/>
      <point x="252" y="947"/>
      <point x="249" y="903" type="curve"/>
      <point x="247" y="826" type="line"/>
      <point x="253" y="826" type="line"/>
      <point x="328" y="943"/>
      <point x="429" y="997"/>
    </contour>
    <contour>
      <point x="575" y="916" type="curve" smooth="yes"/>
      <point x="460" y="916"/>
      <point x="377" y="883"/>
      <point x="327" y="817" type="curve" smooth="yes"/>
      <point x="278" y="751"/>
      <point x="253" y="642"/>
      <point x="253" y="490" type="curve" smooth="yes"/>
      <point x="253" y="475" type="line" smooth="yes"/>
      <point x="253" y="328"/>
      <point x="279" y="222"/>
      <point x="331" y="157" type="curve" smooth="yes"/>
      <point x="383" y="93"/>
      <point x="464" y="61"/>
      <point x="573" y="61" type="curve" smooth="yes"/>
      <point x="786" y="61"/>
      <point x="895" y="216"/>
      <point x="895" y="492" type="curve" smooth="yes"/>
      <point x="895" y="775"/>
      <point x="788" y="916"/>
    </contour>
  </outline>
</glyph>
<glyph name="c" format="1">
  <advance width="876"/>
  <unicode hex="0063"/>
  <outline>
    <contour>
      <point x="554" y="-18" type="curve" smooth="yes"/>
      <point x="415" y="-18"/>
      <point x="305" y="26"/>
      <point x="226" y="114" type="curve" smooth="yes"/>
      <point x="147" y="203"/>
      <point x="107" y="326"/>
      <point x="107" y="483" type="curve" smooth="yes"/>
      <point x="107" y="645"/>
      <point x="148" y="771"/>
      <point x="230" y="861" type="curve" smooth="yes"/>
      <point x="313" y="952"/>
      <point x="425" y="997"/>
      <point x="568" y="997" type="curve" smooth="yes"/>
      <point x="653" y="997"/>
      <point x="734" y="982"/>
      <point x="811" y="953" type="curve"/>
      <point x="787" y="874" type="line"/>
      <point x="702" y="902"/>
      <point x="629" y="916"/>
      <point x="566" y="916" type="curve" smooth="yes"/>
      <point x="326" y="916"/>
      <point x="201" y="764"/>
      <point x="201" y="485" type="curve" smooth="yes"/>
      <point x="201" y="353"/>
      <point x="232" y="250"/>
      <point x="293" y="175" type="curve" smooth="yes"/>
      <point x="355" y="100"/>
      <point x="442" y="63"/>
      <point x="553" y="63" type="curve" smooth="yes"/>
      <point x="642" y="63"/>
      <point x="724" y="79"/>
      <point x="800" y="111" type="curve"/>
      <point x="800" y="28" type="line"/>
      <point x="737" y="-3"/>
      <point x="655" y="-18"/>
    </contour>
  </outline>
</glyph>
<glyph name="d" format="1">
  <advance width="1097"/>
  <unicode hex="0064"/>
  <outline>
    <contour>
      <point x="522" y="997" type="curve" smooth="yes"/>
      <point x="663" y="997"/>
      <point x="763" y="951"/>
      <point x="844" y="826" type="curve"/>
      <point x="850" y="826" type="line"/>
      <point x="846" y="902"/>
      <point x="844" y="976"/>
      <point x="844" y="1048" type="curve" smooth="yes"/>
      <point x="844" y="1400" type="line"/>
      <point x="932" y="1400" type="line"/>
      <point x="932" y="0" type="line"/>
      <point x="874" y="0" type="line"/>
      <point x="851" y="149" type="line"/>
      <point x="844" y="149" type="line"/>
      <point x="770" y="38"/>
      <point x="663" y="-18"/>
      <point x="524" y="-18" type="curve" smooth="yes"/>
      <point x="253" y="-18"/>
      <point x="107" y="154"/>
      <point x="107" y="475" type="curve" smooth="yes"/>
      <point x="107" y="814"/>
      <point x="251" y="997"/>
    </contour>
    <contour>
      <point x="522" y="916" type="curve" smooth="yes"/>
      <point x="309" y="916"/>
      <point x="201" y="762"/>
      <point x="201" y="477" type="curve" smooth="yes"/>
      <point x="201" y="200"/>
      <point x="309" y="61"/>
      <point x="524" y="61" type="curve" smooth="yes"/>
      <point x="634" y="61"/>
      <point x="715" y="93"/>
      <point x="766" y="157" type="curve" smooth="yes"/>
      <point x="818" y="222"/>
      <point x="844" y="328"/>
      <point x="844" y="475" type="curve" smooth="yes"/>
      <point x="844" y="490" type="line" smooth="yes"/>
      <point x="844" y="641"/>
      <point x="819" y="750"/>
      <point x="768" y="816" type="curve" smooth="yes"/>
      <point x="717" y="883"/>
      <point x="635" y="916"/>
    </contour>
  </outline>
</glyph>
<glyph name="e" format="1">
  <advance width="1012"/>
  <unicode hex="0065"/>
  <outline>
    <contour>
      <point x="559" y="-18" type="curve" smooth="yes"/>
      <point x="417" y="-18"/>
      <point x="306" y="26"/>
      <point x="226" y="113" type="curve"/>
      <point x="147" y="201"/>
      <point x="107" y="324"/>
      <point x="107" y="481" type="curve" smooth="yes"/>
      <point x="107" y="637"/>
      <point x="145" y="762"/>
      <point x="222" y="856" type="curve" smooth="yes"/>
      <point x="299" y="950"/>
      <point x="402" y="997"/>
      <point x="533" y="997" type="curve" smooth="yes"/>
      <point x="648" y="997"/>
      <point x="739" y="957"/>
      <point x="805" y="876" type="curve"/>
      <point x="872" y="796"/>
      <point x="905" y="687"/>
      <point x="905" y="549" type="curve" smooth="yes"/>
      <point x="905" y="477" type="line"/>
      <point x="201" y="477" type="line"/>
      <point x="202" y="208"/>
      <point x="330" y="63"/>
      <point x="559" y="63" type="curve" smooth="yes"/>
      <point x="615" y="63"/>
      <point x="664" y="67"/>
      <point x="706" y="74" type="curve" smooth="yes"/>
      <point x="748" y="82"/>
      <point x="802" y="99"/>
      <point x="867" y="125" type="curve"/>
      <point x="867" y="44" type="line"/>
      <point x="812" y="20"/>
      <point x="760" y="4"/>
      <point x="713" y="-5" type="curve" smooth="yes"/>
      <point x="666" y="-14"/>
      <point x="615" y="-18"/>
    </contour>
    <contour>
      <point x="533" y="918" type="curve" smooth="yes"/>
      <point x="344" y="918"/>
      <point x="225" y="791"/>
      <point x="206" y="556" type="curve"/>
      <point x="811" y="556" type="line"/>
      <point x="811" y="669"/>
      <point x="786" y="758"/>
      <point x="737" y="822" type="curve" smooth="yes"/>
      <point x="688" y="886"/>
      <point x="620" y="918"/>
    </contour>
  </outline>
</glyph>
<glyph name="f" format="1">
  <advance width="553"/>
  <unicode hex="0066"/>
  <outline>
    <contour>
      <point x="527" y="901" type="line"/>
      <point x="297" y="901" type="line"/>
      <point x="297" y="0" type="line"/>
      <point x="208" y="0" type="line"/>
      <point x="208" y="901" type="line"/>
      <point x="26" y="901" type="line"/>
      <point x="26" y="953" type="line"/>
      <point x="208" y="986" type="line"/>
      <point x="208" y="1062" type="line" smooth="yes"/>
      <point x="208" y="1302"/>
      <point x="290" y="1410"/>
      <point x="490" y="1410" type="curve" smooth="yes"/>
      <point x="544" y="1410"/>
      <point x="598" y="1402"/>
      <point x="652" y="1386" type="curve"/>
      <point x="632" y="1309" type="line"/>
      <point x="584" y="1324"/>
      <point x="536" y="1331"/>
      <point x="489" y="1331" type="curve" smooth="yes"/>
      <point x="349" y="1331"/>
      <point x="297" y="1254"/>
      <point x="297" y="1069" type="curve" smooth="yes"/>
      <point x="297" y="978" type="line"/>
      <point x="527" y="978" type="line"/>
    </contour>
  </outline>
</glyph>
<glyph name="g" format="1">
  <advance width="964"/>
  <unicode hex="0067"/>
  <outline>
    <contour>
      <point x="927" y="978" type="line"/>
      <point x="927" y="916" type="line"/>
      <point x="724" y="904" type="line"/>
      <point x="778" y="837"/>
      <point x="805" y="763"/>
      <point x="805" y="682" type="curve" smooth="yes"/>
      <point x="805" y="588"/>
      <point x="774" y="512"/>
      <point x="711" y="453" type="curve" smooth="yes"/>
      <point x="648" y="394"/>
      <point x="564" y="365"/>
      <point x="459" y="365" type="curve" smooth="yes"/>
      <point x="414" y="365"/>
      <point x="383" y="367"/>
      <point x="365" y="371" type="curve"/>
      <point x="294" y="334"/>
      <point x="256" y="281"/>
      <point x="256" y="225" type="curve" smooth="yes"/>
      <point x="256" y="162"/>
      <point x="300" y="135"/>
      <point x="411" y="135" type="curve" smooth="yes"/>
      <point x="582" y="135" type="line" smooth="yes"/>
      <point x="795" y="135"/>
      <point x="911" y="48"/>
      <point x="911" y="-120" type="curve" smooth="yes"/>
      <point x="911" y="-327"/>
      <point x="738" y="-443"/>
      <point x="427" y="-443" type="curve" smooth="yes"/>
      <point x="182" y="-443"/>
      <point x="40" y="-343"/>
      <point x="40" y="-174" type="curve" smooth="yes"/>
      <point x="40" y="-39"/>
      <point x="130" y="52"/>
      <point x="273" y="85" type="curve"/>
      <point x="214" y="109"/>
      <point x="175" y="158"/>
      <point x="175" y="218" type="curve" smooth="yes"/>
      <point x="175" y="283"/>
      <point x="217" y="341"/>
      <point x="301" y="391" type="curve"/>
      <point x="186" y="438"/>
      <point x="120" y="544"/>
      <point x="120" y="673" type="curve" smooth="yes"/>
      <point x="120" y="771"/>
      <point x="151" y="849"/>
      <point x="213" y="908" type="curve" smooth="yes"/>
      <point x="275" y="967"/>
      <point x="359" y="997"/>
      <point x="464" y="997" type="curve" smooth="yes"/>
      <point x="529" y="997"/>
      <point x="579" y="991"/>
      <point x="614" y="978" type="curve"/>
    </contour>
    <contour>
      <point x="135" y="-166" type="curve" smooth="yes"/>
      <point x="135" y="-300"/>
      <point x="235" y="-367"/>
      <point x="435" y="-367" type="curve" smooth="yes"/>
      <point x="692" y="-367"/>
      <point x="820" y="-285"/>
      <point x="820" y="-122" type="curve" smooth="yes"/>
      <point x="820" y="-3"/>
      <point x="744" y="46"/>
      <point x="564" y="46" type="curve" smooth="yes"/>
      <point x="404" y="46" type="line" smooth="yes"/>
      <point x="225" y="46"/>
      <point x="135" y="-25"/>
    </contour>
    <contour>
      <point x="210" y="673" type="curve" smooth="yes"/>
      <point x="210" y="522"/>
      <point x="308" y="435"/>
      <point x="463" y="435" type="curve" smooth="yes"/>
      <point x="626" y="435"/>
      <point x="715" y="520"/>
      <point x="715" y="677" type="curve" smooth="yes"/>
      <point x="715" y="844"/>
      <point x="621" y="927"/>
      <point x="461" y="927" type="curve" smooth="yes"/>
      <point x="305" y="927"/>
      <point x="210" y="833"/>
    </contour>
  </outline>
</glyph>
<glyph name="h" format="1">
  <advance width="1087"/>
  <unicode hex="0068"/>
  <outline>
    <contour>
      <point x="846" y="0" type="line"/>
      <point x="846" y="634" type="line" smooth="yes"/>
      <point x="846" y="831"/>
      <point x="766" y="916"/>
      <point x="591" y="916" type="curve" smooth="yes"/>
      <point x="358" y="916"/>
      <point x="253" y="805"/>
      <point x="253" y="540" type="curve" smooth="yes"/>
      <point x="253" y="0" type="line"/>
      <point x="164" y="0" type="line"/>
      <point x="164" y="1400" type="line"/>
      <point x="253" y="1400" type="line"/>
      <point x="253" y="955" type="line"/>
      <point x="248" y="830" type="line"/>
      <point x="255" y="830" type="line"/>
      <point x="328" y="947"/>
      <point x="436" y="997"/>
      <point x="601" y="997" type="curve" smooth="yes"/>
      <point x="823" y="997"/>
      <point x="934" y="878"/>
      <point x="934" y="640" type="curve" smooth="yes"/>
      <point x="934" y="0" type="line"/>
    </contour>
  </outline>
</glyph>
<glyph name="i" format="1">
  <advance width="417"/>
  <unicode hex="0069"/>
  <outline>
    <contour>
      <point x="253" y="0" type="line"/>
      <point x="164" y="0" type="line"/>
      <point x="164" y="978" type="line"/>
      <point x="253" y="978" type="line"/>
    </contour>
    <contour>
      <point x="151" y="1250" type="curve" smooth="yes"/>
      <point x="151" y="1307"/>
      <point x="170" y="1336"/>
      <point x="208" y="1336" type="curve" smooth="yes"/>
      <point x="245" y="1336"/>
      <point x="267" y="1305"/>
      <point x="267" y="1250" type="curve" smooth="yes"/>
      <point x="267" y="1197"/>
      <point x="245" y="1163"/>
      <point x="208" y="1163" type="curve" smooth="yes"/>
      <point x="170" y="1163"/>
      <point x="151" y="1192"/>
    </contour>
  </outline>
</glyph>
<glyph name="j" format="1">
  <advance width="417"/>
  <unicode hex="006A"/>
  <outline>
    <contour>
      <point x="33" y="-443" type="curve" smooth="yes"/>
      <point x="-15" y="-443"/>
      <point x="-55" y="-435"/>
      <point x="-88" y="-420" type="curve"/>
      <point x="-88" y="-343" type="line"/>
      <point x="-47" y="-355"/>
      <point x="-8" y="-361"/>
      <point x="28" y="-361" type="curve" smooth="yes"/>
      <point x="119" y="-361"/>
      <point x="164" y="-308"/>
      <point x="164" y="-203" type="curve" smooth="yes"/>
      <point x="164" y="978" type="line"/>
      <point x="253" y="978" type="line"/>
      <point x="253" y="-190" type="line" smooth="yes"/>
      <point x="253" y="-351"/>
      <point x="174" y="-443"/>
    </contour>
    <contour>
      <point x="151" y="1250" type="curve" smooth="yes"/>
      <point x="151" y="1307"/>
      <point x="170" y="1336"/>
      <point x="208" y="1336" type="curve" smooth="yes"/>
      <point x="245" y="1336"/>
      <point x="267" y="1305"/>
      <point x="267" y="1250" type="curve" smooth="yes"/>
      <point x="267" y="1197"/>
      <point x="245" y="1163"/>
      <point x="208" y="1163" type="curve" smooth="yes"/>
      <point x="170" y="1163"/>
      <point x="151" y="1192"/>
    </contour>
  </outline>
</glyph>
<glyph name="k" format="1">
  <advance width="892"/>
  <unicode hex="006B"/>
  <outline>
    <contour>
      <point x="251" y="429" type="line"/>
      <point x="751" y="978" type="line"/>
      <point x="859" y="978" type="line"/>
      <point x="473" y="561" type="line"/>
      <point x="892" y="0" type="line"/>
      <point x="785" y="0" type="line"/>
      <point x="413" y="494" type="line"/>
      <point x="253" y="348" type="line"/>
      <point x="253" y="0" type="line"/>
      <point x="164" y="0" type="line"/>
      <point x="164" y="1400" type="line"/>
      <point x="253" y="1400" type="line"/>
      <point x="253" y="698" type="line"/>
      <point x="247" y="429" type="line"/>
    </contour>
  </outline>
</glyph>
<glyph name="m" format="1">
  <advance width="1627"/>
  <unicode hex="006D"/>
  <outline>
    <contour>
      <point x="1386" y="0" type="line"/>
      <point x="1386" y="642" type="line" smooth="yes"/>
      <point x="1386" y="833"/>
      <point x="1312" y="916"/>
      <point x="1159" y="916" type="curve" smooth="yes"/>
      <point x="959" y="916"/>
      <point x="865" y="810"/>
      <point x="865" y="573" type="curve" smooth="yes"/>
      <point x="865" y="0" type="line"/>
      <point x="774" y="0" type="line"/>
      <point x="774" y="669" type="line" smooth="yes"/>
      <point x="774" y="834"/>
      <point x="698" y="916"/>
      <point x="547" y="916" type="curve" smooth="yes"/>
      <point x="342" y="916"/>
      <point x="253" y="803"/>
      <point x="253" y="540" type="curve" smooth="yes"/>
      <point x="253" y="0" type="line"/>
      <point x="164" y="0" type="line"/>
      <point x="164" y="978" type="line"/>
      <point x="238" y="978" type="line"/>
      <point x="256" y="844" type="line"/>
      <point x="262" y="844" type="line"/>
      <point x="315" y="941"/>
      <point x="422" y="997"/>
      <point x="542" y="997" type="curve" smooth="yes"/>
      <point x="696" y="997"/>
      <point x="795" y="939"/>
      <point x="839" y="823" type="curve"/>
      <point x="842" y="823" type="line"/>
      <point x="906" y="935"/>
      <point x="1017" y="997"/>
      <point x="1154" y="997" type="curve" smooth="yes"/>
      <point x="1367" y="997"/>
      <point x="1474" y="888"/>
      <point x="1474" y="640" type="curve" smooth="yes"/>
      <point x="1474" y="0" type="line"/>
    </contour>
  </outline>
</glyph>
<glyph name="n" format="1">
  <advance width="1087"/>
  <unicode hex="006E"/>
  <outline>
    <contour>
      <point x="846" y="0" type="line"/>
      <point x="846" y="634" type="line" smooth="yes"/>
      <point x="846" y="831"/>
      <point x="766" y="916"/>
      <point x="591" y="916" type="curve" smooth="yes"/>
      <point x="358" y="916"/>
      <point x="253" y="805"/>
      <point x="253" y="540" type="curve" smooth="yes"/>
      <point x="253" y="0" type="line"/>
      <point x="164" y="0" type="line"/>
      <point x="164" y="978" type="line"/>
      <point x="239" y="978" type="line"/>
      <point x="256" y="844" type="line"/>
      <point x="262" y="844" type="line"/>
      <point x="325" y="946"/>
      <point x="438" y="997"/>
      <point x="601" y="997" type="curve" smooth="yes"/>
      <point x="823" y="997"/>
      <point x="934" y="878"/>
      <point x="934" y="640" type="curve" smooth="yes"/>
      <point x="934" y="0" type="line"/>
    </contour>
  </outline>
</glyph>
<glyph name="o" format="1">
  <advance width="1080"/>
  <unicode hex="006F"/>
  <outline>
    <contour>
      <point x="973" y="490" type="curve" smooth="yes"/>
      <point x="973" y="331"/>
      <point x="934" y="206"/>
      <point x="857" y="116" type="curve" smooth="yes"/>
      <point x="780" y="27"/>
      <point x="673" y="-18"/>
      <point x="536" y="-18" type="curve"/>
      <point x="279" y="-23"/>
      <point x="102" y="186"/>
      <point x="107" y="490" type="curve"/>
      <point x="107" y="650"/>
      <point x="146" y="774"/>
      <point x="223" y="863" type="curve" smooth="yes"/>
      <point x="300" y="952"/>
      <point x="407" y="997"/>
      <point x="542" y="997" type="curve" smooth="yes"/>
      <point x="676" y="997"/>
      <point x="781" y="952"/>
      <point x="858" y="861" type="curve" smooth="yes"/>
      <point x="935" y="771"/>
      <point x="973" y="647"/>
    </contour>
    <contour>
      <point x="201" y="490" type="curve" smooth="yes"/>
      <point x="201" y="356"/>
      <point x="230" y="251"/>
      <point x="289" y="176" type="curve" smooth="yes"/>
      <point x="348" y="101"/>
      <point x="432" y="63"/>
      <point x="540" y="63" type="curve" smooth="yes"/>
      <point x="648" y="63"/>
      <point x="731" y="101"/>
      <point x="790" y="176" type="curve" smooth="yes"/>
      <point x="849" y="251"/>
      <point x="879" y="356"/>
      <point x="879" y="490" type="curve" smooth="yes"/>
      <point x="879" y="625"/>
      <point x="849" y="730"/>
      <point x="789" y="804" type="curve"/>
      <point x="730" y="879"/>
      <point x="646" y="916"/>
      <point x="538" y="916" type="curve" smooth="yes"/>
      <point x="322" y="916"/>
      <point x="201" y="762"/>
    </contour>
  </outline>
</glyph>
<glyph name="p" format="1">
  <advance width="1097"/>
  <unicode hex="0070"/>
  <outline>
    <contour>
      <point x="582" y="-18" type="curve" smooth="yes"/>
      <point x="431" y="-18"/>
      <point x="322" y="38"/>
      <point x="253" y="151" type="curve"/>
      <point x="247" y="151" type="line"/>
      <point x="249" y="76" type="line"/>
      <point x="252" y="31"/>
      <point x="253" y="-17"/>
      <point x="253" y="-70" type="curve" smooth="yes"/>
      <point x="253" y="-443" type="line"/>
      <point x="164" y="-443" type="line"/>
      <point x="164" y="978" type="line"/>
      <point x="239" y="978" type="line"/>
      <point x="256" y="839" type="line"/>
      <point x="262" y="839" type="line"/>
      <point x="329" y="944"/>
      <point x="437" y="997"/>
      <point x="584" y="997" type="curve" smooth="yes"/>
      <point x="848" y="997"/>
      <point x="990" y="820"/>
      <point x="990" y="489" type="curve" smooth="yes"/>
      <point x="990" y="328"/>
      <point x="953" y="203"/>
      <point x="880" y="114" type="curve" smooth="yes"/>
      <point x="807" y="26"/>
      <point x="708" y="-18"/>
    </contour>
    <contour>
      <point x="580" y="61" type="curve" smooth="yes"/>
      <point x="781" y="61"/>
      <point x="895" y="217"/>
      <point x="895" y="485" type="curve" smooth="yes"/>
      <point x="895" y="772"/>
      <point x="791" y="916"/>
      <point x="584" y="916" type="curve" smooth="yes"/>
      <point x="470" y="916"/>
      <point x="386" y="885"/>
      <point x="333" y="822" type="curve" smooth="yes"/>
      <point x="280" y="759"/>
      <point x="253" y="657"/>
      <point x="253" y="516" type="curve" smooth="yes"/>
      <point x="253" y="487" type="line" smooth="yes"/>
      <point x="253" y="334"/>
      <point x="279" y="224"/>
      <point x="330" y="159" type="curve" smooth="yes"/>
      <point x="381" y="94"/>
      <point x="465" y="61"/>
    </contour>
  </outline>
</glyph>
<glyph name="q" format="1">
  <advance width="1097"/>
  <unicode hex="0071"/>
  <outline>
    <contour>
      <point x="512" y="-18" type="curve" smooth="yes"/>
      <point x="255" y="-18"/>
      <point x="107" y="158"/>
      <point x="107" y="479" type="curve" smooth="yes"/>
      <point x="107" y="644"/>
      <point x="142" y="771"/>
      <point x="213" y="861" type="curve" smooth="yes"/>
      <point x="284" y="952"/>
      <point x="385" y="997"/>
      <point x="517" y="997" type="curve" smooth="yes"/>
      <point x="659" y="997"/>
      <point x="765" y="945"/>
      <point x="835" y="841" type="curve"/>
      <point x="841" y="841" type="line"/>
      <point x="857" y="978" type="line"/>
      <point x="932" y="978" type="line"/>
      <point x="932" y="-443" type="line"/>
      <point x="844" y="-443" type="line"/>
      <point x="844" y="-70" type="line" smooth="yes"/>
      <point x="844" y="3"/>
      <point x="846" y="78"/>
      <point x="850" y="153" type="curve"/>
      <point x="844" y="153" type="line"/>
      <point x="773" y="39"/>
      <point x="663" y="-18"/>
    </contour>
    <contour>
      <point x="514" y="61" type="curve" smooth="yes"/>
      <point x="633" y="61"/>
      <point x="717" y="94"/>
      <point x="768" y="159" type="curve" smooth="yes"/>
      <point x="819" y="224"/>
      <point x="844" y="334"/>
      <point x="844" y="489" type="curve" smooth="yes"/>
      <point x="844" y="499" type="line" smooth="yes"/>
      <point x="844" y="646"/>
      <point x="818" y="753"/>
      <point x="767" y="818" type="curve" smooth="yes"/>
      <point x="716" y="883"/>
      <point x="635" y="916"/>
      <point x="524" y="916" type="curve" smooth="yes"/>
      <point x="312" y="916"/>
      <point x="201" y="765"/>
      <point x="201" y="477" type="curve" smooth="yes"/>
      <point x="201" y="202"/>
      <point x="311" y="61"/>
    </contour>
  </outline>
</glyph>
<glyph name="r" format="1">
  <advance width="717"/>
  <unicode hex="0072"/>
  <outline>
    <contour>
      <point x="549" y="997" type="curve" smooth="yes"/>
      <point x="590" y="997"/>
      <point x="635" y="993"/>
      <point x="682" y="985" type="curve"/>
      <point x="665" y="899" type="line"/>
      <point x="624" y="909"/>
      <point x="582" y="914"/>
      <point x="538" y="914" type="curve" smooth="yes"/>
      <point x="455" y="914"/>
      <point x="386" y="879"/>
      <point x="333" y="808" type="curve" smooth="yes"/>
      <point x="280" y="737"/>
      <point x="253" y="648"/>
      <point x="253" y="540" type="curve" smooth="yes"/>
      <point x="253" y="0" type="line"/>
      <point x="164" y="0" type="line"/>
      <point x="164" y="978" type="line"/>
      <point x="239" y="978" type="line"/>
      <point x="248" y="802" type="line"/>
      <point x="255" y="802" type="line"/>
      <point x="295" y="874"/>
      <point x="338" y="924"/>
      <point x="383" y="953" type="curve" smooth="yes"/>
      <point x="429" y="982"/>
      <point x="484" y="997"/>
    </contour>
  </outline>
</glyph>
<glyph name="s" format="1">
  <advance width="859"/>
  <unicode hex="0073"/>
  <outline>
    <contour>
      <point x="770" y="255" type="curve" smooth="yes"/>
      <point x="770" y="79"/>
      <point x="632" y="-18"/>
      <point x="387" y="-18" type="curve" smooth="yes"/>
      <point x="256" y="-18"/>
      <point x="153" y="2"/>
      <point x="76" y="42" type="curve"/>
      <point x="76" y="139" type="line"/>
      <point x="174" y="90"/>
      <point x="278" y="65"/>
      <point x="387" y="65" type="curve" smooth="yes"/>
      <point x="580" y="65"/>
      <point x="682" y="134"/>
      <point x="682" y="241" type="curve" smooth="yes"/>
      <point x="682" y="290"/>
      <point x="662" y="332"/>
      <point x="622" y="365" type="curve" smooth="yes"/>
      <point x="582" y="399"/>
      <point x="517" y="432"/>
      <point x="426" y="464" type="curve" smooth="yes"/>
      <point x="328" y="499"/>
      <point x="259" y="530"/>
      <point x="219" y="555" type="curve"/>
      <point x="140" y="607"/>
      <point x="100" y="667"/>
      <point x="100" y="760" type="curve" smooth="yes"/>
      <point x="100" y="905"/>
      <point x="229" y="997"/>
      <point x="450" y="997" type="curve" smooth="yes"/>
      <point x="555" y="997"/>
      <point x="656" y="977"/>
      <point x="751" y="938" type="curve"/>
      <point x="717" y="857" type="line"/>
      <point x="621" y="896"/>
      <point x="532" y="916"/>
      <point x="450" y="916" type="curve" smooth="yes"/>
      <point x="290" y="916"/>
      <point x="190" y="860"/>
      <point x="190" y="767" type="curve" smooth="yes"/>
      <point x="190" y="716"/>
      <point x="208" y="675"/>
      <point x="244" y="644" type="curve" smooth="yes"/>
      <point x="281" y="613"/>
      <point x="352" y="579"/>
      <point x="457" y="542" type="curve" smooth="yes"/>
      <point x="545" y="510"/>
      <point x="609" y="481"/>
      <point x="649" y="456" type="curve" smooth="yes"/>
      <point x="730" y="405"/>
      <point x="770" y="342"/>
    </contour>
  </outline>
</glyph>
<glyph name="t" format="1">
  <advance width="617"/>
  <unicode hex="0074"/>
  <outline>
    <contour>
      <point x="422" y="61" type="curve" smooth="yes"/>
      <point x="479" y="61"/>
      <point x="528" y="66"/>
      <point x="570" y="76" type="curve"/>
      <point x="570" y="4" type="line"/>
      <point x="527" y="-11"/>
      <point x="477" y="-18"/>
      <point x="420" y="-18" type="curve" smooth="yes"/>
      <point x="248" y="-18"/>
      <point x="167" y="72"/>
      <point x="167" y="269" type="curve" smooth="yes"/>
      <point x="167" y="901" type="line"/>
      <point x="22" y="901" type="line"/>
      <point x="22" y="953" type="line"/>
      <point x="167" y="994" type="line"/>
      <point x="212" y="1215" type="line"/>
      <point x="258" y="1215" type="line"/>
      <point x="258" y="978" type="line"/>
      <point x="545" y="978" type="line"/>
      <point x="545" y="901" type="line"/>
      <point x="258" y="901" type="line"/>
      <point x="258" y="282" type="line" smooth="yes"/>
      <point x="258" y="131"/>
      <point x="309" y="61"/>
    </contour>
  </outline>
</glyph>
<glyph name="u" format="1">
  <advance width="1087"/>
  <unicode hex="0075"/>
  <outline>
    <contour>
      <point x="241" y="978" type="line"/>
      <point x="241" y="345" type="line" smooth="yes"/>
      <point x="241" y="148"/>
      <point x="321" y="63"/>
      <point x="496" y="63" type="curve" smooth="yes"/>
      <point x="728" y="63"/>
      <point x="835" y="173"/>
      <point x="835" y="438" type="curve" smooth="yes"/>
      <point x="835" y="978" type="line"/>
      <point x="923" y="978" type="line"/>
      <point x="923" y="0" type="line"/>
      <point x="848" y="0" type="line"/>
      <point x="832" y="135" type="line"/>
      <point x="826" y="135" type="line"/>
      <point x="763" y="33"/>
      <point x="650" y="-18"/>
      <point x="487" y="-18" type="curve" smooth="yes"/>
      <point x="264" y="-18"/>
      <point x="153" y="101"/>
      <point x="153" y="339" type="curve" smooth="yes"/>
      <point x="153" y="978" type="line"/>
    </contour>
  </outline>
</glyph>
<glyph name="v" format="1">
  <advance width="846"/>
  <unicode hex="0076"/>
  <outline>
    <contour>
      <point x="378" y="0" type="line"/>
      <point x="0" y="978" type="line"/>
      <point x="92" y="978" type="line"/>
      <point x="345" y="313" type="line" smooth="yes"/>
      <point x="378" y="228"/>
      <point x="403" y="153"/>
      <point x="420" y="90" type="curve"/>
      <point x="426" y="90" type="line"/>
      <point x="451" y="171"/>
      <point x="476" y="246"/>
      <point x="501" y="315" type="curve"/>
      <point x="754" y="978" type="line"/>
      <point x="846" y="978" type="line"/>
      <point x="468" y="0" type="line"/>
    </contour>
  </outline>
</glyph>
<glyph name="w" format="1">
  <advance width="1333"/>
  <unicode hex="0077"/>
  <outline>
    <contour>
      <point x="946" y="0" type="line"/>
      <point x="732" y="654" type="line"/>
      <point x="718" y="699"/>
      <point x="700" y="764"/>
      <point x="679" y="850" type="curve"/>
      <point x="673" y="850" type="line"/>
      <point x="654" y="783" type="line"/>
      <point x="614" y="652" type="line"/>
      <point x="396" y="0" type="line"/>
      <point x="308" y="0" type="line"/>
      <point x="28" y="978" type="line"/>
      <point x="123" y="978" type="line"/>
      <point x="280" y="411" type="line"/>
      <point x="317" y="271"/>
      <point x="341" y="168"/>
      <point x="352" y="102" type="curve"/>
      <point x="357" y="102" type="line"/>
      <point x="392" y="242"/>
      <point x="418" y="335"/>
      <point x="435" y="382" type="curve"/>
      <point x="636" y="978" type="line"/>
      <point x="717" y="978" type="line"/>
      <point x="909" y="383" type="line"/>
      <point x="952" y="242"/>
      <point x="979" y="149"/>
      <point x="988" y="103" type="curve"/>
      <point x="994" y="103" type="line"/>
      <point x="999" y="142"/>
      <point x="1023" y="247"/>
      <point x="1066" y="417" type="curve"/>
      <point x="1215" y="978" type="line"/>
      <point x="1305" y="978" type="line"/>
      <point x="1039" y="0" type="line"/>
    </contour>
  </outline>
</glyph>
<glyph name="x" format="1">
  <advance width="918"/>
  <unicode hex="0078"/>
  <outline>
    <contour>
      <point x="404" y="503" type="line"/>
      <point x="63" y="978" type="line"/>
      <point x="166" y="978" type="line"/>
      <point x="457" y="566" type="line"/>
      <point x="746" y="978" type="line"/>
      <point x="844" y="978" type="line"/>
      <point x="508" y="503" type="line"/>
      <point x="868" y="0" type="line"/>
      <point x="765" y="0" type="line"/>
      <point x="457" y="436" type="line"/>
      <point x="148" y="0" type="line"/>
      <point x="49" y="0" type="line"/>
    </contour>
  </outline>
</glyph>
<glyph name="y" format="1">
  <advance width="846"/>
  <unicode hex="0079"/>
  <outline>
    <contour>
      <point x="0" y="978" type="line"/>
      <point x="92" y="978" type="line"/>
      <point x="299" y="429" type="line" smooth="yes"/>
      <point x="362" y="260"/>
      <point x="401" y="147"/>
      <point x="418" y="88" type="curve"/>
      <point x="424" y="88" type="line"/>
      <point x="449" y="165"/>
      <point x="490" y="281"/>
      <point x="547" y="435" type="curve"/>
      <point x="754" y="978" type="line"/>
      <point x="846" y="978" type="line"/>
      <point x="408" y="-158" type="line"/>
      <point x="373" y="-251"/>
      <point x="343" y="-313"/>
      <point x="319" y="-345" type="curve" smooth="yes"/>
      <point x="271" y="-410"/>
      <point x="209" y="-443"/>
      <point x="118" y="-443" type="curve" smooth="yes"/>
      <point x="84" y="-443"/>
      <point x="46" y="-437"/>
      <point x="4" y="-424" type="curve"/>
      <point x="4" y="-347" type="line"/>
      <point x="39" y="-356"/>
      <point x="76" y="-361"/>
      <point x="116" y="-361" type="curve" smooth="yes"/>
      <point x="177" y="-361"/>
      <point x="223" y="-333"/>
      <point x="260" y="-272" type="curve" smooth="yes"/>
      <point x="279" y="-242"/>
      <point x="301" y="-194"/>
      <point x="326" y="-128" type="curve" smooth="yes"/>
      <point x="351" y="-63"/>
      <point x="367" y="-20"/>
      <point x="374" y="0" type="curve"/>
    </contour>
  </outline>
</glyph>
<glyph name="z" format="1">
  <advance width="850"/>
  <unicode hex="007A"/>
  <outline>
    <contour>
      <point x="772" y="0" type="line"/>
      <point x="74" y="0" type="line"/>
      <point x="74" y="57" type="line"/>
      <point x="654" y="899" type="line"/>
      <point x="116" y="899" type="line"/>
      <point x="116" y="978" type="line"/>
      <point x="770" y="978" type="line"/>
      <point x="770" y="922" type="line"/>
      <point x="186" y="79" type="line"/>
      <point x="772" y="79" type="line"/>
    </contour>
  </outline>
</glyph>
<glyph name="braceleft.deva" format="1">
  <advance width="651"/>
  <unicode hex="007B"/>
  <outline>
    <contour>
      <point x="350" y="-24" type="line" smooth="yes"/>
      <point x="350" y="-147"/>
      <point x="414" y="-206"/>
      <point x="586" y="-210" type="curve"/>
      <point x="586" y="-292" type="line"/>
      <point x="469" y="-292"/>
      <point x="385" y="-269"/>
      <point x="336" y="-224" type="curve" smooth="yes"/>
      <point x="287" y="-179"/>
      <point x="262" y="-110"/>
      <point x="262" y="-16" type="curve" smooth="yes"/>
      <point x="262" y="287" type="line" smooth="yes"/>
      <point x="262" y="410"/>
      <point x="193" y="473"/>
      <point x="55" y="475" type="curve"/>
      <point x="55" y="547" type="line"/>
      <point x="202" y="550"/>
      <point x="262" y="607"/>
      <point x="262" y="726" type="curve" smooth="yes"/>
      <point x="262" y="1041" type="line" smooth="yes"/>
      <point x="262" y="1220"/>
      <point x="370" y="1312"/>
      <point x="586" y="1316" type="curve"/>
      <point x="586" y="1235" type="line"/>
      <point x="421" y="1228"/>
      <point x="350" y="1166"/>
      <point x="350" y="1041" type="curve" smooth="yes"/>
      <point x="350" y="767" type="line" smooth="yes"/>
      <point x="350" y="611"/>
      <point x="300" y="541"/>
      <point x="183" y="516" type="curve"/>
      <point x="183" y="508" type="line"/>
      <point x="299" y="484"/>
      <point x="350" y="413"/>
      <point x="350" y="265" type="curve" smooth="yes"/>
    </contour>
  </outline>
</glyph>
<glyph name="braceright.deva" format="1">
  <advance width="851"/>
  <unicode hex="007D"/>
  <outline>
    <contour>
      <point x="401" y="365" type="line" smooth="yes"/>
      <point x="401" y="513"/>
      <point x="452" y="584"/>
      <point x="568" y="608" type="curve"/>
      <point x="568" y="616" type="line"/>
      <point x="452" y="640"/>
      <point x="401" y="710"/>
      <point x="401" y="867" type="curve" smooth="yes"/>
      <point x="401" y="1141" type="line" smooth="yes"/>
      <point x="401" y="1265"/>
      <point x="332" y="1328"/>
      <point x="165" y="1335" type="curve"/>
      <point x="165" y="1416" type="line"/>
      <point x="373" y="1416"/>
      <point x="489" y="1321"/>
      <point x="489" y="1141" type="curve" smooth="yes"/>
      <point x="489" y="826" type="line" smooth="yes"/>
      <point x="489" y="706"/>
      <point x="551" y="650"/>
      <point x="696" y="647" type="curve"/>
      <point x="696" y="575" type="line"/>
      <point x="558" y="573"/>
      <point x="489" y="510"/>
      <point x="489" y="387" type="curve" smooth="yes"/>
      <point x="489" y="84" type="line" smooth="yes"/>
      <point x="489" y="-9"/>
      <point x="464" y="-79"/>
      <point x="414" y="-124" type="curve" smooth="yes"/>
      <point x="365" y="-169"/>
      <point x="282" y="-192"/>
      <point x="165" y="-192" type="curve"/>
      <point x="165" y="-110" type="line"/>
      <point x="334" y="-107"/>
      <point x="401" y="-48"/>
      <point x="401" y="76" type="curve" smooth="yes"/>
    </contour>
  </outline>
</glyph>
<glyph name="asciitilde.deva" format="1">
  <advance width="1052"/>
  <unicode hex="007E"/>
  <outline>
    <contour>
      <point x="301" y="670" type="curve" smooth="yes"/>
      <point x="241" y="670"/>
      <point x="167" y="634"/>
      <point x="100" y="562" type="curve"/>
      <point x="100" y="647" type="line"/>
      <point x="165" y="713"/>
      <point x="235" y="746"/>
      <point x="310" y="746" type="curve" smooth="yes"/>
      <point x="346" y="746"/>
      <point x="380" y="742"/>
      <point x="413" y="734" type="curve" smooth="yes"/>
      <point x="446" y="726"/>
      <point x="492" y="709"/>
      <point x="553" y="682" type="curve"/>
      <point x="628" y="647"/>
      <point x="694" y="630"/>
      <point x="751" y="630" type="curve" smooth="yes"/>
      <point x="818" y="630"/>
      <point x="878" y="666"/>
      <point x="953" y="742" type="curve"/>
      <point x="953" y="656" type="line"/>
      <point x="896" y="597"/>
      <point x="830" y="554"/>
      <point x="742" y="554" type="curve" smooth="yes"/>
      <point x="673" y="554"/>
      <point x="592" y="576"/>
      <point x="499" y="619" type="curve" smooth="yes"/>
      <point x="425" y="653"/>
      <point x="359" y="670"/>
    </contour>
  </outline>
</glyph>
<glyph name="multiply.deva" format="1">
  <advance width="1052"/>
  <unicode hex="00D7"/>
  <outline>
    <contour>
      <point x="526" y="702" type="line"/>
      <point x="894" y="1069" type="line"/>
      <point x="946" y="1017" type="line"/>
      <point x="579" y="651" type="line"/>
      <point x="944" y="283" type="line"/>
      <point x="892" y="232" type="line"/>
      <point x="526" y="599" type="line"/>
      <point x="160" y="232" type="line"/>
      <point x="109" y="283" type="line"/>
      <point x="473" y="651" type="line"/>
      <point x="107" y="1017" type="line"/>
      <point x="158" y="1069" type="line"/>
    </contour>
  </outline>
</glyph>
<glyph name="divide.deva" format="1">
  <advance width="1052"/>
  <unicode hex="00F7"/>
  <outline>
    <contour>
      <point x="100" y="614" type="line"/>
      <point x="100" y="688" type="line"/>
      <point x="953" y="688" type="line"/>
      <point x="953" y="614" type="line"/>
    </contour>
    <contour>
      <point x="454" y="967" type="curve" smooth="yes"/>
      <point x="454" y="1027"/>
      <point x="478" y="1057"/>
      <point x="526" y="1057" type="curve" smooth="yes"/>
      <point x="575" y="1057"/>
      <point x="599" y="1027"/>
      <point x="599" y="967" type="curve" smooth="yes"/>
      <point x="599" y="906"/>
      <point x="567" y="879"/>
      <point x="526" y="879" type="curve" smooth="yes"/>
      <point x="485" y="879"/>
      <point x="454" y="906"/>
    </contour>
    <contour>
      <point x="454" y="334" type="curve" smooth="yes"/>
      <point x="454" y="393"/>
      <point x="478" y="422"/>
      <point x="526" y="422" type="curve" smooth="yes"/>
      <point x="575" y="422"/>
      <point x="599" y="393"/>
      <point x="599" y="334" type="curve" smooth="yes"/>
      <point x="599" y="270"/>
      <point x="567" y="245"/>
      <point x="526" y="245" type="curve" smooth="yes"/>
      <point x="485" y="245"/>
      <point x="454" y="270"/>
    </contour>
  </outline>
</glyph>
<glyph name="uni02BC" format="1">
  <advance width="638"/>
  <unicode hex="02BC"/>
  <outline>
    <contour>
      <point x="455" y="1504" type="line"/>
      <point x="459" y="1504" type="line"/>
      <point x="463" y="1496" type="line"/>
      <point x="459" y="1520" type="line"/>
    </contour>
    <contour>
      <point x="455" y="1504" type="line"/>
      <point x="413" y="1345"/>
      <point x="351" y="1191"/>
      <point x="285" y="1041" type="curve"/>
      <point x="211" y="1041" type="line"/>
      <point x="247" y="1194"/>
      <point x="280" y="1348"/>
      <point x="304" y="1504" type="curve"/>
    </contour>
  </outline>
</glyph>
<glyph name="candrabindudeva" format="1">
  <advance width="0"/>
  <unicode hex="0901"/>
  <outline>
    <contour>
      <point x="-306" y="1832" type="curve" smooth="yes"/>
      <point x="-262" y="1832"/>
      <point x="-240" y="1806"/>
      <point x="-240" y="1754" type="curve" smooth="yes"/>
      <point x="-240" y="1702"/>
      <point x="-262" y="1675"/>
      <point x="-306" y="1675" type="curve" smooth="yes"/>
      <point x="-349" y="1675"/>
      <point x="-370" y="1702"/>
      <point x="-370" y="1754" type="curve" smooth="yes"/>
      <point x="-370" y="1806"/>
      <point x="-349" y="1832"/>
    </contour>
    <component base="ecandravowelsigndeva"/>
    <contour>
      <point x="0" y="-30" type="move" name="x26"/>
    </contour>
    <contour>
      <point x="-348" y="1244" type="move" name="_mark0"/>
    </contour>
  </outline>
</glyph>
<glyph name="anusvaradeva" format="1">
  <advance width="0"/>
  <unicode hex="0902"/>
  <outline>
    <contour>
      <point x="-298" y="1672" type="curve" smooth="yes"/>
      <point x="-249" y="1672"/>
      <point x="-224" y="1643"/>
      <point x="-224" y="1584" type="curve" smooth="yes"/>
      <point x="-224" y="1526"/>
      <point x="-249" y="1496"/>
      <point x="-298" y="1496" type="curve" smooth="yes"/>
      <point x="-346" y="1496"/>
      <point x="-370" y="1526"/>
      <point x="-370" y="1584" type="curve" smooth="yes"/>
      <point x="-370" y="1643"/>
      <point x="-346" y="1672"/>
    </contour>
    <contour>
      <point x="49" y="8" type="move" name="x12"/>
    </contour>
    <contour>
      <point x="-424" y="1282" type="move" name="_mark0"/>
    </contour>
  </outline>
</glyph>
<glyph name="visargadeva" format="1">
  <advance width="270"/>
  <unicode hex="0903"/>
  <outline>
    <contour>
      <point x="284" y="1198" type="line"/>
      <point x="-10" y="1198" type="line"/>
      <point x="-10" y="1274" type="line"/>
      <point x="284" y="1274" type="line"/>
    </contour>
    <component base="anusvaradeva" xOffset="397" yOffset="-1270"/>
    <component base="anusvaradeva" xOffset="400" yOffset="-748"/>
  </outline>
</glyph>
<glyph name="adeva" format="1">
  <advance width="1554"/>
  <unicode hex="0905"/>
  <outline>
    <contour>
      <point x="359" y="724" type="line"/>
      <point x="338" y="799" type="line"/>
      <point x="349" y="799" type="line" smooth="yes"/>
      <point x="665" y="799"/>
      <point x="751" y="898"/>
      <point x="751" y="1026" type="curve" smooth="yes"/>
      <point x="751" y="1126"/>
      <point x="678" y="1204"/>
      <point x="533" y="1204" type="curve" smooth="yes"/>
      <point x="427" y="1204"/>
      <point x="321" y="1166"/>
      <point x="247" y="1116" type="curve"/>
      <point x="215" y="1187" type="line"/>
      <point x="292" y="1232"/>
      <point x="397" y="1280"/>
      <point x="532" y="1280" type="curve" smooth="yes"/>
      <point x="715" y="1280"/>
      <point x="828" y="1185"/>
      <point x="828" y="1007" type="curve" smooth="yes"/>
      <point x="828" y="854"/>
      <point x="704" y="724"/>
      <point x="367" y="724" type="curve" smooth="yes"/>
    </contour>
    <contour>
      <point x="622" y="820" type="line"/>
      <point x="791" y="717"/>
      <point x="879" y="629"/>
      <point x="879" y="461" type="curve" smooth="yes"/>
      <point x="879" y="309"/>
      <point x="758" y="170"/>
      <point x="564" y="170" type="curve" smooth="yes"/>
      <point x="418" y="170"/>
      <point x="298" y="224"/>
      <point x="143" y="358" type="curve"/>
      <point x="172" y="432" type="line"/>
      <point x="304" y="308"/>
      <point x="430" y="255"/>
      <point x="541" y="255" type="curve" smooth="yes"/>
      <point x="705" y="255"/>
      <point x="799" y="346"/>
      <point x="799" y="476" type="curve" smooth="yes"/>
      <point x="799" y="581"/>
      <point x="722" y="688"/>
      <point x="563" y="759" type="curve"/>
    </contour>
    <contour>
      <point x="792" y="651" type="line"/>
      <point x="851" y="630"/>
      <point x="946" y="621"/>
      <point x="1001" y="621" type="curve" smooth="yes"/>
      <point x="1063" y="621"/>
      <point x="1165" y="638"/>
      <point x="1227" y="679" type="curve"/>
      <point x="1227" y="590" type="line"/>
      <point x="1181" y="564"/>
      <point x="1077" y="548"/>
      <point x="1013" y="548" type="curve" smooth="yes"/>
      <point x="945" y="548"/>
      <point x="847" y="564"/>
      <point x="792" y="580" type="curve"/>
    </contour>
    <contour>
      <point x="1215" y="1226" type="line"/>
      <point x="1304" y="1226" type="line"/>
      <point x="1304" y="0" type="line"/>
      <point x="1215" y="0" type="line"/>
    </contour>
    <contour>
      <point x="1562" y="1198" type="line"/>
      <point x="977" y="1198" type="line"/>
      <point x="977" y="1274" type="line"/>
      <point x="1562" y="1274" type="line"/>
    </contour>
  </outline>
</glyph>
<glyph name="aadeva" format="1">
  <advance width="2063"/>
  <unicode hex="0906"/>
  <outline>
    <contour>
      <point x="328" y="705" type="line"/>
      <point x="311" y="779" type="line"/>
      <point x="316" y="779" type="line" smooth="yes"/>
      <point x="587" y="779"/>
      <point x="713" y="890"/>
      <point x="713" y="1015" type="curve" smooth="yes"/>
      <point x="713" y="1125"/>
      <point x="639" y="1203"/>
      <point x="493" y="1203" type="curve" smooth="yes"/>
      <point x="395" y="1203"/>
      <point x="298" y="1168"/>
      <point x="224" y="1117" type="curve"/>
      <point x="191" y="1191" type="line"/>
      <point x="268" y="1242"/>
      <point x="375" y="1281"/>
      <point x="487" y="1281" type="curve" smooth="yes"/>
      <point x="691" y="1281"/>
      <point x="793" y="1171"/>
      <point x="793" y="1015" type="curve" smooth="yes"/>
      <point x="793" y="841"/>
      <point x="637" y="705"/>
      <point x="334" y="705" type="curve" smooth="yes"/>
    </contour>
    <contour>
      <point x="583" y="815" type="line"/>
      <point x="759" y="727"/>
      <point x="835" y="621"/>
      <point x="835" y="466" type="curve" smooth="yes"/>
      <point x="835" y="304"/>
      <point x="707" y="173"/>
      <point x="513" y="173" type="curve" smooth="yes"/>
      <point x="364" y="173"/>
      <point x="243" y="233"/>
      <point x="123" y="329" type="curve"/>
      <point x="151" y="404" type="line"/>
      <point x="272" y="303"/>
      <point x="383" y="253"/>
      <point x="503" y="253" type="curve" smooth="yes"/>
      <point x="659" y="253"/>
      <point x="754" y="354"/>
      <point x="754" y="478" type="curve" smooth="yes"/>
      <point x="754" y="593"/>
      <point x="682" y="696"/>
      <point x="523" y="760" type="curve"/>
    </contour>
    <contour>
      <point x="765" y="645" type="line"/>
      <point x="826" y="625"/>
      <point x="880" y="620"/>
      <point x="960" y="620" type="curve" smooth="yes"/>
      <point x="1043" y="620"/>
      <point x="1128" y="639"/>
      <point x="1190" y="679" type="curve"/>
      <point x="1190" y="588" type="line"/>
      <point x="1144" y="562"/>
      <point x="1061" y="541"/>
      <point x="962" y="541" type="curve" smooth="yes"/>
      <point x="888" y="541"/>
      <point x="820" y="551"/>
      <point x="765" y="564" type="curve"/>
    </contour>
    <contour>
      <point x="1727" y="1226" type="line"/>
      <point x="1816" y="1226" type="line"/>
      <point x="1816" y="0" type="line"/>
      <point x="1727" y="0" type="line"/>
    </contour>
    <contour>
      <point x="1178" y="1226" type="line"/>
      <point x="1267" y="1226" type="line"/>
      <point x="1267" y="0" type="line"/>
      <point x="1178" y="0" type="line"/>
    </contour>
    <contour>
      <point x="2083" y="1198" type="line"/>
      <point x="940" y="1198" type="line"/>
      <point x="940" y="1274" type="line"/>
      <point x="2083" y="1274" type="line"/>
    </contour>
  </outline>
</glyph>
<glyph name="ideva" format="1">
  <advance width="966"/>
  <unicode hex="0907"/>
  <outline>
    <contour>
      <point x="478" y="123" type="line"/>
      <point x="714" y="-133" type="line"/>
      <point x="659" y="-187" type="line"/>
      <point x="369" y="133" type="line"/>
      <point x="425" y="91" type="line"/>
      <point x="249" y="91"/>
      <point x="155" y="133"/>
      <point x="155" y="199" type="curve" smooth="yes"/>
      <point x="155" y="252"/>
      <point x="198" y="294"/>
      <point x="256" y="294" type="curve" smooth="yes"/>
      <point x="309" y="294"/>
      <point x="369" y="258"/>
      <point x="469" y="143" type="curve"/>
    </contour>
    <contour>
      <point x="682" y="1238" type="line"/>
      <point x="771" y="1238" type="line"/>
      <point x="771" y="875" type="line"/>
      <point x="405" y="875" type="line" smooth="yes"/>
      <point x="260" y="875"/>
      <point x="205" y="816"/>
      <point x="205" y="731" type="curve" smooth="yes"/>
      <point x="205" y="662"/>
      <point x="262" y="594"/>
      <point x="363" y="557" type="curve"/>
      <point x="302" y="557" type="line"/>
      <point x="391" y="599"/>
      <point x="479" y="623"/>
      <point x="573" y="623" type="curve" smooth="yes"/>
      <point x="743" y="623"/>
      <point x="854" y="527"/>
      <point x="854" y="386" type="curve" smooth="yes"/>
      <point x="854" y="222"/>
      <point x="694" y="93"/>
      <point x="415" y="93" type="curve"/>
      <point x="391" y="167" type="line"/>
      <point x="648" y="167"/>
      <point x="775" y="270"/>
      <point x="775" y="386" type="curve" smooth="yes"/>
      <point x="775" y="478"/>
      <point x="706" y="544"/>
      <point x="567" y="544" type="curve" smooth="yes"/>
      <point x="490" y="544"/>
      <point x="416" y="522"/>
      <point x="341" y="481" type="curve"/>
      <point x="336" y="481" type="line"/>
      <point x="190" y="549"/>
      <point x="126" y="641"/>
      <point x="126" y="747" type="curve" smooth="yes"/>
      <point x="126" y="860"/>
      <point x="211" y="951"/>
      <point x="407" y="951" type="curve" smooth="yes"/>
      <point x="721" y="951" type="line"/>
      <point x="682" y="912" type="line"/>
    </contour>
    <contour>
      <point x="996" y="1198" type="line"/>
      <point x="-30" y="1198" type="line"/>
      <point x="-30" y="1274" type="line"/>
      <point x="996" y="1274" type="line"/>
    </contour>
    <contour>
      <point x="75" y="8" type="move" name="x51"/>
    </contour>
  </outline>
</glyph>
<glyph name="udeva" format="1">
  <advance width="1047"/>
  <unicode hex="0909"/>
  <outline>
    <contour>
      <point x="313" y="668" type="line"/>
      <point x="294" y="742" type="line"/>
      <point x="299" y="742" type="line" smooth="yes"/>
      <point x="605" y="742"/>
      <point x="737" y="865"/>
      <point x="737" y="989" type="curve" smooth="yes"/>
      <point x="737" y="1077"/>
      <point x="696" y="1157"/>
      <point x="596" y="1220" type="curve"/>
      <point x="652" y="1268" type="line"/>
      <point x="767" y="1192"/>
      <point x="815" y="1104"/>
      <point x="815" y="986" type="curve" smooth="yes"/>
      <point x="815" y="818"/>
      <point x="656" y="668"/>
      <point x="317" y="668" type="curve" smooth="yes"/>
    </contour>
    <contour>
      <point x="617" y="780" type="line"/>
      <point x="813" y="677"/>
      <point x="902" y="544"/>
      <point x="902" y="389" type="curve" smooth="yes"/>
      <point x="902" y="202"/>
      <point x="752" y="64"/>
      <point x="548" y="64" type="curve" smooth="yes"/>
      <point x="395" y="64"/>
      <point x="264" y="116"/>
      <point x="104" y="230" type="curve"/>
      <point x="133" y="304" type="line"/>
      <point x="271" y="201"/>
      <point x="396" y="144"/>
      <point x="531" y="144" type="curve" smooth="yes"/>
      <point x="708" y="144"/>
      <point x="822" y="256"/>
      <point x="822" y="398" type="curve" smooth="yes"/>
      <point x="822" y="523"/>
      <point x="722" y="656"/>
      <point x="557" y="720" type="curve"/>
    </contour>
    <contour>
      <point x="-20" y="1198" type="curve"/>
      <point x="-20" y="1274" type="line"/>
      <point x="1067" y="1274" type="line"/>
      <point x="1067" y="1198" type="line"/>
      <point x="1067" y="1198"/>
      <point x="-20" y="1198"/>
    </contour>
    <contour>
      <point x="-71.0" y="8.0" type="move" name="x36"/>
    </contour>
    <contour>
      <point x="761.0" y="1282.0" type="move" name="mark0"/>
    </contour>
  </outline>
</glyph>
<glyph name="uudeva" format="1">
  <advance width="1496"/>
  <unicode hex="090A"/>
  <outline>
    <contour>
      <point x="786" y="566" type="curve"/>
      <point x="765" y="653" type="line"/>
      <point x="843" y="716"/>
      <point x="953" y="772"/>
      <point x="1078" y="772" type="curve" smooth="yes"/>
      <point x="1259" y="772"/>
      <point x="1369" y="667"/>
      <point x="1369" y="482" type="curve" smooth="yes"/>
      <point x="1369" y="365"/>
      <point x="1319" y="241"/>
      <point x="1235" y="124" type="curve"/>
      <point x="1165" y="156" type="line"/>
      <point x="1253" y="278"/>
      <point x="1296" y="390"/>
      <point x="1296" y="494" type="curve" smooth="yes"/>
      <point x="1296" y="610"/>
      <point x="1219" y="693"/>
      <point x="1086" y="693" type="curve" smooth="yes"/>
      <point x="976" y="693"/>
      <point x="870" y="639"/>
    </contour>
    <contour>
      <point x="1024" y="1198" type="curve"/>
      <point x="1024" y="1274" type="line"/>
      <point x="1455" y="1274" type="line"/>
      <point x="1455" y="1198" type="line"/>
      <point x="1455" y="1198"/>
      <point x="1024" y="1198"/>
    </contour>
    <component base="udeva"/>
    <contour>
      <point x="39.0" y="8.0" type="move" name="x53"/>
    </contour>
    <contour>
      <point x="871.0" y="1282.0" type="move" name="mark0"/>
    </contour>
  </outline>
</glyph>
<glyph name="rvocalicdeva" format="1">
  <advance width="1467"/>
  <unicode hex="090B"/>
  <outline>
    <contour>
      <point x="794" y="637" type="line"/>
      <point x="828" y="633"/>
      <point x="856" y="630"/>
      <point x="909" y="630" type="curve" smooth="yes"/>
      <point x="1027" y="630"/>
      <point x="1125" y="664"/>
      <point x="1194" y="739" type="curve"/>
      <point x="1164" y="670" type="line"/>
      <point x="1126" y="712"/>
      <point x="1117" y="735"/>
      <point x="1117" y="759" type="curve" smooth="yes"/>
      <point x="1117" y="786"/>
      <point x="1139" y="811"/>
      <point x="1202" y="810" type="curve" smooth="yes"/>
      <point x="1264" y="809"/>
      <point x="1298" y="786"/>
      <point x="1298" y="751" type="curve" smooth="yes"/>
      <point x="1298" y="683"/>
      <point x="1125" y="551"/>
      <point x="911" y="551" type="curve" smooth="yes"/>
      <point x="861" y="551"/>
      <point x="821" y="555"/>
      <point x="765" y="565" type="curve"/>
    </contour>
    <contour>
      <point x="1180" y="652" type="curve"/>
      <point x="1236" y="702" type="line"/>
      <point x="1316" y="589"/>
      <point x="1376" y="473"/>
      <point x="1376" y="382" type="curve" smooth="yes"/>
      <point x="1376" y="261"/>
      <point x="1297" y="174"/>
      <point x="1116" y="131" type="curve"/>
      <point x="1080" y="197" type="line"/>
      <point x="1246" y="238"/>
      <point x="1299" y="300"/>
      <point x="1299" y="393" type="curve" smooth="yes"/>
      <point x="1299" y="459"/>
      <point x="1262" y="540"/>
    </contour>
    <contour>
      <point x="1040" y="1198" type="line"/>
      <point x="1040" y="1274" type="line"/>
      <point x="1487" y="1274" type="line"/>
      <point x="1487" y="1198" type="line"/>
    </contour>
    <component base="taradeva"/>
    <contour>
      <point x="-26" y="-30" type="move" name="x73"/>
    </contour>
    <contour>
      <point x="756" y="1244" type="move" name="mark0"/>
    </contour>
  </outline>
</glyph>
<glyph name="lvocalicdeva" format="1">
  <advance width="1321"/>
  <unicode hex="090C"/>
  <outline>
    <contour>
      <point x="761" y="687" type="curve"/>
      <point x="711" y="627" type="line"/>
      <point x="598" y="748"/>
      <point x="492" y="805"/>
      <point x="375" y="805" type="curve" smooth="yes"/>
      <point x="237" y="805"/>
      <point x="140" y="699"/>
      <point x="140" y="569" type="curve" smooth="yes"/>
      <point x="140" y="412"/>
      <point x="216" y="283"/>
      <point x="427" y="94" type="curve"/>
      <point x="366" y="42" type="line"/>
      <point x="167" y="226"/>
      <point x="58" y="385"/>
      <point x="58" y="582" type="curve" smooth="yes"/>
      <point x="58" y="750"/>
      <point x="180" y="886"/>
      <point x="371" y="886" type="curve" smooth="yes"/>
      <point x="515" y="886"/>
      <point x="637" y="821"/>
    </contour>
    <contour>
      <point x="-20" y="1198" type="curve"/>
      <point x="-20" y="1274" type="line"/>
      <point x="1341" y="1274" type="line"/>
      <point x="1341" y="1198" type="line"/>
      <point x="1341" y="1198"/>
      <point x="-20" y="1198"/>
    </contour>
    <contour>
      <point x="952" y="1226" type="line"/>
      <point x="1041" y="1226" type="line"/>
      <point x="1041" y="815" type="line"/>
      <point x="952" y="815" type="line"/>
    </contour>
    <contour>
      <point x="1146" y="232" type="curve"/>
      <point x="1080.0" y="232.0" type="line"/>
      <point x="941.0" y="232.0"/>
      <point x="884" y="157"/>
      <point x="884" y="85" type="curve" smooth="yes"/>
      <point x="884" y="12"/>
      <point x="942.0" y="-44.0"/>
      <point x="1047.0" y="-44.0" type="curve" smooth="yes"/>
      <point x="1104.0" y="-44.0"/>
      <point x="1144.0" y="-37.0"/>
      <point x="1216.0" y="-5.0" type="curve"/>
      <point x="1232.0" y="-76.0" type="line"/>
      <point x="1167.0" y="-104.0"/>
      <point x="1116.0" y="-116.0"/>
      <point x="1047.0" y="-116.0" type="curve" smooth="yes"/>
      <point x="912.0" y="-116.0"/>
      <point x="811" y="-30"/>
      <point x="811" y="92" type="curve" smooth="yes"/>
      <point x="811" y="207"/>
      <point x="903.0" y="305.0"/>
      <point x="1070.0" y="305.0" type="curve" smooth="yes"/>
      <point x="1085.0" y="305.0"/>
      <point x="1106.0" y="305.0"/>
      <point x="1124.0" y="305.0" type="curve"/>
      <point x="1086" y="287" type="line"/>
      <point x="1137" y="353"/>
      <point x="1189" y="452"/>
      <point x="1189" y="556" type="curve" smooth="yes"/>
      <point x="1189" y="690"/>
      <point x="1120" y="804"/>
      <point x="981" y="804" type="curve" smooth="yes"/>
      <point x="833" y="804"/>
      <point x="698" y="672"/>
      <point x="649" y="382" type="curve"/>
      <point x="576" y="412" type="line"/>
      <point x="624" y="707"/>
      <point x="775" y="886"/>
      <point x="973" y="886" type="curve" smooth="yes"/>
      <point x="1164" y="886"/>
      <point x="1267" y="731"/>
      <point x="1267" y="553" type="curve" smooth="yes"/>
      <point x="1267" y="421"/>
      <point x="1208" y="314"/>
    </contour>
    <contour>
      <point x="20.0" y="-30.0" type="move" name="x78"/>
    </contour>
    <contour>
      <point x="983.0" y="1244.0" type="move" name="mark0"/>
    </contour>
  </outline>
</glyph>
<glyph name="edeva" format="1">
  <advance width="1081"/>
  <unicode hex="090F"/>
  <outline>
    <contour>
      <point x="849" y="1251" type="line"/>
      <point x="849" y="744" type="line" smooth="yes"/>
      <point x="849" y="672"/>
      <point x="822" y="596"/>
      <point x="763" y="505" type="curve"/>
      <point x="683" y="553" type="line"/>
      <point x="739" y="637"/>
      <point x="760" y="693"/>
      <point x="760" y="818" type="curve" smooth="yes"/>
      <point x="760" y="1251" type="line"/>
    </contour>
    <contour>
      <point x="-27" y="1198" type="curve"/>
      <point x="-27" y="1274" type="line"/>
      <point x="1088" y="1274" type="line"/>
      <point x="1088" y="1198" type="line"/>
      <point x="1088" y="1198"/>
      <point x="-27" y="1198"/>
    </contour>
    <contour>
      <point x="176" y="1251" type="line"/>
      <point x="265" y="1251" type="line"/>
      <point x="265" y="717" type="line" smooth="yes"/>
      <point x="265" y="597"/>
      <point x="298" y="540"/>
      <point x="374" y="488" type="curve" smooth="yes"/>
      <point x="750" y="228" type="line" smooth="yes"/>
      <point x="852" y="158"/>
      <point x="881" y="101"/>
      <point x="881" y="33" type="curve" smooth="yes"/>
      <point x="881" y="-20"/>
      <point x="864" y="-64"/>
      <point x="822" y="-146" type="curve"/>
      <point x="742" y="-114" type="line"/>
      <point x="778" y="-55"/>
      <point x="796" y="-6"/>
      <point x="796" y="31" type="curve" smooth="yes"/>
      <point x="796" y="77"/>
      <point x="771" y="117"/>
      <point x="699" y="166" type="curve" smooth="yes"/>
      <point x="341" y="411" type="line" smooth="yes"/>
      <point x="213" y="498"/>
      <point x="176" y="580"/>
      <point x="176" y="740" type="curve" smooth="yes"/>
    </contour>
    <contour>
      <point x="-86" y="8" type="move" name="x44"/>
    </contour>
    <contour>
      <point x="811" y="1282" type="move" name="mark0"/>
    </contour>
  </outline>
</glyph>
<glyph name="kadeva" format="1">
  <advance width="1431"/>
  <unicode hex="0915"/>
  <outline>
    <contour>
      <point x="773" y="631" type="curve"/>
      <point x="752" y="718" type="line"/>
      <point x="822" y="774"/>
      <point x="936" y="835"/>
      <point x="1050" y="835" type="curve" smooth="yes"/>
      <point x="1242" y="835"/>
      <point x="1339" y="708"/>
      <point x="1339" y="547" type="curve" smooth="yes"/>
      <point x="1339" y="419"/>
      <point x="1288" y="303"/>
      <point x="1207" y="196" type="curve"/>
      <point x="1133" y="228" type="line"/>
      <point x="1214" y="333"/>
      <point x="1262" y="447"/>
      <point x="1262" y="549" type="curve" smooth="yes"/>
      <point x="1262" y="676"/>
      <point x="1189" y="755"/>
      <point x="1056" y="755" type="curve" smooth="yes"/>
      <point x="953" y="755"/>
      <point x="849" y="696"/>
    </contour>
    <contour>
      <point x="-20" y="1198" type="line"/>
      <point x="-20" y="1274" type="line"/>
      <point x="1451" y="1274" type="line"/>
      <point x="1451" y="1198" type="line"/>
    </contour>
    <contour>
      <point x="715" y="561" type="curve"/>
      <point x="715" y="457" type="line"/>
      <point x="633" y="377"/>
      <point x="531" y="318"/>
      <point x="406" y="318" type="curve" smooth="yes"/>
      <point x="222" y="318"/>
      <point x="96" y="465"/>
      <point x="96" y="638" type="curve" smooth="yes"/>
      <point x="96" y="781"/>
      <point x="200" y="906"/>
      <point x="402" y="906" type="curve" smooth="yes"/>
      <point x="527" y="906"/>
      <point x="624" y="867"/>
      <point x="716" y="811" type="curve"/>
      <point x="716" y="724" type="line"/>
      <point x="605" y="799"/>
      <point x="522" y="826"/>
      <point x="412" y="826" type="curve" smooth="yes"/>
      <point x="248" y="826"/>
      <point x="175" y="735"/>
      <point x="175" y="621" type="curve" smooth="yes"/>
      <point x="175" y="495"/>
      <point x="266" y="394"/>
      <point x="401" y="394" type="curve" smooth="yes"/>
      <point x="520" y="394"/>
      <point x="620" y="456"/>
    </contour>
    <contour>
      <point x="692" y="1226" type="line"/>
      <point x="781" y="1226" type="line"/>
      <point x="781" y="0" type="line"/>
      <point x="692" y="0" type="line"/>
    </contour>
    <contour>
      <point x="735.0" y="8.0" type="move" name="x46"/>
    </contour>
    <contour>
      <point x="-106.0" y="8.0" type="move" name="x47"/>
    </contour>
    <contour>
      <point x="735.0" y="8.0" type="move" name="mark0"/>
    </contour>
  </outline>
</glyph>
<glyph name="khadeva" format="1">
  <advance width="1593"/>
  <unicode hex="0916"/>
  <outline>
    <contour>
      <point x="1283" y="635" type="curve"/>
      <point x="1283" y="538" type="line"/>
      <point x="1212" y="483"/>
      <point x="1121" y="452"/>
      <point x="1032" y="452" type="curve" smooth="yes"/>
      <point x="868" y="452"/>
      <point x="747" y="568"/>
      <point x="747" y="721" type="curve" smooth="yes"/>
      <point x="747" y="854"/>
      <point x="849" y="957"/>
      <point x="1021" y="957" type="curve" smooth="yes"/>
      <point x="1125" y="957"/>
      <point x="1210" y="933"/>
      <point x="1304" y="883" type="curve"/>
      <point x="1304" y="798" type="line"/>
      <point x="1225" y="852"/>
      <point x="1128" y="882"/>
      <point x="1036" y="882" type="curve" smooth="yes"/>
      <point x="884" y="882"/>
      <point x="823" y="800"/>
      <point x="823" y="708" type="curve" smooth="yes"/>
      <point x="823" y="605"/>
      <point x="906" y="526"/>
      <point x="1029" y="526" type="curve" smooth="yes"/>
      <point x="1117" y="526"/>
      <point x="1201" y="558"/>
    </contour>
    <contour>
      <point x="213" y="633" type="line"/>
      <point x="415" y="706"/>
      <point x="469" y="803"/>
      <point x="469" y="990" type="curve" smooth="yes"/>
      <point x="469" y="1228" type="line"/>
      <point x="558" y="1228" type="line"/>
      <point x="558" y="977" type="line" smooth="yes"/>
      <point x="558" y="804"/>
      <point x="504" y="653"/>
      <point x="256" y="562" type="curve"/>
    </contour>
    <contour>
      <point x="-30" y="1198" type="line"/>
      <point x="-30" y="1274" type="line"/>
      <point x="1623" y="1274" type="line"/>
      <point x="1623" y="1198" type="line"/>
    </contour>
    <contour>
      <point x="246" y="604" type="line"/>
      <point x="303" y="505"/>
      <point x="349" y="443"/>
      <point x="423" y="369" type="curve" smooth="yes"/>
      <point x="557" y="235"/>
      <point x="714" y="170"/>
      <point x="899" y="170" type="curve" smooth="yes"/>
      <point x="1025" y="170"/>
      <point x="1154" y="193"/>
      <point x="1263" y="248" type="curve"/>
      <point x="1263" y="160" type="line"/>
      <point x="1171" y="115"/>
      <point x="1048" y="91"/>
      <point x="908" y="91" type="curve" smooth="yes"/>
      <point x="680" y="91"/>
      <point x="519" y="161"/>
      <point x="352" y="328" type="curve" smooth="yes"/>
      <point x="265" y="415"/>
      <point x="160" y="582"/>
      <point x="103" y="690" type="curve" smooth="yes"/>
      <point x="88" y="719"/>
      <point x="76" y="746"/>
      <point x="76" y="764" type="curve" smooth="yes"/>
      <point x="76" y="787"/>
      <point x="92" y="801"/>
      <point x="111" y="801" type="curve" smooth="yes"/>
      <point x="130" y="801"/>
      <point x="145" y="791"/>
      <point x="162" y="760" type="curve" smooth="yes"/>
      <point x="235" y="626" type="line"/>
    </contour>
    <contour>
      <point x="1254" y="1226" type="line"/>
      <point x="1343" y="1226" type="line"/>
      <point x="1343" y="0" type="line"/>
      <point x="1254" y="0" type="line"/>
    </contour>
    <contour>
      <point x="1254.0" y="1274.0" type="move" name="top"/>
    </contour>
  </outline>
</glyph>
<glyph name="gadeva" format="1">
  <advance width="1173"/>
  <unicode hex="0917"/>
  <outline>
    <contour>
      <point x="384" y="1238" type="line"/>
      <point x="384" y="1238"/>
      <point x="384" y="483"/>
      <point x="384" y="483" type="curve" smooth="yes"/>
      <point x="384" y="454"/>
      <point x="375" y="444"/>
      <point x="346" y="444" type="curve" smooth="yes"/>
      <point x="308" y="444"/>
      <point x="171" y="599"/>
      <point x="171" y="639" type="curve" smooth="yes"/>
      <point x="171" y="660"/>
      <point x="181" y="674"/>
      <point x="216" y="674" type="curve" smooth="yes"/>
      <point x="322" y="674" type="line"/>
      <point x="295" y="645" type="line"/>
      <point x="295" y="1238" type="line"/>
    </contour>
    <contour>
      <point x="834" y="1226" type="line"/>
      <point x="923" y="1226" type="line"/>
      <point x="923" y="0" type="line"/>
      <point x="834" y="0" type="line"/>
    </contour>
    <contour>
      <point x="1193" y="1198" type="line"/>
      <point x="1193" y="1198"/>
      <point x="-20" y="1198"/>
      <point x="-20" y="1198" type="curve"/>
      <point x="-20" y="1274" type="line"/>
      <point x="-20" y="1274"/>
      <point x="1193" y="1274"/>
      <point x="1193" y="1274" type="curve"/>
    </contour>
  </outline>
</glyph>
<glyph name="ghadeva" format="1">
  <advance width="1252"/>
  <unicode hex="0918"/>
  <outline>
    <contour>
      <point x="409" y="769" type="curve"/>
      <point x="192" y="823"/>
      <point x="111" y="945"/>
      <point x="111" y="1077" type="curve" smooth="yes"/>
      <point x="111" y="1133"/>
      <point x="127" y="1190"/>
      <point x="159" y="1249" type="curve"/>
      <point x="251" y="1232" type="line"/>
      <point x="213" y="1178"/>
      <point x="196" y="1120"/>
      <point x="196" y="1065" type="curve" smooth="yes"/>
      <point x="196" y="964"/>
      <point x="269" y="867"/>
      <point x="493" y="832" type="curve"/>
      <point x="493" y="832"/>
      <point x="409" y="769"/>
    </contour>
    <contour>
      <point x="1272" y="1198"/>
      <point x="-20" y="1198"/>
      <point x="-20" y="1198" type="curve"/>
      <point x="-20" y="1274" type="line"/>
      <point x="1272" y="1274" type="line"/>
      <point x="1272" y="1198" type="line"/>
    </contour>
    <contour>
      <point x="935" y="523" type="curve"/>
      <point x="935" y="416" type="line"/>
      <point x="856" y="344"/>
      <point x="735" y="288"/>
      <point x="597" y="288" type="curve" smooth="yes"/>
      <point x="406" y="288"/>
      <point x="269" y="411"/>
      <point x="269" y="579" type="curve" smooth="yes"/>
      <point x="269" y="726"/>
      <point x="375" y="864"/>
      <point x="641" y="864" type="curve" smooth="yes"/>
      <point x="655" y="864" type="line"/>
      <point x="678" y="793" type="line"/>
      <point x="663" y="793" type="line" smooth="yes"/>
      <point x="434" y="793"/>
      <point x="349" y="689"/>
      <point x="349" y="567" type="curve" smooth="yes"/>
      <point x="349" y="455"/>
      <point x="449" y="364"/>
      <point x="580" y="364" type="curve" smooth="yes"/>
      <point x="715" y="364"/>
      <point x="831" y="412"/>
    </contour>
    <contour>
      <point x="913" y="1226" type="line"/>
      <point x="1002" y="1226" type="line"/>
      <point x="1002" y="0" type="line"/>
      <point x="913" y="0" type="line"/>
    </contour>
  </outline>
</glyph>
<glyph name="ngadeva" format="1">
  <advance width="1213"/>
  <unicode hex="0919"/>
  <outline>
    <contour>
      <point x="1054" y="1198" type="line"/>
      <point x="1054" y="1274" type="line"/>
      <point x="1243" y="1274" type="line"/>
      <point x="1243" y="1198" type="line"/>
    </contour>
    <contour>
      <point x="1030" y="800" type="curve" smooth="yes"/>
      <point x="1079" y="800"/>
      <point x="1104" y="771"/>
      <point x="1104" y="712" type="curve" smooth="yes"/>
      <point x="1104" y="654"/>
      <point x="1079" y="624"/>
      <point x="1030" y="624" type="curve" smooth="yes"/>
      <point x="982" y="624"/>
      <point x="958" y="654"/>
      <point x="958" y="712" type="curve" smooth="yes"/>
      <point x="958" y="771"/>
      <point x="982" y="800"/>
    </contour>
    <contour>
      <point x="1054" y="1198" type="line"/>
      <point x="1054" y="1274" type="line"/>
      <point x="1243" y="1274" type="line"/>
      <point x="1243" y="1198" type="line"/>
    </contour>
    <contour>
      <point x="1030" y="800" type="curve" smooth="yes"/>
      <point x="1079" y="800"/>
      <point x="1104" y="771"/>
      <point x="1104" y="712" type="curve" smooth="yes"/>
      <point x="1104" y="654"/>
      <point x="1079" y="624"/>
      <point x="1030" y="624" type="curve" smooth="yes"/>
      <point x="982" y="624"/>
      <point x="958" y="654"/>
      <point x="958" y="712" type="curve" smooth="yes"/>
      <point x="958" y="771"/>
      <point x="982" y="800"/>
    </contour>
    <contour>
      <point x="782" y="1238" type="line"/>
      <point x="871" y="1238" type="line"/>
      <point x="871" y="875" type="line"/>
      <point x="453" y="875" type="line" smooth="yes"/>
      <point x="319" y="875"/>
      <point x="265" y="811"/>
      <point x="265" y="730" type="curve" smooth="yes"/>
      <point x="265" y="656"/>
      <point x="331" y="581"/>
      <point x="435" y="548" type="curve"/>
      <point x="376" y="548" type="line"/>
      <point x="467" y="590"/>
      <point x="553" y="623"/>
      <point x="666" y="623" type="curve" smooth="yes"/>
      <point x="845" y="623"/>
      <point x="977" y="524"/>
      <point x="977" y="359" type="curve" smooth="yes"/>
      <point x="977" y="190"/>
      <point x="832" y="72"/>
      <point x="616" y="72" type="curve" smooth="yes"/>
      <point x="418" y="72"/>
      <point x="298" y="121"/>
      <point x="119" y="226" type="curve"/>
      <point x="143" y="303" type="line"/>
      <point x="302" y="196"/>
      <point x="424" y="147"/>
      <point x="606" y="147" type="curve" smooth="yes"/>
      <point x="795" y="147"/>
      <point x="899" y="240"/>
      <point x="899" y="363" type="curve" smooth="yes"/>
      <point x="899" y="477"/>
      <point x="808" y="544"/>
      <point x="662" y="544" type="curve" smooth="yes"/>
      <point x="564" y="544"/>
      <point x="480" y="512"/>
      <point x="411" y="476" type="curve"/>
      <point x="406" y="476" type="line"/>
      <point x="259" y="542"/>
      <point x="187" y="638"/>
      <point x="187" y="743" type="curve" smooth="yes"/>
      <point x="187" y="846"/>
      <point x="265" y="951"/>
      <point x="462" y="951" type="curve" smooth="yes"/>
      <point x="821" y="951" type="line"/>
      <point x="782" y="912" type="line"/>
    </contour>
    <contour>
      <point x="1152" y="1198" type="line"/>
      <point x="-30" y="1198" type="line"/>
      <point x="-30" y="1274" type="line"/>
      <point x="1152" y="1274" type="line"/>
    </contour>
    <component base="ddadeva"/>
    <contour>
      <point x="782" y="1274" type="move" name="top"/>
    </contour>
    <contour>
      <point x="536" y="75" type="move" name="btm"/>
    </contour>
  </outline>
</glyph>
<glyph name="cadeva" format="1">
  <advance width="1308"/>
  <unicode hex="091A"/>
  <outline>
    <contour>
      <point x="94" y="810" type="curve"/>
      <point x="94" y="886" type="line"/>
      <point x="786" y="886" type="line"/>
      <point x="786" y="810" type="line"/>
      <point x="786" y="810"/>
      <point x="94" y="810"/>
    </contour>
    <contour>
      <point x="998" y="527" type="curve"/>
      <point x="998" y="416" type="line"/>
      <point x="927" y="342"/>
      <point x="806" y="281"/>
      <point x="669" y="281" type="curve" smooth="yes"/>
      <point x="462" y="281"/>
      <point x="330" y="398"/>
      <point x="330" y="566" type="curve" smooth="yes"/>
      <point x="330" y="736"/>
      <point x="457" y="866"/>
      <point x="674" y="866" type="curve"/>
      <point x="714" y="810" type="line"/>
      <point x="524" y="810"/>
      <point x="413" y="691"/>
      <point x="413" y="559" type="curve" smooth="yes"/>
      <point x="413" y="439"/>
      <point x="504" y="361"/>
      <point x="664" y="361" type="curve" smooth="yes"/>
      <point x="785" y="361"/>
      <point x="905" y="415"/>
    </contour>
    <contour>
      <point x="-30" y="1198" type="curve"/>
      <point x="-30" y="1274" type="line"/>
      <point x="1338" y="1274" type="line"/>
      <point x="1338" y="1198" type="line"/>
      <point x="1338" y="1198"/>
      <point x="-30" y="1198"/>
    </contour>
    <contour>
      <point x="969" y="1226" type="line"/>
      <point x="1058" y="1226" type="line"/>
      <point x="1058" y="0" type="line"/>
      <point x="969" y="0" type="line"/>
    </contour>
  </outline>
</glyph>
<glyph name="chadeva" format="1">
  <advance width="1411"/>
  <unicode hex="091B"/>
  <outline>
    <contour>
      <point x="622" y="764" type="curve"/>
      <point x="644" y="690" type="line"/>
      <point x="642" y="690"/>
      <point x="639" y="690"/>
      <point x="637" y="690" type="curve" smooth="yes"/>
      <point x="377" y="690"/>
      <point x="302" y="562"/>
      <point x="302" y="439" type="curve" smooth="yes"/>
      <point x="302" y="299"/>
      <point x="427" y="184"/>
      <point x="640" y="184" type="curve" smooth="yes"/>
      <point x="941" y="184"/>
      <point x="1212" y="432"/>
      <point x="1212" y="684" type="curve" smooth="yes"/>
      <point x="1212" y="824"/>
      <point x="1123" y="913"/>
      <point x="1031" y="913" type="curve" smooth="yes"/>
      <point x="945" y="913"/>
      <point x="887" y="844"/>
      <point x="887" y="739" type="curve" smooth="yes"/>
      <point x="887" y="634"/>
      <point x="970" y="515"/>
      <point x="1164" y="406" type="curve"/>
      <point x="1122" y="342" type="line"/>
      <point x="918" y="456"/>
      <point x="807" y="604"/>
      <point x="807" y="753" type="curve" smooth="yes"/>
      <point x="807" y="887"/>
      <point x="900" y="992"/>
      <point x="1026" y="992" type="curve" smooth="yes"/>
      <point x="1158" y="992"/>
      <point x="1290" y="882"/>
      <point x="1290" y="678" type="curve" smooth="yes"/>
      <point x="1290" y="398"/>
      <point x="983" y="101"/>
      <point x="656" y="101" type="curve" smooth="yes"/>
      <point x="360" y="101"/>
      <point x="217" y="265"/>
      <point x="217" y="453" type="curve" smooth="yes"/>
      <point x="217" y="613"/>
      <point x="330" y="764"/>
      <point x="617" y="764" type="curve" smooth="yes"/>
      <point x="619" y="764"/>
      <point x="620" y="764"/>
    </contour>
    <contour>
      <point x="491" y="730" type="curve"/>
      <point x="408" y="667" type="line"/>
      <point x="223" y="727"/>
      <point x="139" y="839"/>
      <point x="139" y="978" type="curve" smooth="yes"/>
      <point x="139" y="1095"/>
      <point x="218" y="1223"/>
      <point x="400" y="1266" type="curve"/>
      <point x="487" y="1219" type="line"/>
      <point x="292" y="1186"/>
      <point x="224" y="1055"/>
      <point x="224" y="965" type="curve" smooth="yes"/>
      <point x="224" y="858"/>
      <point x="307" y="760"/>
    </contour>
    <contour>
      <point x="1441" y="1198" type="line"/>
      <point x="-30" y="1198" type="line"/>
      <point x="-30" y="1274" type="line"/>
      <point x="1441" y="1274" type="line"/>
    </contour>
    <contour>
      <point x="991" y="1264" type="line"/>
      <point x="1080" y="1264" type="line"/>
      <point x="1080" y="961" type="line"/>
      <point x="991" y="961" type="line"/>
    </contour>
    <contour>
      <point x="612" y="99" type="move" name="btm"/>
    </contour>
    <contour>
      <point x="991" y="1274" type="move" name="top"/>
    </contour>
  </outline>
</glyph>
<glyph name="jadeva" format="1">
  <advance width="1491"/>
  <unicode hex="091C"/>
  <outline>
    <contour>
      <point x="-20" y="1198" type="curve"/>
      <point x="-20" y="1274" type="line"/>
      <point x="1511" y="1274" type="line"/>
      <point x="1511" y="1198" type="line"/>
      <point x="1511" y="1198"/>
      <point x="-20" y="1198"/>
    </contour>
    <contour>
      <point x="599" y="810" type="line"/>
      <point x="597" y="837" type="line"/>
      <point x="756" y="771"/>
      <point x="876" y="631"/>
      <point x="876" y="476" type="curve" smooth="yes"/>
      <point x="876" y="318"/>
      <point x="771" y="199"/>
      <point x="590" y="199" type="curve" smooth="yes"/>
      <point x="408" y="199"/>
      <point x="243" y="332"/>
      <point x="81" y="604" type="curve"/>
      <point x="132" y="667" type="line"/>
      <point x="292" y="396"/>
      <point x="438" y="279"/>
      <point x="583" y="279" type="curve" smooth="yes"/>
      <point x="724" y="279"/>
      <point x="797" y="365"/>
      <point x="797" y="482" type="curve" smooth="yes"/>
      <point x="797" y="615"/>
      <point x="667" y="756"/>
      <point x="467" y="817" type="curve"/>
      <point x="467" y="886" type="line"/>
      <point x="1170" y="886" type="line"/>
      <point x="1170" y="810" type="line"/>
    </contour>
    <contour>
      <point x="1152" y="1226" type="line"/>
      <point x="1241" y="1226" type="line"/>
      <point x="1241" y="0" type="line"/>
      <point x="1152" y="0" type="line"/>
    </contour>
  </outline>
</glyph>
<glyph name="jhadeva" format="1">
  <advance width="1489"/>
  <unicode hex="091D"/>
  <outline>
    <contour>
      <point x="778" y="495" type="line"/>
      <point x="839" y="475"/>
      <point x="893" y="470"/>
      <point x="973" y="470" type="curve" smooth="yes"/>
      <point x="1056" y="470"/>
      <point x="1141" y="489"/>
      <point x="1203" y="529" type="curve"/>
      <point x="1203" y="438" type="line"/>
      <point x="1157" y="412"/>
      <point x="1074" y="391"/>
      <point x="975" y="391" type="curve" smooth="yes"/>
      <point x="901" y="391"/>
      <point x="833" y="401"/>
      <point x="778" y="414" type="curve"/>
    </contour>
    <contour>
      <point x="1150" y="1226" type="line"/>
      <point x="1239" y="1226" type="line"/>
      <point x="1239" y="0" type="line"/>
      <point x="1150" y="0" type="line"/>
    </contour>
    <contour>
      <point x="1519" y="1198" type="line"/>
      <point x="912" y="1198" type="line"/>
      <point x="912" y="1274" type="line"/>
      <point x="1519" y="1274" type="line"/>
    </contour>
    <component base="ideva"/>
    <contour>
      <point x="1150" y="1274" type="move" name="top"/>
    </contour>
  </outline>
</glyph>
<glyph name="nyadeva" format="1">
  <advance width="1535"/>
  <unicode hex="091E"/>
  <outline>
    <contour>
      <point x="818" y="647" type="line"/>
      <point x="879" y="627"/>
      <point x="933" y="622"/>
      <point x="1013" y="622" type="curve" smooth="yes"/>
      <point x="1096" y="622"/>
      <point x="1181" y="641"/>
      <point x="1243" y="681" type="curve"/>
      <point x="1243" y="590" type="line"/>
      <point x="1197" y="564"/>
      <point x="1114" y="543"/>
      <point x="1015" y="543" type="curve" smooth="yes"/>
      <point x="941" y="543"/>
      <point x="873" y="553"/>
      <point x="818" y="566" type="curve"/>
    </contour>
    <contour>
      <point x="880" y="567" type="curve" smooth="yes"/>
      <point x="880" y="397"/>
      <point x="754" y="256"/>
      <point x="580" y="256" type="curve" smooth="yes"/>
      <point x="407" y="256"/>
      <point x="276" y="326"/>
      <point x="83" y="524" type="curve"/>
      <point x="126" y="595" type="line"/>
      <point x="304" y="400"/>
      <point x="437" y="338"/>
      <point x="561" y="338" type="curve" smooth="yes"/>
      <point x="713" y="338"/>
      <point x="801" y="445"/>
      <point x="801" y="578" type="curve" smooth="yes"/>
      <point x="801" y="703"/>
      <point x="696" y="810"/>
      <point x="561" y="811" type="curve" smooth="yes"/>
      <point x="475" y="812"/>
      <point x="395" y="772"/>
      <point x="329" y="718" type="curve"/>
      <point x="286" y="786" type="line"/>
      <point x="357" y="842"/>
      <point x="443" y="889"/>
      <point x="551" y="890" type="curve" smooth="yes"/>
      <point x="743" y="892"/>
      <point x="880" y="753"/>
    </contour>
    <contour>
      <point x="-20" y="1198" type="curve"/>
      <point x="-20" y="1274" type="line"/>
      <point x="1555" y="1274" type="line"/>
      <point x="1555" y="1198" type="line"/>
      <point x="1555" y="1198"/>
      <point x="-20" y="1198"/>
    </contour>
    <contour>
      <point x="1196" y="1226" type="line"/>
      <point x="1285" y="1226" type="line"/>
      <point x="1285" y="0" type="line"/>
      <point x="1196" y="0" type="line"/>
    </contour>
  </outline>
</glyph>
<glyph name="ttadeva" format="1">
  <advance width="1110"/>
  <unicode hex="091F"/>
  <outline>
    <contour>
      <point x="734" y="1238" type="line"/>
      <point x="823" y="1238" type="line"/>
      <point x="823" y="810" type="line"/>
      <point x="605" y="810" type="line" smooth="yes"/>
      <point x="354" y="810"/>
      <point x="225" y="695"/>
      <point x="225" y="503" type="curve" smooth="yes"/>
      <point x="225" y="318"/>
      <point x="379" y="179"/>
      <point x="611" y="179" type="curve" smooth="yes"/>
      <point x="714" y="179"/>
      <point x="796" y="196"/>
      <point x="905" y="240" type="curve"/>
      <point x="929" y="162" type="line"/>
      <point x="809" y="114"/>
      <point x="728" y="100"/>
      <point x="617" y="100" type="curve" smooth="yes"/>
      <point x="332" y="100"/>
      <point x="140" y="279"/>
      <point x="140" y="519" type="curve" smooth="yes"/>
      <point x="140" y="736"/>
      <point x="299" y="886"/>
      <point x="570" y="886" type="curve" smooth="yes"/>
      <point x="773" y="886" type="line"/>
      <point x="734" y="855" type="line"/>
    </contour>
    <contour>
      <point x="1140" y="1198" type="line"/>
      <point x="-30" y="1198" type="line"/>
      <point x="-30" y="1274" type="line"/>
      <point x="1140" y="1274" type="line"/>
    </contour>
    <contour>
      <point x="16" y="8" type="move" name="x28"/>
    </contour>
    <contour>
      <point x="1208" y="8" type="move" name="x29"/>
    </contour>
    <contour>
      <point x="633" y="8" type="move" name="mark0"/>
    </contour>
  </outline>
</glyph>
<glyph name="tthadeva" format="1">
  <advance width="1180"/>
  <unicode hex="0920"/>
  <outline>
    <contour>
      <point x="925" y="511" type="curve" smooth="yes"/>
      <point x="925" y="635"/>
      <point x="840" y="767"/>
      <point x="699" y="810" type="curve"/>
      <point x="559" y="810" type="line" smooth="yes"/>
      <point x="317" y="810"/>
      <point x="196" y="709"/>
      <point x="196" y="512" type="curve" smooth="yes"/>
      <point x="196" y="349"/>
      <point x="333" y="200"/>
      <point x="577" y="200" type="curve" smooth="yes"/>
      <point x="803" y="200"/>
      <point x="925" y="332"/>
    </contour>
    <contour>
      <point x="1219" y="1198" type="line"/>
      <point x="-20" y="1198" type="line"/>
      <point x="-20" y="1274" type="line"/>
      <point x="1219" y="1274" type="line"/>
    </contour>
    <contour>
      <point x="674" y="1238" type="line"/>
      <point x="763" y="1238" type="line"/>
      <point x="763" y="836" type="line"/>
      <point x="728" y="882" type="line"/>
      <point x="893" y="813"/>
      <point x="1003" y="681"/>
      <point x="1003" y="502" type="curve" smooth="yes"/>
      <point x="1003" y="288"/>
      <point x="858" y="120"/>
      <point x="580" y="120" type="curve" smooth="yes"/>
      <point x="295" y="120"/>
      <point x="110" y="301"/>
      <point x="110" y="531" type="curve" smooth="yes"/>
      <point x="110" y="744"/>
      <point x="263" y="886"/>
      <point x="514" y="886" type="curve" smooth="yes"/>
      <point x="713" y="886" type="line"/>
      <point x="674" y="855" type="line"/>
    </contour>
    <contour>
      <point x="3" y="8" type="move" name="x34"/>
    </contour>
    <contour>
      <point x="1367" y="8" type="move" name="x35"/>
    </contour>
    <contour>
      <point x="621" y="8" type="move" name="mark0"/>
    </contour>
  </outline>
</glyph>
<glyph name="ddadeva" format="1">
  <advance width="1122"/>
  <unicode hex="0921"/>
  <outline>
    <contour>
      <point x="782" y="1238" type="line"/>
      <point x="871" y="1238" type="line"/>
      <point x="871" y="875" type="line"/>
      <point x="463" y="875" type="line" smooth="yes"/>
      <point x="329" y="875"/>
      <point x="275" y="811"/>
      <point x="275" y="730" type="curve" smooth="yes"/>
      <point x="275" y="656"/>
      <point x="335" y="588"/>
      <point x="435" y="552" type="curve"/>
      <point x="376" y="552" type="line"/>
      <point x="467" y="594"/>
      <point x="563" y="623"/>
      <point x="676" y="623" type="curve" smooth="yes"/>
      <point x="855" y="623"/>
      <point x="977" y="523"/>
      <point x="977" y="368" type="curve" smooth="yes"/>
      <point x="977" y="199"/>
      <point x="832" y="91"/>
      <point x="626" y="91" type="curve" smooth="yes"/>
      <point x="438" y="91"/>
      <point x="308" y="132"/>
      <point x="129" y="237" type="curve"/>
      <point x="153" y="314" type="line"/>
      <point x="312" y="207"/>
      <point x="444" y="166"/>
      <point x="616" y="166" type="curve" smooth="yes"/>
      <point x="795" y="166"/>
      <point x="899" y="249"/>
      <point x="899" y="372" type="curve" smooth="yes"/>
      <point x="899" y="476"/>
      <point x="818" y="544"/>
      <point x="672" y="544" type="curve" smooth="yes"/>
      <point x="574" y="544"/>
      <point x="480" y="516"/>
      <point x="411" y="480" type="curve"/>
      <point x="406" y="480" type="line"/>
      <point x="259" y="549"/>
      <point x="197" y="638"/>
      <point x="197" y="743" type="curve" smooth="yes"/>
      <point x="197" y="846"/>
      <point x="275" y="951"/>
      <point x="472" y="951" type="curve" smooth="yes"/>
      <point x="821" y="951" type="line"/>
      <point x="782" y="912" type="line"/>
    </contour>
    <contour>
      <point x="1142" y="1198" type="line"/>
      <point x="-20" y="1198" type="line"/>
      <point x="-20" y="1274" type="line"/>
      <point x="1142" y="1274" type="line"/>
    </contour>
    <contour>
      <point x="-231" y="8" type="move" name="x44"/>
    </contour>
    <contour>
      <point x="1288" y="8" type="move" name="x45"/>
    </contour>
    <contour>
      <point x="574" y="8" type="move" name="mark0"/>
    </contour>
  </outline>
</glyph>
<glyph name="ddhadeva" format="1">
  <advance width="1104"/>
  <unicode hex="0922"/>
  <outline>
    <contour>
      <point x="1124" y="1198" type="line"/>
      <point x="-20" y="1198" type="line"/>
      <point x="-20" y="1274" type="line"/>
      <point x="1124" y="1274" type="line"/>
    </contour>
    <contour>
      <point x="732" y="1228" type="line"/>
      <point x="821" y="1228" type="line"/>
      <point x="821" y="810" type="line"/>
      <point x="589" y="810" type="line" smooth="yes"/>
      <point x="343" y="810"/>
      <point x="224" y="707"/>
      <point x="224" y="517" type="curve" smooth="yes"/>
      <point x="224" y="334"/>
      <point x="390" y="174"/>
      <point x="632" y="174" type="curve" smooth="yes"/>
      <point x="838" y="174"/>
      <point x="912" y="253"/>
      <point x="912" y="338" type="curve" smooth="yes"/>
      <point x="912" y="408"/>
      <point x="856" y="470"/>
      <point x="759" y="470" type="curve" smooth="yes"/>
      <point x="652" y="470"/>
      <point x="598" y="403"/>
      <point x="598" y="311" type="curve" smooth="yes"/>
      <point x="598" y="252"/>
      <point x="616" y="204"/>
      <point x="654" y="155" type="curve"/>
      <point x="575" y="149" type="line"/>
      <point x="540" y="201"/>
      <point x="520" y="262"/>
      <point x="520" y="326" type="curve" smooth="yes"/>
      <point x="520" y="450"/>
      <point x="604" y="547"/>
      <point x="750" y="547" type="curve" smooth="yes"/>
      <point x="893" y="547"/>
      <point x="987" y="449"/>
      <point x="987" y="328" type="curve" smooth="yes"/>
      <point x="987" y="206"/>
      <point x="865" y="101"/>
      <point x="657" y="101" type="curve" smooth="yes"/>
      <point x="331" y="101"/>
      <point x="139" y="296"/>
      <point x="139" y="535" type="curve" smooth="yes"/>
      <point x="139" y="742"/>
      <point x="289" y="886"/>
      <point x="539" y="886" type="curve" smooth="yes"/>
      <point x="773" y="886" type="line"/>
      <point x="732" y="852" type="line"/>
    </contour>
    <contour>
      <point x="-132" y="8" type="move" name="x43"/>
    </contour>
    <contour>
      <point x="1196" y="8" type="move" name="x44"/>
    </contour>
    <contour>
      <point x="548" y="8" type="move" name="mark0"/>
    </contour>
  </outline>
</glyph>
<glyph name="nnadeva" format="1">
  <advance width="1434"/>
  <unicode hex="0923"/>
  <outline>
    <contour>
      <point x="654" y="1238" type="line"/>
      <point x="743" y="1238" type="line"/>
      <point x="743" y="752" type="line" smooth="yes"/>
      <point x="743" y="538"/>
      <point x="653" y="401"/>
      <point x="456" y="401" type="curve" smooth="yes"/>
      <point x="267" y="401"/>
      <point x="159" y="522"/>
      <point x="159" y="749" type="curve" smooth="yes"/>
      <point x="159" y="1238" type="line"/>
      <point x="248" y="1238" type="line"/>
      <point x="248" y="713" type="line" smooth="yes"/>
      <point x="248" y="558"/>
      <point x="328" y="483"/>
      <point x="448" y="483" type="curve" smooth="yes"/>
      <point x="581" y="483"/>
      <point x="654" y="567"/>
      <point x="654" y="743" type="curve" smooth="yes"/>
    </contour>
    <contour>
      <point x="-30" y="1198" type="curve"/>
      <point x="-30" y="1274" type="line"/>
      <point x="1464" y="1274" type="line"/>
      <point x="1464" y="1198" type="line"/>
      <point x="1464" y="1198"/>
      <point x="-30" y="1198"/>
    </contour>
    <contour>
      <point x="1095" y="1226" type="line"/>
      <point x="1184" y="1226" type="line"/>
      <point x="1184" y="0" type="line"/>
      <point x="1095" y="0" type="line"/>
    </contour>
  </outline>
</glyph>
<glyph name="tadeva" format="1">
  <advance width="1137"/>
  <unicode hex="0924"/>
  <outline>
    <contour>
      <point x="844" y="886" type="line"/>
      <point x="844" y="810" type="line"/>
      <point x="546" y="810" type="line" smooth="yes"/>
      <point x="327" y="810"/>
      <point x="229" y="706"/>
      <point x="229" y="552" type="curve" smooth="yes"/>
      <point x="229" y="418"/>
      <point x="270" y="286"/>
      <point x="456" y="32" type="curve"/>
      <point x="381" y="-2" type="line"/>
      <point x="199" y="247"/>
      <point x="144" y="416"/>
      <point x="144" y="567" type="curve" smooth="yes"/>
      <point x="144" y="751"/>
      <point x="265" y="886"/>
      <point x="513" y="886" type="curve" smooth="yes"/>
    </contour>
    <contour>
      <point x="-30" y="1198" type="curve"/>
      <point x="-30" y="1274" type="line"/>
      <point x="1167" y="1274" type="line"/>
      <point x="1167" y="1198" type="line"/>
      <point x="1167" y="1198"/>
      <point x="-30" y="1198"/>
    </contour>
    <contour>
      <point x="798" y="1226" type="line"/>
      <point x="887" y="1226" type="line"/>
      <point x="887" y="0" type="line"/>
      <point x="798" y="0" type="line"/>
    </contour>
  </outline>
</glyph>
<glyph name="thadeva" format="1">
  <advance width="1212"/>
  <unicode hex="0925"/>
  <outline>
    <contour>
      <point x="573" y="977" type="curve" smooth="yes"/>
      <point x="573" y="788"/>
      <point x="434" y="640"/>
      <point x="201" y="539" type="curve"/>
      <point x="207" y="590" type="line"/>
      <point x="299" y="447"/>
      <point x="429" y="367"/>
      <point x="558" y="367" type="curve" smooth="yes"/>
      <point x="702" y="367"/>
      <point x="830" y="430"/>
      <point x="922" y="564" type="curve"/>
      <point x="922" y="564"/>
      <point x="924" y="463"/>
      <point x="924" y="463" type="curve"/>
      <point x="847" y="354"/>
      <point x="716" y="290"/>
      <point x="571" y="290" type="curve" smooth="yes"/>
      <point x="396" y="290"/>
      <point x="225" y="400"/>
      <point x="120" y="591" type="curve"/>
      <point x="120" y="593" type="line"/>
      <point x="399" y="696"/>
      <point x="496" y="845"/>
      <point x="496" y="993" type="curve" smooth="yes"/>
      <point x="496" y="1132"/>
      <point x="410" y="1226"/>
      <point x="302" y="1226" type="curve" smooth="yes"/>
      <point x="200" y="1226"/>
      <point x="166" y="1168"/>
      <point x="166" y="1094" type="curve" smooth="yes"/>
      <point x="166" y="972"/>
      <point x="284" y="884"/>
      <point x="508" y="830" type="curve"/>
      <point x="469" y="768" type="line"/>
      <point x="208" y="831"/>
      <point x="84" y="958"/>
      <point x="84" y="1113" type="curve" smooth="yes"/>
      <point x="84" y="1218"/>
      <point x="160" y="1304"/>
      <point x="297" y="1304" type="curve" smooth="yes"/>
      <point x="465" y="1304"/>
      <point x="573" y="1161"/>
    </contour>
    <contour>
      <point x="873" y="1226" type="line"/>
      <point x="962" y="1226" type="line"/>
      <point x="962" y="0" type="line"/>
      <point x="873" y="0" type="line"/>
    </contour>
    <contour>
      <point x="1220" y="1198" type="line"/>
      <point x="755" y="1198" type="line"/>
      <point x="755" y="1274" type="line"/>
      <point x="1220" y="1274" type="line"/>
    </contour>
  </outline>
</glyph>
<glyph name="dadeva" format="1">
  <advance width="1007"/>
  <unicode hex="0926"/>
  <outline>
    <contour>
      <point x="-36" y="1198" type="curve"/>
      <point x="-36" y="1274" type="line"/>
      <point x="1011" y="1274" type="line"/>
      <point x="1011" y="1198" type="line"/>
      <point x="1011" y="1198"/>
      <point x="-36" y="1198"/>
    </contour>
    <contour>
      <point x="685" y="201" type="line"/>
      <point x="755" y="236" type="line"/>
      <point x="912" y="-96" type="line"/>
      <point x="838" y="-126" type="line"/>
    </contour>
    <contour>
      <point x="555" y="160" type="curve" smooth="yes"/>
      <point x="271" y="160"/>
      <point x="103" y="322"/>
      <point x="103" y="553" type="curve" smooth="yes"/>
      <point x="103" y="726"/>
      <point x="239" y="886"/>
      <point x="499" y="886" type="curve" smooth="yes"/>
      <point x="723" y="886" type="line"/>
      <point x="684" y="840" type="line"/>
      <point x="684" y="1248" type="line"/>
      <point x="773" y="1248" type="line"/>
      <point x="773" y="810" type="line"/>
      <point x="542" y="810" type="line" smooth="yes"/>
      <point x="277" y="810"/>
      <point x="188" y="674"/>
      <point x="188" y="528" type="curve" smooth="yes"/>
      <point x="188" y="364"/>
      <point x="321" y="240"/>
      <point x="551" y="240" type="curve" smooth="yes"/>
      <point x="611" y="240"/>
      <point x="656" y="249"/>
      <point x="741" y="281" type="curve"/>
      <point x="669" y="231" type="line"/>
      <point x="644" y="277"/>
      <point x="632" y="300"/>
      <point x="632" y="327" type="curve" smooth="yes"/>
      <point x="632" y="354"/>
      <point x="651" y="378"/>
      <point x="710" y="378" type="curve" smooth="yes"/>
      <point x="797" y="378"/>
      <point x="867" y="344"/>
      <point x="867" y="303" type="curve" smooth="yes"/>
      <point x="867" y="241"/>
      <point x="738" y="160"/>
    </contour>
    <contour>
      <point x="-65.0" y="8.0" type="move" name="x42"/>
    </contour>
    <contour>
      <point x="1166.0" y="8.0" type="move" name="x43"/>
    </contour>
    <contour>
      <point x="826.0" y="8.0" type="move" name="mark0"/>
    </contour>
  </outline>
</glyph>
<glyph name="dhadeva" format="1">
  <advance width="1238"/>
  <unicode hex="0927"/>
  <outline>
    <contour>
      <point x="661" y="793" type="line"/>
      <point x="651" y="793" type="line" smooth="yes"/>
      <point x="407" y="793"/>
      <point x="332" y="686"/>
      <point x="332" y="566" type="curve" smooth="yes"/>
      <point x="332" y="445"/>
      <point x="444" y="364"/>
      <point x="566" y="364" type="curve" smooth="yes"/>
      <point x="692" y="364"/>
      <point x="814" y="411"/>
      <point x="918" y="523" type="curve"/>
      <point x="918" y="414" type="line"/>
      <point x="827" y="336"/>
      <point x="707" y="288"/>
      <point x="583" y="288" type="curve" smooth="yes"/>
      <point x="396" y="288"/>
      <point x="252" y="401"/>
      <point x="252" y="580" type="curve" smooth="yes"/>
      <point x="252" y="723"/>
      <point x="356" y="864"/>
      <point x="625" y="864" type="curve" smooth="yes"/>
      <point x="638" y="864" type="line"/>
    </contour>
    <contour>
      <point x="390" y="771" type="curve"/>
      <point x="205" y="812"/>
      <point x="77" y="908"/>
      <point x="77" y="1070" type="curve" smooth="yes"/>
      <point x="77" y="1207"/>
      <point x="184" y="1304"/>
      <point x="319" y="1304" type="curve" smooth="yes"/>
      <point x="418" y="1304"/>
      <point x="483" y="1281"/>
      <point x="543" y="1248" type="curve"/>
      <point x="519" y="1176" type="line"/>
      <point x="468" y="1204"/>
      <point x="407" y="1223"/>
      <point x="330" y="1223" type="curve" smooth="yes"/>
      <point x="224" y="1223"/>
      <point x="160" y="1153"/>
      <point x="160" y="1055" type="curve" smooth="yes"/>
      <point x="160" y="938"/>
      <point x="271" y="863"/>
      <point x="474" y="832" type="curve"/>
      <point x="474" y="832"/>
      <point x="390" y="771"/>
    </contour>
    <contour>
      <point x="899" y="1226" type="line"/>
      <point x="988" y="1226" type="line"/>
      <point x="988" y="0" type="line"/>
      <point x="899" y="0" type="line"/>
    </contour>
    <contour>
      <point x="1268" y="1198" type="line"/>
      <point x="791" y="1198" type="line"/>
      <point x="791" y="1274" type="line"/>
      <point x="1268" y="1274" type="line"/>
    </contour>
  </outline>
</glyph>
<glyph name="nadeva" format="1">
  <advance width="1157"/>
  <unicode hex="0928"/>
  <outline>
    <contour>
      <point x="831" y="771" type="line"/>
      <point x="831" y="695" type="line"/>
      <point x="237" y="695" type="line"/>
      <point x="287" y="746" type="line"/>
      <point x="287" y="487" type="line" smooth="yes"/>
      <point x="287" y="455"/>
      <point x="274" y="442"/>
      <point x="256" y="442" type="curve" smooth="yes"/>
      <point x="247" y="442"/>
      <point x="241" y="445"/>
      <point x="234" y="452" type="curve" smooth="yes"/>
      <point x="199" y="487"/>
      <point x="157" y="631"/>
      <point x="157" y="718" type="curve" smooth="yes"/>
      <point x="157" y="750"/>
      <point x="177" y="771"/>
      <point x="213" y="771" type="curve" smooth="yes"/>
    </contour>
    <contour>
      <point x="-20" y="1198" type="curve"/>
      <point x="-20" y="1274" type="line"/>
      <point x="1177" y="1274" type="line"/>
      <point x="1177" y="1198" type="line"/>
      <point x="1177" y="1198"/>
      <point x="-20" y="1198"/>
    </contour>
    <contour>
      <point x="818" y="1226" type="line"/>
      <point x="907" y="1226" type="line"/>
      <point x="907" y="0" type="line"/>
      <point x="818" y="0" type="line"/>
    </contour>
  </outline>
</glyph>
<glyph name="padeva" format="1">
  <advance width="1100"/>
  <unicode hex="092A"/>
  <outline>
    <contour>
      <point x="1130" y="1198" type="line"/>
      <point x="-30" y="1198" type="line"/>
      <point x="-30" y="1274" type="line"/>
      <point x="1130" y="1274" type="line"/>
    </contour>
    <contour>
      <point x="257" y="1240" type="line"/>
      <point x="257" y="755" type="line" smooth="yes"/>
      <point x="257" y="580"/>
      <point x="345" y="510"/>
      <point x="497" y="510" type="curve" smooth="yes"/>
      <point x="598" y="510"/>
      <point x="699" y="540"/>
      <point x="794" y="604" type="curve"/>
      <point x="794" y="502" type="line"/>
      <point x="714" y="459"/>
      <point x="611" y="429"/>
      <point x="514" y="429" type="curve" smooth="yes"/>
      <point x="306" y="429"/>
      <point x="168" y="534"/>
      <point x="168" y="772" type="curve" smooth="yes"/>
      <point x="168" y="1240" type="line"/>
    </contour>
    <contour>
      <point x="761" y="1226" type="line"/>
      <point x="850" y="1226" type="line"/>
      <point x="850" y="0" type="line"/>
      <point x="761" y="0" type="line"/>
    </contour>
    <contour>
      <point x="761" y="1274" type="move" name="top"/>
    </contour>
  </outline>
</glyph>
<glyph name="phadeva" format="1">
  <advance width="1535"/>
  <unicode hex="092B"/>
  <outline>
    <contour>
      <point x="826" y="556" type="curve"/>
      <point x="805" y="643" type="line"/>
      <point x="883" y="706"/>
      <point x="993" y="762"/>
      <point x="1118" y="762" type="curve" smooth="yes"/>
      <point x="1299" y="762"/>
      <point x="1409" y="657"/>
      <point x="1409" y="472" type="curve" smooth="yes"/>
      <point x="1409" y="355"/>
      <point x="1359" y="231"/>
      <point x="1275" y="114" type="curve"/>
      <point x="1205" y="146" type="line"/>
      <point x="1293" y="268"/>
      <point x="1336" y="380"/>
      <point x="1336" y="484" type="curve" smooth="yes"/>
      <point x="1336" y="600"/>
      <point x="1259" y="683"/>
      <point x="1126" y="683" type="curve" smooth="yes"/>
      <point x="1016" y="683"/>
      <point x="910" y="629"/>
    </contour>
    <contour>
      <point x="257" y="1240" type="line"/>
      <point x="257" y="794" type="line" smooth="yes"/>
      <point x="257" y="624"/>
      <point x="341" y="549"/>
      <point x="495" y="549" type="curve" smooth="yes"/>
      <point x="593" y="549"/>
      <point x="684" y="575"/>
      <point x="776" y="631" type="curve"/>
      <point x="776" y="532" type="line"/>
      <point x="693" y="492"/>
      <point x="603" y="468"/>
      <point x="515" y="468" type="curve" smooth="yes"/>
      <point x="303" y="468"/>
      <point x="168" y="575"/>
      <point x="168" y="812" type="curve" smooth="yes"/>
      <point x="168" y="1240" type="line"/>
    </contour>
    <contour>
      <point x="-30" y="1198" type="curve"/>
      <point x="-30" y="1274" type="line"/>
      <point x="1565" y="1274" type="line"/>
      <point x="1565" y="1198" type="line"/>
      <point x="1565" y="1198"/>
      <point x="-30" y="1198"/>
    </contour>
    <contour>
      <point x="743" y="1226" type="line"/>
      <point x="832" y="1226" type="line"/>
      <point x="832" y="0" type="line"/>
      <point x="743" y="0" type="line"/>
    </contour>
    <contour>
      <point x="31" y="8" type="move" name="x43"/>
    </contour>
    <contour>
      <point x="869" y="8" type="move" name="mark0"/>
    </contour>
    <contour>
      <point x="869" y="8" type="move" name="x2"/>
    </contour>
  </outline>
</glyph>
<glyph name="badeva" format="1">
  <advance width="1126"/>
  <unicode hex="092C"/>
  <outline>
    <contour>
      <point x="744" y="419" type="line"/>
      <point x="684" y="372" type="line"/>
      <point x="293" y="822" type="line"/>
      <point x="353" y="869" type="line"/>
    </contour>
    <component base="vadeva"/>
  </outline>
</glyph>
<glyph name="bhadeva" format="1">
  <advance width="1251"/>
  <unicode hex="092D"/>
  <outline>
    <contour>
      <point x="912" y="1226" type="line"/>
      <point x="1001" y="1226" type="line"/>
      <point x="1001" y="0" type="line"/>
      <point x="912" y="0" type="line"/>
    </contour>
    <contour>
      <point x="1259" y="1198" type="line"/>
      <point x="754" y="1198" type="line"/>
      <point x="754" y="1274" type="line"/>
      <point x="1259" y="1274" type="line"/>
    </contour>
    <contour>
      <point x="484" y="570" type="line"/>
      <point x="484" y="433" type="line" smooth="yes"/>
      <point x="484" y="407"/>
      <point x="474" y="393"/>
      <point x="454" y="393" type="curve" smooth="yes"/>
      <point x="433" y="393"/>
      <point x="398" y="415"/>
      <point x="358" y="455" type="curve" smooth="yes"/>
      <point x="306" y="507"/>
      <point x="271" y="562"/>
      <point x="271" y="589" type="curve" smooth="yes"/>
      <point x="271" y="611"/>
      <point x="283" y="624"/>
      <point x="317" y="624" type="curve" smooth="yes"/>
      <point x="422" y="624" type="line"/>
      <point x="395" y="595" type="line"/>
      <point x="395" y="1022" type="line" smooth="yes"/>
      <point x="395" y="1142"/>
      <point x="329" y="1222"/>
      <point x="233" y="1222" type="curve" smooth="yes"/>
      <point x="152" y="1222"/>
      <point x="101" y="1166"/>
      <point x="101" y="1088" type="curve" smooth="yes"/>
      <point x="101" y="985"/>
      <point x="197" y="890"/>
      <point x="436" y="879" type="curve"/>
      <point x="406" y="809" type="line"/>
      <point x="161" y="825"/>
      <point x="19" y="935"/>
      <point x="19" y="1103" type="curve" smooth="yes"/>
      <point x="19" y="1204"/>
      <point x="94" y="1304"/>
      <point x="223" y="1304" type="curve" smooth="yes"/>
      <point x="389" y="1304"/>
      <point x="484" y="1184"/>
      <point x="484" y="1013" type="curve" smooth="yes"/>
      <point x="484" y="601" type="line"/>
      <point x="452" y="625" type="line"/>
      <point x="970" y="625" type="line"/>
      <point x="970" y="549" type="line"/>
      <point x="454" y="549" type="line"/>
    </contour>
  </outline>
</glyph>
<glyph name="madeva" format="1">
  <advance width="1162"/>
  <unicode hex="092E"/>
  <outline>
    <contour>
      <point x="-30" y="1198" type="curve"/>
      <point x="-30" y="1274" type="line"/>
      <point x="1192" y="1274" type="line"/>
      <point x="1192" y="1198" type="line"/>
      <point x="1192" y="1198"/>
      <point x="-30" y="1198"/>
    </contour>
    <contour>
      <point x="245" y="1238" type="line"/>
      <point x="334" y="1238" type="line"/>
      <point x="334" y="621" type="line"/>
      <point x="302" y="645" type="line"/>
      <point x="881" y="645" type="line"/>
      <point x="881" y="569" type="line"/>
      <point x="304" y="569" type="line"/>
      <point x="334" y="590" type="line"/>
      <point x="334" y="453" type="line" smooth="yes"/>
      <point x="334" y="427"/>
      <point x="324" y="413"/>
      <point x="304" y="413" type="curve" smooth="yes"/>
      <point x="283" y="413"/>
      <point x="248" y="435"/>
      <point x="208" y="475" type="curve" smooth="yes"/>
      <point x="156" y="527"/>
      <point x="121" y="582"/>
      <point x="121" y="609" type="curve" smooth="yes"/>
      <point x="121" y="631"/>
      <point x="133" y="645"/>
      <point x="167" y="645" type="curve" smooth="yes"/>
      <point x="272" y="645" type="line"/>
      <point x="245" y="615" type="line"/>
    </contour>
    <contour>
      <point x="823" y="1226" type="line"/>
      <point x="912" y="1226" type="line"/>
      <point x="912" y="0" type="line"/>
      <point x="823" y="0" type="line"/>
    </contour>
  </outline>
</glyph>
<glyph name="yadeva" format="1">
  <advance width="1158"/>
  <unicode hex="092F"/>
  <outline>
    <contour>
      <point x="362" y="1024" type="curve" smooth="yes"/>
      <point x="362" y="1218" type="line"/>
      <point x="451" y="1218" type="line"/>
      <point x="451" y="1015" type="line" smooth="yes"/>
      <point x="451" y="822"/>
      <point x="357" y="664"/>
      <point x="151" y="593" type="curve"/>
      <point x="158" y="656" type="line"/>
      <point x="235" y="505"/>
      <point x="378" y="419"/>
      <point x="515" y="419" type="curve" smooth="yes"/>
      <point x="647" y="419"/>
      <point x="766" y="477"/>
      <point x="870" y="613" type="curve"/>
      <point x="869" y="495" type="line"/>
      <point x="782" y="398"/>
      <point x="670" y="336"/>
      <point x="520" y="336" type="curve" smooth="yes"/>
      <point x="352" y="336"/>
      <point x="184" y="440"/>
      <point x="71" y="642" type="curve"/>
      <point x="71" y="647" type="line"/>
      <point x="317" y="737"/>
      <point x="362" y="867"/>
    </contour>
    <contour>
      <point x="-29" y="1198" type="curve"/>
      <point x="-29" y="1274" type="line"/>
      <point x="1166" y="1274" type="line"/>
      <point x="1166" y="1198" type="line"/>
      <point x="1166" y="1198"/>
      <point x="-29" y="1198"/>
    </contour>
    <contour>
      <point x="818" y="1226" type="line"/>
      <point x="907" y="1226" type="line"/>
      <point x="907" y="0" type="line"/>
      <point x="818" y="0" type="line"/>
    </contour>
  </outline>
</glyph>
<glyph name="radeva" format="1">
  <advance width="848"/>
  <unicode hex="0930"/>
  <outline>
    <contour>
      <point x="674" y="53" type="line"/>
      <point x="610" y="4" type="line"/>
      <point x="79" y="745" type="line" smooth="yes"/>
      <point x="65" y="765"/>
      <point x="55" y="777"/>
      <point x="55" y="795" type="curve" smooth="yes"/>
      <point x="55" y="816"/>
      <point x="72" y="833"/>
      <point x="96" y="833" type="curve" smooth="yes"/>
      <point x="110" y="833"/>
      <point x="123" y="826"/>
      <point x="134" y="810" type="curve" smooth="yes"/>
      <point x="308" y="565" type="line"/>
      <point x="322" y="545" type="line"/>
    </contour>
    <contour>
      <point x="238" y="580" type="line"/>
      <point x="429" y="621"/>
      <point x="517" y="743"/>
      <point x="517" y="930" type="curve" smooth="yes"/>
      <point x="517" y="1228" type="line"/>
      <point x="606" y="1228" type="line"/>
      <point x="606" y="917" type="line" smooth="yes"/>
      <point x="606" y="744"/>
      <point x="542" y="569"/>
      <point x="292" y="514" type="curve"/>
    </contour>
    <contour>
      <point x="-30" y="1198" type="curve"/>
      <point x="-30" y="1274" type="line"/>
      <point x="878" y="1274" type="line"/>
      <point x="878" y="1198" type="line"/>
      <point x="878" y="1198"/>
      <point x="-30" y="1198"/>
    </contour>
    <contour>
      <point x="-6" y="8" type="move" name="x27"/>
    </contour>
    <contour>
      <point x="508" y="8" type="move" name="mark0"/>
    </contour>
  </outline>
</glyph>
<glyph name="rradeva" format="1">
  <advance width="818"/>
  <unicode hex="0931"/>
  <outline>
    <component base="nuktadeva" xOffset="938" yOffset="236"/>
    <component base="radeva"/>
    <contour>
      <point x="517" y="1274" type="move" name="top"/>
    </contour>
  </outline>
</glyph>
<glyph name="ladeva" format="1">
  <advance width="1346"/>
  <unicode hex="0932"/>
  <outline>
    <contour>
      <point x="1035" y="920" type="line"/>
      <point x="1035" y="805" type="line"/>
      <point x="588" y="380" type="line"/>
      <point x="532" y="439" type="line"/>
    </contour>
    <contour>
      <point x="805" y="677" type="curve"/>
      <point x="751" y="617" type="line"/>
      <point x="633" y="748"/>
      <point x="526" y="805"/>
      <point x="409" y="805" type="curve" smooth="yes"/>
      <point x="271" y="805"/>
      <point x="174" y="699"/>
      <point x="174" y="569" type="curve" smooth="yes"/>
      <point x="174" y="412"/>
      <point x="250" y="283"/>
      <point x="461" y="94" type="curve"/>
      <point x="400" y="42" type="line"/>
      <point x="201" y="226"/>
      <point x="92" y="385"/>
      <point x="92" y="582" type="curve" smooth="yes"/>
      <point x="92" y="750"/>
      <point x="214" y="886"/>
      <point x="405" y="886" type="curve" smooth="yes"/>
      <point x="549" y="886"/>
      <point x="673" y="821"/>
    </contour>
    <contour>
      <point x="-20" y="1198" type="curve"/>
      <point x="-20" y="1274" type="line"/>
      <point x="1366" y="1274" type="line"/>
      <point x="1366" y="1198" type="line"/>
      <point x="1366" y="1198"/>
      <point x="-20" y="1198"/>
    </contour>
    <contour>
      <point x="1007" y="1226" type="line"/>
      <point x="1096" y="1226" type="line"/>
      <point x="1096" y="0" type="line"/>
      <point x="1007" y="0" type="line"/>
    </contour>
  </outline>
</glyph>
<glyph name="lladeva" format="1">
  <advance width="1511"/>
  <unicode hex="0933"/>
  <outline>
    <contour>
      <point x="1541" y="1198" type="line"/>
      <point x="-30" y="1198" type="line"/>
      <point x="-30" y="1274" type="line"/>
      <point x="1541" y="1274" type="line"/>
    </contour>
    <contour>
      <point x="712" y="532" type="curve" smooth="yes"/>
      <point x="806" y="757"/>
      <point x="915" y="886"/>
      <point x="1071" y="886" type="curve" smooth="yes"/>
      <point x="1281" y="886"/>
      <point x="1407" y="730"/>
      <point x="1407" y="511" type="curve" smooth="yes"/>
      <point x="1407" y="292"/>
      <point x="1263" y="165"/>
      <point x="1092" y="165" type="curve" smooth="yes"/>
      <point x="935" y="165"/>
      <point x="812" y="236"/>
      <point x="667" y="373" type="curve"/>
      <point x="709" y="439" type="line"/>
      <point x="835" y="305"/>
      <point x="975" y="243"/>
      <point x="1086" y="243" type="curve" smooth="yes"/>
      <point x="1229" y="243"/>
      <point x="1330" y="356"/>
      <point x="1330" y="532" type="curve" smooth="yes"/>
      <point x="1330" y="686"/>
      <point x="1217" y="804"/>
      <point x="1086" y="804" type="curve" smooth="yes"/>
      <point x="970" y="804"/>
      <point x="864" y="700"/>
      <point x="789" y="509" type="curve" smooth="yes"/>
      <point x="702" y="286"/>
      <point x="584" y="165"/>
      <point x="420" y="165" type="curve" smooth="yes"/>
      <point x="261" y="165"/>
      <point x="99" y="287"/>
      <point x="99" y="526" type="curve" smooth="yes"/>
      <point x="99" y="734"/>
      <point x="239" y="886"/>
      <point x="420" y="886" type="curve" smooth="yes"/>
      <point x="584" y="886"/>
      <point x="708" y="802"/>
      <point x="836" y="673" type="curve"/>
      <point x="804" y="597" type="line"/>
      <point x="659" y="747"/>
      <point x="545" y="804"/>
      <point x="430" y="804" type="curve" smooth="yes"/>
      <point x="286" y="804"/>
      <point x="181" y="695"/>
      <point x="181" y="507" type="curve" smooth="yes"/>
      <point x="181" y="340"/>
      <point x="295" y="243"/>
      <point x="405" y="243" type="curve" smooth="yes"/>
      <point x="532" y="243"/>
      <point x="631" y="339"/>
    </contour>
    <contour>
      <point x="1116" y="823" type="line"/>
      <point x="1027" y="823" type="line"/>
      <point x="1027" y="1226" type="line"/>
      <point x="1116" y="1226" type="line"/>
    </contour>
    <contour>
      <point x="-96" y="-30" type="move" name="x66"/>
    </contour>
    <contour>
      <point x="1461" y="-30" type="move" name="x67"/>
    </contour>
    <contour>
      <point x="956" y="-30" type="move" name="mark0"/>
    </contour>
  </outline>
</glyph>
<glyph name="llladeva" format="1">
  <advance width="1511"/>
  <unicode hex="0934"/>
  <outline>
    <component base="nuktadeva" xOffset="957" yOffset="236"/>
    <component base="lladeva"/>
    <contour>
      <point x="1031" y="0" type="move" name="btm"/>
    </contour>
  </outline>
</glyph>
<glyph name="vadeva" format="1">
  <advance width="1126"/>
  <unicode hex="0935"/>
  <outline>
    <contour>
      <point x="1156" y="1198" type="line"/>
      <point x="-30" y="1198" type="line"/>
      <point x="-30" y="1274" type="line"/>
      <point x="1156" y="1274" type="line"/>
    </contour>
    <contour>
      <point x="817" y="520" type="curve"/>
      <point x="815" y="415" type="line"/>
      <point x="733" y="338"/>
      <point x="632" y="284"/>
      <point x="510" y="284" type="curve" smooth="yes"/>
      <point x="289" y="284"/>
      <point x="134" y="444"/>
      <point x="134" y="649" type="curve" smooth="yes"/>
      <point x="134" y="834"/>
      <point x="281" y="944"/>
      <point x="477" y="944" type="curve" smooth="yes"/>
      <point x="609" y="944"/>
      <point x="715" y="915"/>
      <point x="843" y="863" type="curve"/>
      <point x="843" y="781" type="line"/>
      <point x="708" y="841"/>
      <point x="603" y="864"/>
      <point x="504" y="864" type="curve" smooth="yes"/>
      <point x="305" y="864"/>
      <point x="215" y="768"/>
      <point x="215" y="630" type="curve" smooth="yes"/>
      <point x="215" y="486"/>
      <point x="324" y="360"/>
      <point x="502" y="360" type="curve" smooth="yes"/>
      <point x="613" y="360"/>
      <point x="720" y="417"/>
    </contour>
    <contour>
      <point x="787" y="1226" type="line"/>
      <point x="876" y="1226" type="line"/>
      <point x="876" y="0" type="line"/>
      <point x="787" y="0" type="line"/>
    </contour>
  </outline>
</glyph>
<glyph name="shadeva" format="1">
  <advance width="1377"/>
  <unicode hex="0936"/>
  <outline>
    <contour>
      <point x="329" y="487" type="line"/>
      <point x="716" y="73" type="line"/>
      <point x="652" y="19" type="line"/>
      <point x="270" y="438" type="line"/>
    </contour>
    <contour>
      <point x="733" y="590"/>
      <point x="388" y="360"/>
      <point x="189" y="360" type="curve" smooth="yes"/>
      <point x="139" y="360"/>
      <point x="120" y="392"/>
      <point x="120" y="443" type="curve" smooth="yes"/>
      <point x="120" y="503"/>
      <point x="158" y="578"/>
      <point x="215" y="578" type="curve" smooth="yes"/>
      <point x="256" y="578"/>
      <point x="301" y="541"/>
      <point x="360" y="461" type="curve"/>
      <point x="275" y="461" type="line"/>
      <point x="468" y="510"/>
      <point x="656" y="686"/>
      <point x="656" y="918" type="curve" smooth="yes"/>
      <point x="656" y="1072"/>
      <point x="550" y="1213"/>
      <point x="395" y="1213" type="curve" smooth="yes"/>
      <point x="283" y="1213"/>
      <point x="223" y="1146"/>
      <point x="223" y="1067" type="curve" smooth="yes"/>
      <point x="223" y="949"/>
      <point x="353" y="838"/>
      <point x="687" y="839" type="curve"/>
      <point x="661" y="765" type="line"/>
      <point x="284" y="768"/>
      <point x="142" y="911"/>
      <point x="142" y="1082" type="curve" smooth="yes"/>
      <point x="142" y="1194"/>
      <point x="236" y="1294"/>
      <point x="385" y="1294" type="curve" smooth="yes"/>
      <point x="583" y="1294"/>
      <point x="733" y="1137"/>
      <point x="733" y="917" type="curve" smooth="yes"/>
    </contour>
    <contour>
      <point x="1038" y="1226" type="line"/>
      <point x="1127" y="1226" type="line"/>
      <point x="1127" y="0" type="line"/>
      <point x="1038" y="0" type="line"/>
    </contour>
    <contour>
      <point x="1397" y="1198" type="line"/>
      <point x="830" y="1198" type="line"/>
      <point x="830" y="1274" type="line"/>
      <point x="1397" y="1274" type="line"/>
    </contour>
  </outline>
</glyph>
<glyph name="ssadeva" format="1">
  <advance width="1110"/>
  <unicode hex="0937"/>
  <outline>
    <contour>
      <point x="808" y="569" type="line"/>
      <point x="744" y="522" type="line"/>
      <point x="205" y="1181" type="line"/>
      <point x="269" y="1228" type="line"/>
    </contour>
    <component base="padeva"/>
    <contour>
      <point x="761" y="1274" type="move" name="top"/>
    </contour>
  </outline>
</glyph>
<glyph name="sadeva" format="1">
  <advance width="1374"/>
  <unicode hex="0938"/>
  <outline>
    <contour>
      <point x="674" y="53" type="line"/>
      <point x="610" y="4" type="line"/>
      <point x="79" y="745" type="line" smooth="yes"/>
      <point x="65" y="765"/>
      <point x="55" y="777"/>
      <point x="55" y="795" type="curve" smooth="yes"/>
      <point x="55" y="816"/>
      <point x="72" y="833"/>
      <point x="96" y="833" type="curve" smooth="yes"/>
      <point x="110" y="833"/>
      <point x="123" y="826"/>
      <point x="134" y="810" type="curve" smooth="yes"/>
      <point x="308" y="565" type="line"/>
      <point x="322" y="545" type="line"/>
    </contour>
    <contour>
      <point x="218" y="580" type="line"/>
      <point x="409" y="621"/>
      <point x="497" y="743"/>
      <point x="497" y="930" type="curve" smooth="yes"/>
      <point x="497" y="1228" type="line"/>
      <point x="586" y="1228" type="line"/>
      <point x="586" y="917" type="line" smooth="yes"/>
      <point x="586" y="744"/>
      <point x="522" y="569"/>
      <point x="272" y="514" type="curve"/>
    </contour>
    <contour>
      <point x="-20" y="1198" type="line"/>
      <point x="-20" y="1274" type="line"/>
      <point x="1394" y="1274" type="line"/>
      <point x="1394" y="1198" type="line"/>
    </contour>
    <contour>
      <point x="461" y="630" type="curve"/>
      <point x="483" y="705" type="line"/>
      <point x="609" y="653"/>
      <point x="705" y="632"/>
      <point x="789" y="632" type="curve" smooth="yes"/>
      <point x="884" y="632"/>
      <point x="993" y="651"/>
      <point x="1057" y="679" type="curve"/>
      <point x="1057" y="594" type="line"/>
      <point x="1011" y="572"/>
      <point x="909" y="552"/>
      <point x="805" y="552" type="curve" smooth="yes"/>
      <point x="693" y="552"/>
      <point x="593" y="576"/>
    </contour>
    <contour>
      <point x="1035" y="1226" type="line"/>
      <point x="1124" y="1226" type="line"/>
      <point x="1124" y="0" type="line"/>
      <point x="1035" y="0" type="line"/>
    </contour>
  </outline>
</glyph>
